<svg width="28" height="28" viewBox="0 0 28 28" fill="none" xmlns="http://www.w3.org/2000/svg">
<circle cx="14" cy="14" r="13.75" stroke="white" stroke-width="0.5"/>
<path d="M16.8248 20.4349C16.7757 20.4697 16.7215 20.4904 16.6666 20.4973L16.6251 20.4976C16.5793 20.4979 16.5333 20.4887 16.4895 20.4698C16.4457 20.451 16.4043 20.4227 16.3681 20.3851C16.368 20.3849 16.3678 20.3848 16.3677 20.3846L11.1179 14.867C11.1178 14.8668 11.1177 14.8667 11.1175 14.8666C11.0448 14.7895 11 14.6803 11 14.5616C11 14.4429 11.0448 14.3336 11.1176 14.2566C11.1177 14.2564 11.1178 14.2563 11.1179 14.2562L16.3538 8.75077C16.4244 8.69139 16.5088 8.66368 16.5913 8.66688C16.6783 8.67024 16.7659 8.70809 16.835 8.78074C16.9048 8.8541 16.9494 8.95718 16.9534 9.07056C16.9572 9.17859 16.9235 9.28099 16.8637 9.35937L12.2481 14.2126L11.9204 14.5572L12.2481 14.9018L16.8788 19.7709L16.8802 19.7724C16.9349 19.8294 16.9749 19.9052 16.9916 19.9914C17.0082 20.0776 17 20.1669 16.9688 20.247C16.9377 20.327 16.8862 20.3914 16.8248 20.4349Z" fill="#DCDDEB" stroke="white"/>
</svg>
