<svg width="22" height="22" viewBox="0 0 22 22" fill="none" xmlns="http://www.w3.org/2000/svg">
<g clip-path="url(#clip0_410_937)">
<path d="M10.999 21.9981C17.0736 21.9981 21.9981 17.0736 21.9981 10.999C21.9981 4.92444 17.0736 0 10.999 0C4.92444 0 0 4.92444 0 10.999C0 17.0736 4.92444 21.9981 10.999 21.9981Z" fill="url(#paint0_linear_410_937)"/>
<g clip-path="url(#clip1_410_937)">
<path fill-rule="evenodd" clip-rule="evenodd" d="M16.6996 14.8535C16.7 15.9093 15.8157 16.7535 14.7614 16.6971C12.613 16.5824 10.2685 15.5302 8.36989 13.6316C6.46992 11.7327 5.41748 9.38707 5.30294 7.23803C5.24677 6.18394 6.09042 5.2998 7.14601 5.2998H8.34024C8.63026 5.2998 8.80257 5.54523 8.86828 5.82784L9.38751 8.08353C9.45382 8.37158 9.36556 8.67337 9.15451 8.8803L8.60795 9.41621C8.21704 9.7995 8.15468 10.4071 8.45999 10.8615C8.80173 11.3702 9.20607 11.8638 9.67025 12.3288C10.1346 12.7931 10.6285 13.1976 11.1376 13.5394C11.5921 13.8445 12.1995 13.7821 12.5827 13.3913L13.1188 12.8446C13.3257 12.6335 13.6275 12.5453 13.9155 12.6116L16.1712 13.1308C16.4538 13.1965 16.6993 13.3687 16.6993 13.6588L16.6996 14.8535Z" fill="white"/>
</g>
</g>
<defs>
<linearGradient id="paint0_linear_410_937" x1="10.999" y1="22" x2="10.999" y2="0" gradientUnits="userSpaceOnUse">
<stop stop-color="#0093D4"/>
<stop offset="1" stop-color="#00B0E5"/>
</linearGradient>
<clipPath id="clip0_410_937">
<rect width="22" height="22" fill="white"/>
</clipPath>
<clipPath id="clip1_410_937">
<rect width="12" height="12" fill="white" transform="translate(5 5)"/>
</clipPath>
</defs>
</svg>
