<svg width="66" height="67" viewBox="0 0 66 67" fill="none" xmlns="http://www.w3.org/2000/svg">
<rect y="0.472061" width="66" height="66" rx="33" fill="#3EBF80"/>
<g clip-path="url(#clip0_44_866)">
<path d="M13.5893 30.2284C12.7895 30.3125 12.0495 30.6911 11.5134 31.2907C10.9773 31.8902 10.6835 32.6678 10.6891 33.4721L10.6891 36.0985C10.692 36.2712 10.7618 36.4359 10.8839 36.558C11.006 36.6801 11.1708 36.75 11.3434 36.7528L12.0023 36.7528L12.0023 39.3793L13.3109 39.3793L13.3109 36.7528L14.6288 36.7528L14.6242 39.3746L15.9374 39.3793L15.9374 36.7528L16.5963 36.7528C16.6818 36.7537 16.7665 36.7373 16.8454 36.7046C16.9244 36.6719 16.9959 36.6236 17.0557 36.5626C17.1174 36.5021 17.1665 36.4299 17.1999 36.3502C17.2334 36.2705 17.2506 36.185 17.2506 36.0985L17.2506 33.4721C17.2535 32.7661 17.0257 32.0785 16.6019 31.5139C16.178 30.9493 15.5813 30.5387 14.9026 30.3445C15.5331 26.6039 17.3179 23.1544 20.007 20.479C22.1411 18.3488 24.7661 16.7759 27.6511 15.8989C30.5361 15.022 33.5924 14.8678 36.551 15.4499C39.5095 16.0321 42.2796 17.3328 44.6172 19.2375C46.9548 21.1421 48.7882 23.5923 49.9561 26.3723L51.1672 25.8665C49.9163 22.8876 47.9521 20.2621 45.4476 18.2211C42.9431 16.18 39.9752 14.7862 36.8052 14.1623C33.6351 13.5384 30.3604 13.7035 27.2692 14.6432C24.178 15.5829 21.3654 17.2683 19.0789 19.5509C16.1708 22.4436 14.2497 26.1802 13.5893 30.2284Z" fill="white"/>
<path d="M41.8167 42.2888C43.5605 40.545 44.7481 38.3233 45.2292 35.9046C45.7103 33.4859 45.4634 30.9788 44.5196 28.7005C43.5759 26.4221 41.9777 24.4748 39.9273 23.1047C37.8768 21.7346 35.4661 21.0033 33 21.0033C30.5339 21.0033 28.1232 21.7346 26.0727 23.1047C24.0223 24.4748 22.4241 26.4221 21.4804 28.7005C20.5366 30.9788 20.2897 33.4859 20.7708 35.9046C21.2519 38.3233 22.4395 40.545 24.1833 42.2888C26.5231 44.6244 29.694 45.9362 33 45.9362C36.306 45.9362 39.4769 44.6244 41.8167 42.2888ZM27.8956 37.6484L31.1438 34.4001L28.8237 32.0799C28.7448 32.0006 28.6875 31.9024 28.6573 31.7947C28.627 31.687 28.6248 31.5734 28.6509 31.4646C28.6769 31.3558 28.7303 31.2554 28.806 31.1731C28.8818 31.0908 28.9773 31.0291 29.0835 30.9941L37.4362 28.2099C37.5513 28.1719 37.6747 28.1665 37.7926 28.1944C37.9105 28.2222 38.0185 28.2822 38.1044 28.3676C38.1404 28.4037 38.1716 28.4443 38.1972 28.4883C38.2747 28.6137 38.3077 28.7616 38.2909 28.9081C38.274 29.0546 38.2084 29.1911 38.1044 29.2957L34.8562 32.544L37.1763 34.8642C37.2552 34.9435 37.3125 35.0417 37.3427 35.1494C37.373 35.2571 37.3752 35.3707 37.3491 35.4795C37.3231 35.5883 37.2697 35.6887 37.194 35.771C37.1182 35.8534 37.0227 35.915 36.9165 35.95L28.5638 38.7343C28.4239 38.7794 28.273 38.7762 28.1351 38.7253C27.9973 38.6745 27.8805 38.5788 27.8035 38.4536C27.7264 38.3285 27.6937 38.1811 27.7104 38.0351C27.7271 37.8891 27.7923 37.7529 27.8956 37.6484Z" fill="white"/>
<path d="M49.4038 30.1913C49.3184 30.1905 49.2337 30.2069 49.1547 30.2396C49.0758 30.2723 49.0043 30.3206 48.9444 30.3816C48.8827 30.4421 48.8337 30.5143 48.8002 30.5939C48.7668 30.6736 48.7495 30.7592 48.7495 30.8456L48.7495 33.4721C48.7466 34.178 48.9744 34.8656 49.3983 35.4302C49.8221 35.9948 50.4188 36.4055 51.0976 36.5997C50.4671 40.3402 48.6823 43.7898 45.9931 46.4651C43.8591 48.5954 41.234 50.1682 38.349 51.0452C35.4641 51.9222 32.4078 52.0764 29.4492 51.4942C26.4906 50.912 23.7206 49.6113 21.383 47.7067C19.0454 45.802 17.2119 43.3518 16.0441 40.5719L14.8329 41.0777C16.0838 44.0565 18.048 46.6821 20.5525 48.7231C23.057 50.7641 26.025 52.1579 29.195 52.7819C32.365 53.4058 35.6398 53.2406 38.731 52.3009C41.8221 51.3612 44.6348 49.6759 46.9212 47.3932C49.8293 44.5006 51.7504 40.764 52.4108 36.7157C53.2107 36.6317 53.9507 36.253 54.4868 35.6535C55.0229 35.0539 55.3167 34.2763 55.311 33.4721L55.311 30.8456C55.3082 30.673 55.2383 30.5082 55.1162 30.3861C54.9941 30.264 54.8294 30.1942 54.6567 30.1913L53.9978 30.1913L53.9978 27.5648L52.6892 27.5648L52.6892 30.1913L51.3714 30.1913L51.376 27.5695L50.0628 27.5648L50.0628 30.1913L49.4038 30.1913Z" fill="white"/>
</g>
<defs>
<clipPath id="clip0_44_866">
<rect width="42" height="42" fill="white" transform="translate(33 63.1705) rotate(-135)"/>
</clipPath>
</defs>
</svg>
