<svg width="66" height="67" viewBox="0 0 66 67" fill="none" xmlns="http://www.w3.org/2000/svg">
<rect y="0.70813" width="66" height="66" rx="33" fill="#3EBF80"/>
<path d="M49.019 22.2763C49.5252 21.6512 49.7808 20.8602 49.7359 20.0572C49.691 19.2542 49.3489 18.4966 48.7762 17.9319L46.919 16.0747C46.7949 15.9546 46.6291 15.8875 46.4564 15.8875C46.2837 15.8875 46.1178 15.9546 45.9937 16.0747L45.5278 16.5406L43.6706 14.6834L42.7453 15.6088L44.6025 17.4659L43.6706 18.3978L41.82 16.5406L40.8881 17.4659L42.7453 19.3231L42.2794 19.7891C42.2183 19.8489 42.17 19.9204 42.1373 19.9993C42.1046 20.0783 42.0882 20.163 42.089 20.2484C42.0882 20.3349 42.1046 20.4206 42.1373 20.5006C42.1699 20.5806 42.2182 20.6533 42.2794 20.7144L44.1365 22.5716C44.6337 23.0728 45.281 23.3979 45.9799 23.4975C46.6788 23.597 47.3911 23.4654 48.0084 23.1228C50.2076 26.2136 51.3847 29.9149 51.375 33.7081C51.3723 36.7234 50.6282 39.6918 49.2084 42.3519C47.7885 45.012 45.7364 47.2822 43.2327 48.9626C40.729 50.6429 37.8506 51.6819 34.8508 51.9881C31.8511 52.2942 28.8221 51.8581 26.0306 50.7181L25.5319 51.9322C28.5227 53.154 31.7682 53.6217 34.9823 53.294C38.1965 52.9662 41.2808 51.8532 43.9635 50.0528C46.6462 48.2524 48.845 45.82 50.3664 42.9698C51.8877 40.1196 52.6848 36.939 52.6875 33.7081C52.6984 29.6064 51.4147 25.6058 49.019 22.2763Z" fill="white"/>
<path d="M20.5312 33.7081C20.5313 36.1742 21.2625 38.5849 22.6326 40.6354C24.0027 42.6859 25.9501 44.284 28.2284 45.2278C30.5068 46.1715 33.0138 46.4184 35.4325 45.9373C37.8512 45.4562 40.073 44.2687 41.8167 42.5249C43.5605 40.7811 44.7481 38.5594 45.2292 36.1407C45.7103 33.722 45.4634 31.2149 44.5196 28.9365C43.5759 26.6582 41.9777 24.7108 39.9273 23.3407C37.8768 21.9707 35.4661 21.2394 33 21.2394C29.694 21.2423 26.5242 22.557 24.1865 24.8947C21.8488 27.2324 20.5342 30.4021 20.5312 33.7081ZM33.6562 27.1456V31.7394H36.9375C37.0494 31.7397 37.1593 31.7686 37.2568 31.8234C37.3544 31.8782 37.4363 31.957 37.4948 32.0523C37.5533 32.1477 37.5865 32.2564 37.5912 32.3682C37.5959 32.4799 37.5719 32.591 37.5216 32.6909L33.5841 40.5659C33.5295 40.6742 33.4461 40.7652 33.343 40.8289C33.2399 40.8926 33.1212 40.9265 33 40.9269C32.9491 40.9268 32.8983 40.9202 32.8491 40.9072C32.7056 40.8733 32.5777 40.792 32.486 40.6765C32.3943 40.5611 32.3442 40.4181 32.3438 40.2706V35.6769H29.0625C28.9506 35.6765 28.8407 35.6476 28.7432 35.5928C28.6456 35.5381 28.5637 35.4593 28.5052 35.3639C28.4467 35.2686 28.4135 35.1599 28.4088 35.0481C28.4041 34.9363 28.4281 34.8252 28.4784 34.7253L32.4159 26.8503C32.4829 26.7195 32.5919 26.615 32.7254 26.5535C32.8588 26.492 33.0091 26.4771 33.152 26.5111C33.295 26.5452 33.4224 26.6262 33.5138 26.7412C33.6052 26.8563 33.6554 26.9987 33.6562 27.1456Z" fill="white"/>
<path d="M23.7206 47.6272C23.7816 47.5674 23.8299 47.4959 23.8626 47.4169C23.8953 47.338 23.9117 47.2533 23.9109 47.1678C23.9117 47.0814 23.8954 46.9957 23.8627 46.9157C23.83 46.8357 23.7817 46.763 23.7206 46.7019L21.8634 44.8447C21.3662 44.3434 20.719 44.0183 20.02 43.9188C19.3211 43.8193 18.6088 43.9509 17.9915 44.2935C15.7924 41.2027 14.6152 37.5014 14.6249 33.7081C14.6276 30.6928 15.3717 27.7244 16.7915 25.0643C18.2114 22.4043 20.2635 20.1341 22.7672 18.4537C25.2709 16.7734 28.1494 15.7344 31.1491 15.4282C34.1488 15.1221 37.1778 15.5582 39.9693 16.6981L40.4681 15.4841C37.4772 14.2622 34.2318 13.7946 31.0176 14.1223C27.8034 14.45 24.7192 15.5631 22.0365 17.3635C19.3537 19.1638 17.1549 21.5962 15.6336 24.4465C14.1123 27.2967 13.3151 30.4773 13.3124 33.7081C13.3015 37.8099 14.5853 41.8105 16.9809 45.14C16.4747 45.765 16.2192 46.556 16.264 47.3591C16.3089 48.1621 16.651 48.9197 17.2237 49.4844L19.0809 51.3416C19.205 51.4616 19.3709 51.5287 19.5435 51.5287C19.7162 51.5287 19.8821 51.4616 20.0062 51.3416L20.4721 50.8756L22.3293 52.7328L23.2546 51.8075L21.3974 49.9503L22.3293 49.0185L24.1799 50.8756L25.1118 49.9503L23.2546 48.0931L23.7206 47.6272Z" fill="white"/>
</svg>
