<svg width="216" height="199" viewBox="0 0 216 199" fill="none" xmlns="http://www.w3.org/2000/svg">
<g clip-path="url(#clip0_85_489)">
<path d="M206.14 124.429C199.437 142.702 185.737 162.475 166.457 168.33C137.327 177.178 133.848 201.067 81.6745 198.854C73.5401 198.508 66.0211 197.346 59.113 195.487C55.3981 194.489 51.8616 193.283 48.5035 191.899C18.0216 179.338 2.12281 151.693 0.802742 122.77C-0.940992 84.7282 25.1481 66.5965 42.1038 55.9784C59.0595 45.3602 79.4937 4.22249 130.802 5.98775C138.625 6.26274 146.429 7.3494 153.993 9.434C171.256 14.1887 188.805 24.7004 199.004 40.0733C199.771 41.2265 200.498 42.4107 201.198 43.6127C214.845 67.1687 215.278 99.52 206.135 124.429H206.14Z" fill="#3EBF80"/>
<path opacity="0.7" d="M206.14 124.429C199.437 142.702 185.737 162.475 166.457 168.33C137.327 177.178 133.848 201.067 81.6745 198.854C73.5401 198.508 66.0211 197.346 59.113 195.487C55.3981 194.489 51.8616 193.283 48.5035 191.899C18.0216 179.338 2.12281 151.693 0.802742 122.77C-0.940992 84.7282 25.1481 66.5965 42.1038 55.9784C59.0595 45.3602 79.4937 4.22249 130.802 5.98775C138.625 6.26274 146.429 7.3494 153.993 9.434C171.256 14.1887 188.805 24.7004 199.004 40.0733C199.771 41.2265 200.498 42.4107 201.198 43.6127C214.845 67.1687 215.278 99.52 206.135 124.429H206.14Z" fill="white"/>
<path d="M213.685 105.539H203.58V74.0483H192.462V92.4727H187.075V47.5871H181.687V59.9794H176.634V40.2156H168.215V86.108H164.509V95.8213H160.129V61.3189H151.37V88.4543H148.003V29.8325H132.845V99.8442H104.214V53.9518H98.8264V36.5298H88.7208V18.1055H69.5219V52.6079H61.7754V89.4566H47.9683V59.0569H34.5313V93.1424H24.39V73.0459H12.5986V106.542" stroke="#263238" stroke-linecap="round" stroke-linejoin="round"/>
<path d="M156.196 10.255C155.224 9.98001 154.225 9.89131 153.23 10.2506C149.243 11.6921 150.692 14.2158 148.159 15.2935C145.622 16.3758 139.829 10.6098 137.652 12.4106C135.481 14.2113 134.754 17.0943 133.304 17.8128C131.855 18.5313 128.956 16.0121 127.507 17.8128L126.057 19.6136H168.848" stroke="#263238" stroke-linecap="round" stroke-linejoin="round"/>
<path d="M171.332 19.6177H197.064C197.064 19.6177 198.152 15.6525 195.254 13.8518C192.355 12.051 191.632 14.211 188.372 13.4925C188.372 13.4925 179.676 0.159907 172.795 0.882866C165.913 1.60139 166.275 6.6488 163.737 10.6095C162.332 12.805 160.486 12.0155 158.439 11.1196" stroke="#263238" stroke-linecap="round" stroke-linejoin="round"/>
<path d="M190.616 29.384C190.08 29.2332 189.536 29.1844 188.988 29.384C186.802 30.1735 187.596 31.5573 186.205 32.1516C184.813 32.746 181.634 29.5836 180.443 30.5682C179.252 31.5573 178.855 33.1363 178.057 33.531C177.259 33.9258 175.671 32.5419 174.877 33.531L174.083 34.5201H197.559" stroke="#263238" stroke-linecap="round" stroke-linejoin="round"/>
<path d="M198.919 34.5202H213.034C213.034 34.5202 213.632 32.3468 212.04 31.3578C210.452 30.3687 210.051 31.5574 208.262 31.1582C208.262 31.1582 203.491 23.8443 199.718 24.2391C195.94 24.6338 196.141 27.4014 194.75 29.5748C193.978 30.7767 192.966 30.3465 191.846 29.8542" stroke="#263238" stroke-linecap="round" stroke-linejoin="round"/>
<path d="M66.3288 5.60175C65.7936 5.45095 65.2495 5.40216 64.701 5.60175C62.5158 6.39124 63.3096 7.77507 61.9182 8.3694C60.5267 8.96374 57.347 5.80134 56.1562 6.79042C54.9655 7.7795 54.5686 9.35848 53.7703 9.75322C52.972 10.148 51.3844 8.76414 50.5906 9.75322L49.7968 10.7423H73.2725" stroke="#263238" stroke-linecap="round" stroke-linejoin="round"/>
<path d="M74.6327 10.7379H88.7476C88.7476 10.7379 89.3452 8.56461 87.7531 7.57554C86.161 6.58646 85.764 7.77513 83.9757 7.37595C83.9757 7.37595 79.2039 0.0620845 75.431 0.456829C71.6536 0.851573 71.8543 3.61922 70.4629 5.79253C69.6914 6.99451 68.679 6.56428 67.5596 6.07196" stroke="#263238" stroke-linecap="round" stroke-linejoin="round"/>
<path d="M57.396 95.8431C57.396 117.443 44.5477 134.958 28.698 134.958C12.8483 134.958 0 117.448 0 95.8431C0 74.2386 12.8483 0 28.698 0C44.5477 0 57.396 74.243 57.396 95.8431Z" fill="#3EBF80"/>
<path opacity="0.5" d="M57.396 95.8431C57.396 117.443 44.5477 134.958 28.698 134.958C12.8483 134.958 0 117.448 0 95.8431C0 74.2386 12.8483 0 28.698 0C44.5477 0 57.396 74.243 57.396 95.8431Z" fill="white"/>
<path d="M44.7885 107.145L36.1011 110.343L37.8448 105.14L33.6884 111.23L29.5409 112.755L29.2466 95.6705L44.3426 75.7248L36.2527 83.7705L37.6218 78.1776L33.7508 86.2587L29.1618 90.8227L28.698 64.1309L27.0524 103.06L12.7458 87.9796L20.6082 98.6067L13.1962 97.7862L22.3474 100.962L26.8829 107.091L26.0891 125.862L20.8133 122.3L25.9286 129.747L23.5025 187.109H30.8297L29.59 115.483L44.7885 107.145Z" fill="#7D7D7D"/>
<path d="M44.4853 64.2148C44.4853 64.2148 44.7529 66.8361 43.3079 68.7611C41.8675 70.686 39.263 71.1828 39.263 71.1828C39.263 71.1828 38.9954 68.5615 40.4404 66.6365C41.8808 64.7116 44.4853 64.2148 44.4853 64.2148Z" fill="white"/>
<path d="M53.137 76.3008C53.137 76.3008 53.4046 78.9221 51.9597 80.847C50.5192 82.7719 47.9148 83.2687 47.9148 83.2687C47.9148 83.2687 47.6472 80.6474 49.0921 78.7225C50.5326 76.7975 53.137 76.3008 53.137 76.3008Z" fill="white"/>
<path d="M53.1326 99.8349C53.1326 99.8349 52.4949 102.394 50.488 103.725C48.4811 105.055 45.8589 104.652 45.8589 104.652C45.8589 104.652 46.4966 102.092 48.5034 100.762C50.5103 99.4313 53.1326 99.8349 53.1326 99.8349Z" fill="white"/>
<path d="M5.62811 99.8349C5.62811 99.8349 6.26585 102.394 8.2727 103.725C10.2796 105.055 12.9018 104.652 12.9018 104.652C12.9018 104.652 12.2641 102.092 10.2573 100.762C8.2504 99.4313 5.62811 99.8349 5.62811 99.8349Z" fill="white"/>
<path d="M43.1429 90.0684C43.1429 90.0684 43.4105 92.6896 41.9656 94.6146C40.5251 96.5395 37.9206 97.0363 37.9206 97.0363C37.9206 97.0363 37.653 94.415 39.098 92.49C40.5385 90.5651 43.1429 90.0684 43.1429 90.0684Z" fill="white"/>
<path d="M40.8997 51.0689C40.8997 51.0689 41.1673 53.6902 39.7223 55.6151C38.2819 57.54 35.6774 58.0368 35.6774 58.0368C35.6774 58.0368 35.4098 55.4155 36.8548 53.4906C38.2952 51.5656 40.8997 51.0645 40.8997 51.0645V51.0689Z" fill="white"/>
<path d="M35.7488 61.0967C35.7488 61.0967 36.0164 63.718 34.5714 65.6429C33.1309 67.5678 30.5265 68.0646 30.5265 68.0646C30.5265 68.0646 30.2589 65.4433 31.7038 63.5184C33.1443 61.5934 35.7488 61.0967 35.7488 61.0967Z" fill="white"/>
<path d="M47.9817 53.7959C47.9817 53.7959 48.2492 56.4172 46.8043 58.3421C45.3638 60.267 42.7594 60.7638 42.7594 60.7638C42.7594 60.7638 42.4918 58.1425 43.9367 56.2176C45.3772 54.2927 47.9817 53.7959 47.9817 53.7959Z" fill="white"/>
<path d="M8.22364 53.7959C8.22364 53.7959 7.95606 56.4172 9.40099 58.3421C10.8415 60.267 13.4459 60.7638 13.4459 60.7638C13.4459 60.7638 13.7135 58.1425 12.2686 56.2176C10.8281 54.2927 8.22364 53.7959 8.22364 53.7959Z" fill="white"/>
<path d="M42.0235 38.8096C42.0235 38.8096 42.2911 41.4309 40.8462 43.3558C39.4057 45.2807 36.8013 45.7775 36.8013 45.7775C36.8013 45.7775 36.5337 43.1562 37.9786 41.2313C39.4191 39.3063 42.0235 38.8096 42.0235 38.8096Z" fill="white"/>
<path d="M39.4904 25.792C39.4904 25.792 40.4091 28.2625 39.4994 30.489C38.5896 32.7111 36.1992 33.8466 36.1992 33.8466C36.1992 33.8466 35.2805 31.3761 36.1903 29.1495C37.1001 26.9274 39.4904 25.792 39.4904 25.792Z" fill="white"/>
<path d="M21.3396 22.3896C21.3396 22.3896 23.6853 23.6138 24.5104 25.8669C25.3354 28.1245 24.3186 30.5595 24.3186 30.5595C24.3186 30.5595 21.9728 29.3354 21.1478 27.0822C20.3227 24.8246 21.3396 22.3896 21.3396 22.3896Z" fill="white"/>
<path d="M29.804 37.958C29.804 37.958 31.4764 40.0027 31.3381 42.3978C31.1999 44.7929 29.3045 46.6335 29.3045 46.6335C29.3045 46.6335 27.6322 44.5888 27.7704 42.1937C27.9087 39.7987 29.804 37.958 29.804 37.958Z" fill="white"/>
<path d="M29.3581 14.7832C29.3581 14.7832 31.0304 16.8279 30.8922 19.223C30.7539 21.618 28.8586 23.4587 28.8586 23.4587C28.8586 23.4587 27.1862 21.414 27.3244 19.0189C27.4627 16.6239 29.3581 14.7832 29.3581 14.7832Z" fill="white"/>
<path d="M10.3643 64.2148C10.3643 64.2148 10.0967 66.8361 11.5416 68.7611C12.9821 70.686 15.5866 71.1828 15.5866 71.1828C15.5866 71.1828 15.8542 68.5615 14.4092 66.6365C12.9687 64.7116 10.3643 64.2148 10.3643 64.2148Z" fill="white"/>
<path d="M5.43188 78.4785C5.43188 78.4785 5.1643 81.0998 6.60924 83.0247C8.04971 84.9497 10.6542 85.4464 10.6542 85.4464C10.6542 85.4464 10.9217 82.8251 9.47681 80.9002C8.03634 78.9753 5.43188 78.4785 5.43188 78.4785Z" fill="white"/>
<path d="M18.5166 83.6553C18.5166 83.6553 18.249 86.2766 19.6939 88.2015C21.1344 90.1264 23.7389 90.6232 23.7389 90.6232C23.7389 90.6232 24.0064 88.0019 22.5615 86.077C21.121 84.152 18.5166 83.6553 18.5166 83.6553Z" fill="white"/>
<path d="M22.0977 63.8955C22.0977 63.8955 21.0898 66.3305 21.9148 68.5881C22.7399 70.8412 25.0901 72.061 25.0901 72.061C25.0901 72.061 26.098 69.626 25.273 67.3684C24.4479 65.1152 22.0977 63.8955 22.0977 63.8955Z" fill="white"/>
<path d="M12.8305 116.481C12.8305 116.481 15.4795 116.53 17.2902 114.942C19.1008 113.354 19.3862 110.737 19.3862 110.737C19.3862 110.737 16.7372 110.689 14.9265 112.277C13.1159 113.864 12.8305 116.481 12.8305 116.481Z" fill="white"/>
<path d="M38.2551 113.598C38.2551 113.598 38.9731 116.135 41.0246 117.399C43.076 118.663 45.6805 118.179 45.6805 118.179C45.6805 118.179 44.9625 115.642 42.911 114.378C40.8596 113.114 38.2551 113.598 38.2551 113.598Z" fill="white"/>
<path d="M15.7873 51.0689C15.7873 51.0689 15.5197 53.6902 16.9646 55.6151C18.4051 57.54 21.0095 58.0368 21.0095 58.0368C21.0095 58.0368 21.2771 55.4155 19.8322 53.4906C18.3917 51.5656 15.7873 51.0645 15.7873 51.0645V51.0689Z" fill="white"/>
<path d="M15.7382 39.4795C15.7382 39.4795 15.4706 42.1008 16.9156 44.0257C18.356 45.9506 20.9605 46.4474 20.9605 46.4474C20.9605 46.4474 21.2281 43.8261 19.7831 41.9012C18.3426 39.9762 15.7382 39.4795 15.7382 39.4795Z" fill="white"/>
<path d="M11.0912 170.653H40.7436C40.7436 170.653 39.4949 156.07 31.1865 149.874C22.8737 143.673 12.6922 145.536 10.1993 149.665C7.70632 153.799 7.29157 162.683 7.91593 163.716C8.54028 164.75 11.0912 170.653 11.0912 170.653Z" fill="#263238" stroke="#263238" stroke-linecap="round" stroke-linejoin="round"/>
<path d="M101.208 175.701H124.479L138.607 168.054C138.607 168.054 134.865 151.936 125.518 147.181C116.17 142.427 108.415 144.041 104.187 152.122C99.9592 160.199 101.208 175.701 101.208 175.701Z" fill="#263238" stroke="#263238" stroke-linecap="round" stroke-linejoin="round"/>
<path d="M80.7112 160.665H75.373L75.3641 160.678C69.7806 160.967 65.3209 166.768 65.3209 173.887C65.3209 181.005 69.7806 186.807 75.3641 187.095L77.6519 187.108H80.7112C85.8978 187.108 90.0989 181.187 90.0989 173.887C90.0989 166.586 85.8934 160.665 80.7112 160.665Z" fill="#263238" stroke="#263238" stroke-linecap="round" stroke-linejoin="round"/>
<path d="M172.848 154.198H166.203L166.194 154.216C159.242 154.571 153.694 161.796 153.694 170.653C153.694 179.511 159.246 186.736 166.194 187.091L166.203 187.108H172.848C179.301 187.108 184.533 179.741 184.533 170.653C184.533 161.565 179.301 154.198 172.848 154.198Z" fill="#263238" stroke="#263238" stroke-linecap="round" stroke-linejoin="round"/>
<path d="M126.294 154.198H117.86V157.378C114.962 160.372 113.08 165.202 113.08 170.653C113.08 176.104 114.962 180.934 117.86 183.928V187.108H126.294C132.747 187.108 137.978 179.741 137.978 170.653C137.978 161.565 132.747 154.198 126.294 154.198Z" fill="#263238" stroke="#263238" stroke-linecap="round" stroke-linejoin="round"/>
<path d="M28.6846 154.198H22.1512V157.378C19.4085 160.372 17.6246 165.202 17.6246 170.653C17.6246 176.104 19.4085 180.934 22.1512 183.928V187.108H28.6846C34.7899 187.108 39.7446 179.741 39.7446 170.653C39.7446 161.565 34.7944 154.198 28.6846 154.198Z" fill="#263238" stroke="#263238" stroke-linecap="round" stroke-linejoin="round"/>
<path d="M191.927 167.704L191.445 162.28L192.087 159.57L192.248 156.061L189.041 150.796C189.041 150.796 188.881 143.935 188.56 143.137C188.239 142.338 183.748 138.83 179.257 137.393C174.766 135.956 147.334 132.607 147.334 132.607C147.334 132.607 131.935 120.321 126.641 117.771C121.348 115.216 119.582 114.901 113.967 113.305C108.352 111.708 96.8017 111.708 96.8017 111.708L80.2786 110.75C80.2786 110.75 60.0674 109.952 48.9985 111.069C37.9296 112.187 32.3148 113.939 31.6726 114.258C31.0304 114.578 29.746 115.216 29.746 115.216C29.746 115.216 22.6864 116.813 21.7275 117.771C20.7643 118.729 19.801 120.166 22.0486 122.557L9.53479 136.116C9.53479 136.116 7.28711 136.275 7.44766 137.712C7.60821 139.149 7.60821 149.998 7.60821 149.998L6.32382 151.755C6.32382 151.755 5.36053 160.208 5.84217 161.645C6.32382 163.082 8.08985 166.75 8.72759 167.868C9.36978 168.986 10.8147 169.944 10.8147 169.944C10.8147 169.944 10.9039 169.993 11.06 170.072C10.3464 167.779 8.95949 163.113 8.95949 161.623C8.95949 159.623 9.96292 153.378 14.485 151.378C19.0071 149.377 24.2829 149.501 28.5553 152.877C32.8277 156.252 34.335 163.122 35.7175 167.371C37.1 171.62 38.7323 174.494 40.6187 175.741C41.0335 176.016 41.4215 176.269 41.7783 176.504C42.7817 176.495 43.3837 176.481 43.3837 176.481L105.784 177.919V175.209C105.784 175.209 103.215 174.251 102.738 173.771C102.256 173.292 100.49 166.91 102.095 161.007C103.701 155.103 108.673 149.2 115.091 148.721C121.508 148.242 128.885 152.069 131.453 158.292C134.022 164.515 134.981 173.927 135.302 174.565C135.623 175.204 136.426 175.683 138.188 176.162L139.954 176.641L143.16 178.078L185.349 175.843C185.349 175.843 191.766 173.133 192.569 171.696C193.372 170.259 191.927 167.708 191.927 167.708V167.704Z" fill="white" stroke="#263238" stroke-linecap="round" stroke-linejoin="round"/>
<path d="M147.334 132.607C147.334 132.607 131.935 120.321 126.641 117.771C121.348 115.216 119.582 114.901 113.967 113.305C108.352 111.708 96.8017 111.708 96.8017 111.708L80.2786 110.75C80.2786 110.75 60.0674 109.952 48.9985 111.069C37.9295 112.187 32.3148 113.939 31.6726 114.258C31.0304 114.578 29.746 115.216 29.746 115.216C29.746 115.216 22.6864 116.813 21.7275 117.771C20.7643 118.729 19.801 120.166 22.0486 122.557H30.0671L40.9755 131.969L99.2055 134.044L99.3661 132.288C99.3661 132.288 144.444 132.128 145.564 132.128C146.683 132.128 147.33 132.607 147.33 132.607H147.334Z" fill="#263238" stroke="#263238" stroke-linecap="round" stroke-linejoin="round"/>
<path d="M147.334 132.607C147.334 132.607 131.935 120.321 126.641 117.771C124.862 116.915 123.484 116.312 122.226 115.824C119.631 115.336 117.017 115.057 117.017 115.057L83.3291 112.502C83.3291 112.502 88.6227 116.17 93.4347 120.956C97.5777 125.076 102.234 130.94 103.536 132.27C114.725 132.23 144.659 132.124 145.573 132.124C146.697 132.124 147.339 132.603 147.339 132.603L147.334 132.607Z" fill="#C4C4C4" stroke="#263238" stroke-linecap="round" stroke-linejoin="round"/>
<path d="M42.2421 132.012L57.7261 132.562C58.0739 129.915 58.7919 124.996 59.5857 122.392C60.7096 118.724 62.6317 114.732 62.6317 114.732L45.7875 115.69C45.7875 115.69 43.0983 125.408 42.2376 132.008L42.2421 132.012Z" fill="#8C8C8C" stroke="#263238" stroke-linecap="round" stroke-linejoin="round"/>
<path d="M40.98 131.968C40.98 131.968 43.4908 118.511 44.7439 116.099C44.7439 116.099 37.876 116.6 36.1189 117.682C34.8033 118.489 31.9045 121.483 30.5176 122.947L40.9755 131.973L40.98 131.968Z" fill="#C4C4C4" stroke="#263238" stroke-linecap="round" stroke-linejoin="round"/>
<path d="M97.4439 132.922C97.4439 132.922 88.6227 121.594 83.6502 118.565C78.6776 115.536 69.5353 115.057 68.572 114.897L67.6087 114.737C67.6087 114.737 63.207 121.457 64.2327 132.794L98.0014 133.996L97.4484 132.922H97.4439Z" fill="#C4C4C4" stroke="#263238" stroke-linecap="round" stroke-linejoin="round"/>
<path d="M89.9026 132.922C89.9026 132.922 91.8292 130.686 91.187 128.775C90.5448 126.859 89.0999 126.699 88.1411 126.539C87.1778 126.38 82.2052 125.901 80.2786 127.018C78.3521 128.136 77.7099 131.644 78.6732 132.283C79.6364 132.922 84.7695 132.602 84.7695 132.602C84.7695 132.602 86.8567 136.111 87.6549 136.27C88.4577 136.43 90.0632 136.27 90.3798 135.472C90.7009 134.674 89.8982 132.917 89.8982 132.917L89.9026 132.922Z" stroke="#263238" stroke-linecap="round" stroke-linejoin="round"/>
<path d="M89.9026 132.922C89.9026 132.922 91.8292 130.686 91.187 128.775C90.5448 126.859 89.0999 126.699 88.1411 126.539C87.1778 126.38 82.2052 125.901 80.2786 127.018C78.3521 128.136 77.7099 131.644 78.6732 132.283C79.6364 132.922 84.7695 132.602 84.7695 132.602C84.7695 132.602 86.8567 136.111 87.6549 136.27C88.4577 136.43 90.0632 136.27 90.3798 135.472C90.7009 134.674 89.8982 132.917 89.8982 132.917L89.9026 132.922Z" fill="#263238" stroke="#263238" stroke-linecap="round" stroke-linejoin="round"/>
<path d="M137.229 154.748C137.229 154.748 158.586 155.875 160.722 156.371C162.858 156.873 164.995 157.622 164.995 157.622L190.999 156.748" stroke="#263238" stroke-linecap="round" stroke-linejoin="round"/>
<path d="M99.0405 136.009C99.0405 136.009 96.6546 149.253 97.2834 163.122" stroke="#263238" stroke-linecap="round" stroke-linejoin="round"/>
<path d="M98.4117 139.132L127.81 141.008C127.81 141.008 157.962 144.88 159.215 144.756C160.473 144.632 161.855 144.632 161.855 144.632" stroke="#263238" stroke-linecap="round" stroke-linejoin="round"/>
<path d="M187.73 143.38C187.73 143.38 183.065 142.866 177.553 142.879C171.229 142.892 163.902 143.438 163.233 143.505C161.975 143.629 161.476 145.004 161.476 146.002C161.476 147 161.476 151 161.851 151.75C162.23 152.499 165.619 155.373 167.505 155.373C169.392 155.373 185.094 155.498 186.602 154.5C188.109 153.502 189.041 150.792 189.041 150.792" stroke="#263238" stroke-linecap="round" stroke-linejoin="round"/>
<path d="M130.57 141.629C130.57 141.629 134.464 146.503 136.35 147.75C138.237 149 138.611 149.125 139.615 149.249C140.618 149.373 151.549 150.123 153.056 150.123C154.563 150.123 155.567 149.998 156.196 149.373C156.825 148.748 158.332 144.751 158.332 144.751L130.566 141.629H130.57Z" fill="#3EBF80" stroke="#263238" stroke-linecap="round" stroke-linejoin="round"/>
<path d="M142.255 161.871C142.255 161.871 140.872 165.743 140.872 166.369C140.872 166.994 142.255 167.868 142.759 167.868C143.263 167.868 152.682 167.992 153.31 167.743C153.939 167.495 157.328 163.871 157.204 163.37C157.079 162.869 155.192 161.995 155.192 161.995L142.255 161.871Z" fill="#263238" stroke="#263238" stroke-linecap="round" stroke-linejoin="round"/>
<path d="M192.569 171.691C193.372 170.254 191.927 167.704 191.927 167.704L189.991 163.867L163.737 164.492C163.737 164.492 159.719 169.739 159.09 169.988C158.461 170.236 157.458 170.236 157.458 170.236C157.458 170.236 141.88 169.611 140.747 169.11C139.615 168.608 138.736 167.109 138.237 166.737C137.733 166.36 135.851 165.863 135.851 165.863C135.851 165.863 134.218 158.367 131.329 154.495C128.439 150.623 122.03 147.248 117.508 146.747C112.986 146.245 106.702 149.12 104.191 152.118C101.681 155.116 100.044 159.489 99.6693 164.235L95.9009 163.734C95.9009 163.734 93.2608 166.484 91.7534 167.109C90.246 167.735 45.7741 165.486 44.5165 165.109C43.2589 164.736 39.9944 161.609 39.2407 161.361C38.487 161.113 35.5971 160.736 35.5971 160.736C35.5971 160.736 33.7107 152.739 29.0637 149.741C24.4167 146.742 18.133 146.742 14.4895 148.867C10.8459 150.991 9.21369 154.863 8.70974 156.114C8.2058 157.365 7.95606 158.114 7.95606 158.114L5.81095 157.454C5.69054 159.312 5.65041 161.051 5.84217 161.636C6.32382 163.073 8.08985 166.741 8.72758 167.859C9.36978 168.977 10.8147 169.935 10.8147 169.935C10.8147 169.935 10.9039 169.983 11.06 170.063C10.3464 167.77 8.95949 163.104 8.95949 161.614C8.95949 159.614 9.96291 153.369 14.485 151.368C19.0071 149.368 24.2829 149.492 28.5553 152.867C32.8277 156.243 34.3351 163.113 35.7176 167.362C37.1 171.611 38.7323 174.485 40.6187 175.732C41.0335 176.007 41.4215 176.259 41.7783 176.494C42.7817 176.486 43.3837 176.472 43.3837 176.472L105.784 177.909V175.199C105.784 175.199 103.215 174.241 102.738 173.762C102.256 173.283 100.49 166.901 102.095 160.997C103.701 155.094 108.673 149.191 115.091 148.712C121.508 148.233 128.885 152.06 131.453 158.283C134.022 164.506 134.981 173.918 135.302 174.556C135.623 175.195 136.426 175.674 138.188 176.153L139.954 176.632L143.16 178.069L185.349 175.834C185.349 175.834 191.766 173.124 192.569 171.687V171.691Z" fill="#545454" stroke="#263238" stroke-linecap="round" stroke-linejoin="round"/>
<path d="M22.1512 187.108C28.2595 187.108 33.2112 179.741 33.2112 170.653C33.2112 161.565 28.2595 154.198 22.1512 154.198C16.0429 154.198 11.0912 161.565 11.0912 170.653C11.0912 179.741 16.0429 187.108 22.1512 187.108Z" fill="#787878" stroke="#263238" stroke-linecap="round" stroke-linejoin="round"/>
<path d="M22.1512 183.511C26.9221 183.511 30.7896 177.754 30.7896 170.653C30.7896 163.552 26.9221 157.795 22.1512 157.795C17.3804 157.795 13.5128 163.552 13.5128 170.653C13.5128 177.754 17.3804 183.511 22.1512 183.511Z" fill="white" stroke="#263238" stroke-linecap="round" stroke-linejoin="round"/>
<path d="M22.1512 172.268C22.7497 172.268 23.2349 171.545 23.2349 170.654C23.2349 169.762 22.7497 169.039 22.1512 169.039C21.5527 169.039 21.0675 169.762 21.0675 170.654C21.0675 171.545 21.5527 172.268 22.1512 172.268Z" fill="white" stroke="#263238" stroke-linecap="round" stroke-linejoin="round"/>
<path d="M7.45212 137.713C7.51456 138.276 7.55469 140.303 7.57699 142.552C8.41541 142.463 9.75777 142.317 10.4312 142.201C11.4569 142.033 14.0212 137.695 14.5341 137.185C15.047 136.675 14.6188 136.165 14.6188 136.165H10.0878L9.76223 135.872L9.53479 136.116C9.53479 136.116 7.28711 136.276 7.44766 137.713H7.45212Z" fill="#3EBF80" stroke="#263238" stroke-linecap="round" stroke-linejoin="round"/>
<path d="M29.3402 123.688C29.3402 123.688 25.7948 134.514 25.7457 135.592C25.6967 136.67 28.2565 148.574 28.2565 148.574" stroke="#263238" stroke-linecap="round" stroke-linejoin="round"/>
<path d="M32.2479 139.264C32.2479 139.264 32.5423 139.903 32.4932 140.147C32.4442 140.391 30.6692 139.854 30.3749 139.557C30.0805 139.26 30.0315 138.626 30.0315 138.626C30.0315 138.626 30.1296 137.841 30.3749 137.694C30.6201 137.548 33.2335 137.499 33.2335 137.499C33.2335 137.499 32.8411 137.694 34.121 137.792C35.4009 137.889 36.4846 137.597 36.4846 137.597C36.4846 137.597 38.3577 138.084 38.3577 138.479C38.3577 138.874 38.1615 139.411 38.1615 139.411L36.3375 140.049L36.4356 139.61C36.4356 139.61 33.0863 139.069 32.2479 139.269V139.264Z" stroke="#263238" stroke-linecap="round" stroke-linejoin="round"/>
<path d="M32.6404 140.732C32.6404 140.732 34.2146 141.22 35.7443 140.928" stroke="#263238" stroke-linecap="round" stroke-linejoin="round"/>
<path d="M63.8715 140.254C63.8715 140.254 64.1658 140.892 64.1168 141.136C64.0677 141.38 62.2928 140.843 61.9984 140.546C61.7041 140.249 61.655 139.615 61.655 139.615C61.655 139.615 61.7531 138.83 61.9984 138.683C62.2437 138.537 64.8571 138.488 64.8571 138.488C64.8571 138.488 64.4646 138.683 65.7446 138.781C67.0245 138.879 68.1082 138.586 68.1082 138.586C68.1082 138.586 69.9812 139.074 69.9812 139.468C69.9812 139.863 69.785 140.4 69.785 140.4L67.961 141.039L68.0591 140.6C68.0591 140.6 64.7099 140.063 63.8715 140.258V140.254Z" stroke="#263238" stroke-linecap="round" stroke-linejoin="round"/>
<path d="M64.2684 141.727C64.2684 141.727 65.8427 142.214 67.3723 141.922" stroke="#263238" stroke-linecap="round" stroke-linejoin="round"/>
<path d="M59.9827 134.506C59.9827 134.506 57.8911 139.753 58.3906 145.199C58.89 150.646 60.9816 157.973 60.8791 159.659C60.7809 161.344 59.0863 164.906 59.3851 165.402" stroke="#263238" stroke-linecap="round" stroke-linejoin="round"/>
<path d="M117.254 187.108C124.456 187.108 130.294 179.741 130.294 170.653C130.294 161.565 124.456 154.198 117.254 154.198C110.052 154.198 104.214 161.565 104.214 170.653C104.214 179.741 110.052 187.108 117.254 187.108Z" fill="#787878" stroke="#263238" stroke-linecap="round" stroke-linejoin="round"/>
<path d="M117.254 183.512C122.882 183.512 127.444 177.755 127.444 170.654C127.444 163.553 122.882 157.796 117.254 157.796C111.626 157.796 107.063 163.553 107.063 170.654C107.063 177.755 111.626 183.512 117.254 183.512Z" fill="white" stroke="#263238" stroke-linecap="round" stroke-linejoin="round"/>
<path d="M118.601 170.654C118.601 171.545 118.088 172.268 117.455 172.268C116.821 172.268 116.308 171.545 116.308 170.654C116.308 169.762 116.821 169.039 117.455 169.039C118.088 169.039 118.601 169.762 118.601 170.654Z" fill="white" stroke="#263238" stroke-linecap="round" stroke-linejoin="round"/>
<path d="M179.819 148.601C179.819 150.203 178.753 151.498 177.437 151.498C176.122 151.498 175.056 150.203 175.056 148.601C175.056 147 176.122 145.705 177.437 145.705C178.753 145.705 179.819 147 179.819 148.601Z" fill="white" stroke="#263238" stroke-linecap="round" stroke-linejoin="round"/>
<path d="M123.248 116.232C122.895 116.086 122.556 115.948 122.226 115.824C121.522 115.691 120.813 115.576 120.157 115.474L129.023 132.182C130.312 132.177 131.569 132.173 132.782 132.168L123.252 116.232H123.248Z" fill="white" stroke="#263238" stroke-linecap="round" stroke-linejoin="round"/>
<path d="M1.69022 187.108H215.777" stroke="#263238" stroke-linecap="round" stroke-linejoin="round"/>
<path d="M149.194 186.106H141.96V116.081C141.96 114.094 143.579 112.484 145.577 112.484C147.575 112.484 149.194 114.094 149.194 116.081V186.106Z" fill="white" stroke="#263238" stroke-linecap="round" stroke-linejoin="round"/>
<path d="M149.19 117.838H141.956V120.348H149.19V117.838Z" fill="white" stroke="#263238" stroke-linecap="round" stroke-linejoin="round"/>
<path d="M155.669 186.106H135.311V187.109H155.669V186.106Z" fill="white" stroke="#263238" stroke-linecap="round" stroke-linejoin="round"/>
<path d="M180.871 186.106H173.638V116.081C173.638 114.094 175.256 112.484 177.254 112.484C179.252 112.484 180.871 114.094 180.871 116.081V186.106Z" fill="white" stroke="#263238" stroke-linecap="round" stroke-linejoin="round"/>
<path d="M180.867 117.838H173.633V120.348H180.867V117.838Z" fill="white" stroke="#263238" stroke-linecap="round" stroke-linejoin="round"/>
<path d="M187.347 186.106H166.988V187.109H187.347V186.106Z" fill="white" stroke="#263238" stroke-linecap="round" stroke-linejoin="round"/>
<path d="M123.662 110.528H119.185V176.003H123.662V110.528Z" fill="#8C8C8C" stroke="#263238" stroke-linecap="round" stroke-linejoin="round"/>
<path d="M136.676 110.528H123.225V176.003H136.676V110.528Z" fill="#263238" stroke="#263238" stroke-linecap="round" stroke-linejoin="round"/>
<path d="M121.691 61.5537H107.545V112.556H121.691V61.5537Z" fill="#8C8C8C" stroke="#263238" stroke-linecap="round" stroke-linejoin="round"/>
<path d="M139.463 61.5537H121.673V112.556H139.463V61.5537Z" fill="#263238" stroke="#263238" stroke-linecap="round" stroke-linejoin="round"/>
<path d="M118.378 65.4883H111.599C110.609 65.4883 109.806 66.2866 109.806 67.2713V89.7629C109.806 90.7476 110.609 91.5459 111.599 91.5459H118.378C119.368 91.5459 120.17 90.7476 120.17 89.7629V67.2713C120.17 66.2866 119.368 65.4883 118.378 65.4883Z" fill="#8C8C8C" stroke="#263238" stroke-linecap="round" stroke-linejoin="round"/>
<path d="M117.967 66.6191H116.059C115.61 66.6191 115.247 66.9806 115.247 67.4264V72.2698C115.247 72.7156 115.61 73.077 116.059 73.077H117.967C118.416 73.077 118.779 72.7156 118.779 72.2698V67.4264C118.779 66.9806 118.416 66.6191 117.967 66.6191Z" fill="white" stroke="#263238" stroke-linecap="round" stroke-linejoin="round"/>
<path d="M117.035 67.165H116.233V72.4963H117.035V67.165Z" fill="#263238" stroke="#263238" stroke-linecap="round" stroke-linejoin="round"/>
<path d="M118.779 72.3141V67.382C118.779 66.9607 118.436 66.6191 118.012 66.6191V73.077C118.436 73.077 118.779 72.7355 118.779 72.3141Z" fill="#263238" stroke="#263238" stroke-linecap="round" stroke-linejoin="round"/>
<path d="M112.455 66.6104H111.278C110.79 66.6104 110.395 67.0035 110.395 67.4886V72.944C110.395 73.429 110.79 73.8222 111.278 73.8222H112.455C112.943 73.8222 113.338 73.429 113.338 72.944V67.4886C113.338 67.0035 112.943 66.6104 112.455 66.6104Z" stroke="#263238" stroke-linecap="round" stroke-linejoin="round"/>
<path d="M119.02 75.0195H110.654V86.2897H119.02V75.0195Z" stroke="#263238" stroke-linecap="round" stroke-linejoin="round"/>
<path d="M134.232 61.5532H117.196V45.7457L134.232 43.9316V61.5532Z" fill="#8C8C8C" stroke="#263238" stroke-linecap="round" stroke-linejoin="round"/>
<path d="M121.986 61.5532H134.232V43.9316L121.986 45.2356V61.5532Z" fill="#263238" stroke="#263238" stroke-linecap="round" stroke-linejoin="round"/>
<path d="M126.512 35.008C126.427 34.9947 126.334 34.9947 126.245 35.008C126.245 35.008 111.033 38.5652 102.59 43.8565C102.59 43.8565 102.439 44.6904 102.818 45.2182C103.197 45.746 107.38 46.806 107.38 46.806H122.133L140.993 35.008H126.508H126.512Z" fill="#8C8C8C" stroke="#263238" stroke-linecap="round" stroke-linejoin="round"/>
<path d="M107.233 42.2732H119.069C119.069 42.2732 125.709 38.206 136.1 35.7178H126.191C126.191 35.7178 111.612 39.9269 107.233 42.2732Z" fill="#263238" stroke="#263238" stroke-linecap="round" stroke-linejoin="round"/>
<path d="M102.822 45.2181C103.201 45.7459 107.385 46.8059 107.385 46.8059H122.137L117.347 43.8564H102.595C102.595 43.8564 102.443 44.6903 102.822 45.2181Z" fill="#8C8C8C" stroke="#263238" stroke-linecap="round" stroke-linejoin="round"/>
<path d="M140.997 35.008C140.997 35.008 125.785 38.5651 117.343 43.8565C117.343 43.8565 117.191 44.6903 117.57 45.2181C117.95 45.7459 122.133 46.806 122.133 46.806C122.133 46.806 131.868 45.6705 137.572 41.8916C143.276 38.1083 142.438 34.7818 140.993 35.008H140.997Z" fill="#263238" stroke="#263238" stroke-linecap="round" stroke-linejoin="round"/>
<path d="M128.648 60.2939C131.464 60.2939 133.746 57.5853 133.746 54.2441C133.746 50.9029 131.464 48.1943 128.648 48.1943C125.833 48.1943 123.551 50.9029 123.551 54.2441C123.551 57.5853 125.833 60.2939 128.648 60.2939Z" fill="#3EBF80" stroke="#263238" stroke-linecap="round" stroke-linejoin="round"/>
<path d="M126.615 58.4884V50.0391H129.469C129.977 50.0391 130.401 50.1366 130.727 50.3274C131.057 50.5181 131.302 50.7975 131.462 51.1612C131.623 51.5249 131.703 51.9684 131.703 52.4918C131.703 53.1438 131.596 53.645 131.378 53.9865C131.159 54.3325 130.869 54.5675 130.495 54.7006C130.124 54.8337 129.71 54.9002 129.246 54.9002H128.492V58.4884H126.615ZM128.492 53.5918H129.121C129.353 53.5918 129.527 53.5518 129.647 53.4676C129.768 53.3833 129.843 53.2591 129.884 53.0906C129.924 52.922 129.942 52.7136 129.942 52.4563C129.942 52.239 129.924 52.0527 129.893 51.8886C129.861 51.7245 129.786 51.5959 129.665 51.4983C129.545 51.4007 129.362 51.3519 129.108 51.3519H128.488V53.5962L128.492 53.5918Z" fill="#263238"/>
<path d="M130.437 87.7044C134.939 87.7044 138.589 83.3715 138.589 78.0265C138.589 72.6816 134.939 68.3486 130.437 68.3486C125.934 68.3486 122.284 72.6816 122.284 78.0265C122.284 83.3715 125.934 87.7044 130.437 87.7044Z" fill="#3EBF80" stroke="#263238" stroke-linecap="round" stroke-linejoin="round"/>
<path d="M125.339 78.2347V71.4531H127.627C128.037 71.4531 128.372 71.5285 128.639 71.6838C128.902 71.839 129.099 72.0608 129.228 72.3535C129.357 72.6462 129.42 73.001 129.42 73.4224C129.42 73.9458 129.331 74.3494 129.157 74.6244C128.983 74.8994 128.746 75.0901 128.448 75.1965C128.149 75.303 127.814 75.3562 127.444 75.3562H126.838V78.2347H125.33H125.339ZM126.847 74.305H127.351C127.538 74.305 127.676 74.2696 127.77 74.203C127.863 74.1365 127.93 74.0345 127.957 73.9014C127.988 73.7684 128.002 73.5954 128.002 73.3914C128.002 73.2184 127.988 73.0676 127.966 72.9345C127.939 72.8015 127.881 72.6994 127.783 72.6196C127.689 72.5398 127.538 72.5043 127.337 72.5043H126.842V74.305H126.847Z" fill="#263238"/>
<path d="M130.08 73.4092H135.124" stroke="#263238" stroke-miterlimit="10"/>
<path d="M127.449 76.4736H137.077" stroke="#263238" stroke-miterlimit="10"/>
<path d="M127.449 78.124H136.925" stroke="#263238" stroke-miterlimit="10"/>
<path d="M124.287 80.8164H136.627" stroke="#263238" stroke-miterlimit="10"/>
<path d="M124.813 82.7637H135.797" stroke="#263238" stroke-miterlimit="10"/>
<path d="M126.093 84.1074H134.143" stroke="#263238" stroke-miterlimit="10"/>
<path d="M143.535 175.466H112.995V187.109H143.535V175.466Z" fill="#8C8C8C" stroke="#263238" stroke-linecap="round" stroke-linejoin="round"/>
<path d="M143.53 175.466H125.147V187.109H143.53V175.466Z" fill="#263238" stroke="#263238" stroke-linecap="round" stroke-linejoin="round"/>
<path d="M70.7932 45.8083C70.7932 45.8083 68.6124 47.3252 68.4697 49.9243C68.3269 52.5234 69.8477 57.2914 69.8477 57.7261C69.8477 58.1607 68.9022 62.3477 68.9022 62.3477L77.3979 67.333L79.5787 62.7114C79.5787 62.7114 82.8477 62.565 83.1375 62.0594C83.4274 61.5538 84.3729 57.0741 84.3729 57.0741L85.8267 56.7148L84.083 53.1754C84.083 53.1754 84.3015 51.7295 84.3015 51.5122C84.3015 51.2948 83.3561 48.332 83.1375 47.7554C82.919 47.1789 81.7595 44.6507 77.108 44.3624C72.4611 44.0741 70.7887 45.8083 70.7887 45.8083H70.7932Z" fill="white" stroke="#263238" stroke-linecap="round" stroke-linejoin="round"/>
<path d="M77.1123 44.3673C72.4653 44.079 70.7929 45.8132 70.7929 45.8132C70.7929 45.8132 68.6121 47.3301 68.4694 49.9292C68.3401 52.209 69.4952 56.1475 69.785 57.3806C70.4183 57.7975 71.3013 58.2942 71.7384 58.1612C72.4653 57.9438 71.5912 56.285 72.2468 54.7682C72.9023 53.2513 75.0787 52.963 75.6584 53.0339C76.2382 53.1049 76.6752 54.3335 76.6752 54.3335L77.6207 54.2625L77.5493 52.311C77.5493 52.311 79.0032 51.2288 79.3644 50.5768C79.7257 49.9248 78.3476 47.614 78.3476 47.614L82.9143 47.2813C82.3881 46.341 80.9253 44.6024 77.1123 44.3629V44.3673Z" fill="#263238" stroke="#263238" stroke-linecap="round" stroke-linejoin="round"/>
<path d="M75.4444 54.3021C75.4444 54.3021 74.7932 52.284 73.4955 52.8473C72.1977 53.4106 72.3583 55.5928 72.6838 56.4C73.0094 57.2072 74.4721 57.6907 74.9583 57.2871" fill="white"/>
<path d="M75.4444 54.3021C75.4444 54.3021 74.7932 52.284 73.4955 52.8473C72.1977 53.4106 72.3583 55.5928 72.6838 56.4C73.0094 57.2072 74.4721 57.6907 74.9583 57.2871" stroke="#263238" stroke-linecap="round" stroke-linejoin="round"/>
<path d="M83.4316 52.7449C83.4316 52.7449 82.562 52.3856 81.6879 53.0332" stroke="#263238" stroke-linecap="round" stroke-linejoin="round"/>
<path d="M83.066 53.8278C83.066 54.187 82.8876 54.4798 82.6646 54.4798C82.4416 54.4798 82.2632 54.187 82.2632 53.8278C82.2632 53.4685 82.4416 53.1758 82.6646 53.1758C82.8876 53.1758 83.066 53.4685 83.066 53.8278Z" fill="#263238"/>
<path d="M83.3558 59.0252C83.3558 59.0252 82.4104 59.0961 81.9778 58.5195" stroke="#263238" stroke-linecap="round" stroke-linejoin="round"/>
<path d="M83.4316 54.4746L82.7047 54.9802" stroke="#263238" stroke-linecap="round" stroke-linejoin="round"/>
<path d="M79.5829 62.7118C79.5829 62.7118 78.2763 62.2771 77.6965 61.7715C77.1167 61.2658 76.8269 60.9775 76.8269 60.9775L78.9318 64.2286L79.5874 62.7118H79.5829Z" fill="#263238" stroke="#263238" stroke-linecap="round" stroke-linejoin="round"/>
<path d="M83.4584 117.195C83.4584 117.195 84.2076 132.116 83.6457 137.899C83.0838 143.683 82.5219 147.506 82.0536 148.438C81.5853 149.369 78.3967 153.658 78.3967 153.658C78.3967 153.658 76.0509 165.407 76.3318 167.088C76.6128 168.765 76.2382 170.539 75.7699 171.657C75.3016 172.774 74.4588 178.802 74.4588 179.081C74.4588 179.361 80.4615 183.091 81.679 183.464C82.8965 183.836 83.9311 183.65 84.3994 184.861C84.8677 186.072 84.5867 187.007 83.4629 187.007C82.339 187.007 71.4619 186.262 69.8653 185.983C68.2687 185.703 66.8639 185.331 66.8639 185.331C66.8639 185.331 68.6434 159.256 68.6434 157.388C68.6434 155.521 71.4574 127.547 71.4574 125.587C71.4574 123.627 70.9891 117.568 70.9891 117.568L83.4584 117.195Z" fill="#263238" stroke="#263238" stroke-linecap="round" stroke-linejoin="round"/>
<path d="M63.9562 117.009C63.9562 117.009 63.6753 121.763 65.0801 124.469C66.4849 127.175 67.2386 129.131 67.2386 129.131C67.2386 129.131 66.4893 141.532 65.0801 149.09C63.6708 156.647 63.1089 168.02 62.8279 171.75C62.547 175.48 62.7343 182.04 62.7343 182.04C62.7343 182.04 61.9851 186.235 62.266 186.515C62.547 186.794 69.6735 186.856 72.8622 187.043C76.0509 187.229 81.9599 187.043 82.5219 185.832C83.0838 184.621 82.8965 183.685 82.0536 183.313C81.2107 182.94 75.8636 180.7 75.3953 180.328C74.927 179.955 74.0842 178.651 74.0842 178.651C74.0842 178.651 73.7095 175.014 73.7095 174.176V168.672C73.7095 167.647 73.2413 166.339 73.4286 165.128C73.6159 163.917 75.3061 153.844 75.868 152.536C76.4299 151.232 77.5538 146.193 78.0265 144.051C78.4948 141.904 81.2152 132.488 81.8708 128.665C82.5263 124.842 83.6502 117.847 83.6502 117.847L63.9607 117.009H63.9562Z" fill="#263238" stroke="#263238" stroke-linecap="round" stroke-linejoin="round"/>
<path d="M66.5785 169.514C65.9943 175.923 66.0166 176.788 66.0166 176.788" stroke="#878787" stroke-linecap="round" stroke-linejoin="round"/>
<path d="M73.9504 127.081C73.9548 131.885 73.6783 138.684 72.3003 143.496C69.9545 151.702 67.2386 160.75 66.5785 167.744" stroke="#878787" stroke-linecap="round" stroke-linejoin="round"/>
<path d="M73.7987 121.302C73.7987 121.302 73.9013 123.014 73.937 125.591" stroke="#878787" stroke-linecap="round" stroke-linejoin="round"/>
<path d="M82.5222 185.836C83.0842 184.625 82.8969 183.689 82.054 183.317C81.2111 182.944 75.8639 180.704 75.3957 180.332C74.9274 179.959 74.0845 178.655 74.0845 178.655C74.0845 178.655 70.8959 180.332 67.8945 180.802C64.8931 181.268 62.7391 182.044 62.7391 182.044C62.7391 182.044 61.9899 186.24 62.2709 186.519C62.5518 186.799 68.0863 187.167 71.2749 187.353C74.4636 187.539 81.9603 187.047 82.5267 185.836H82.5222Z" fill="#3EBF80" stroke="#263238" stroke-linecap="round" stroke-linejoin="round"/>
<path d="M82.5219 185.836C82.8385 185.153 82.9099 184.567 82.7672 184.11C80.9387 184.532 76.9205 185.392 74.1778 185.463C71.0739 185.543 64.3309 185.17 62.3552 184.478C62.2259 185.459 62.1411 186.395 62.266 186.519C62.547 186.798 68.0814 187.166 71.2701 187.353C74.4588 187.539 81.9555 187.047 82.5219 185.836Z" fill="white" stroke="#263238" stroke-linecap="round" stroke-linejoin="round"/>
<path d="M67.5106 64.4414C67.5106 64.4414 62.9082 71.8129 62.4845 74.6959C62.0609 77.5789 62.1456 101.814 62.1456 101.814L61.7175 118.845C61.7175 118.845 88.2169 119.692 90.2594 118.761C92.3019 117.829 94.1795 116.304 93.8361 113.762C93.4971 111.221 91.3654 93.4263 87.3606 83.6774C83.3558 73.9286 79.0968 70.8815 79.0968 70.8815C79.0968 70.8815 72.3672 66.3885 67.5106 64.4414Z" fill="#3EBF80" stroke="#263238" stroke-linecap="round" stroke-linejoin="round"/>
<path d="M89.2827 101.574L76.3407 103.087C76.3407 103.087 76.7198 106.191 77.3308 106.418C77.9418 106.644 83.8018 107.93 84.105 107.855C84.4083 107.779 89.9651 105.433 90.1212 104.75C90.2772 104.067 90.2728 102.554 90.2728 102.554" stroke="#263238" stroke-linecap="round" stroke-linejoin="round"/>
<path d="M68.1082 61.7002C68.1082 61.7002 66.4358 64.5166 66.8015 64.663C67.1627 64.8094 74.7888 68.2024 75.6629 68.779C76.5325 69.3556 81.6165 73.3296 81.6165 73.3296C81.6165 73.3296 78.2049 67.1157 77.4021 66.3972C76.6039 65.6743 68.1082 61.7002 68.1082 61.7002Z" fill="#3EBF80" stroke="#263238" stroke-linecap="round" stroke-linejoin="round"/>
<path d="M113.958 91.0616L117.218 90.6447C117.218 90.6447 115.216 89.8995 114.212 89.7753C113.209 89.6512 110.457 90.0237 110.457 90.0237L112.147 91.0838L113.958 91.0616Z" fill="white" stroke="#263238" stroke-linecap="round" stroke-linejoin="round"/>
<path d="M113.958 91.0616C113.958 90.8088 112.763 91.0172 112.763 91.0172L112.723 91.0749C112.023 90.4584 110.97 89.7443 110.97 89.7443C110.97 89.7443 112.165 89.7886 112.25 89.4915C112.335 89.1943 111.398 89.2387 111.269 89.15C111.14 89.0657 109.008 88.2141 108.879 88.1298C108.749 88.0456 107.041 87.6641 106.573 87.7883C106.105 87.9169 101.748 88.977 101.748 88.977L103.71 93.8603C103.71 93.8603 105.119 94.0732 107.55 93.776C109.985 93.4788 110.881 92.2059 111.006 92.1615C111.135 92.1172 111.733 92.1615 111.947 92.1615C111.947 92.1615 111.965 92.1615 111.991 92.1615C112.263 92.1704 113.111 92.2236 113.311 91.8644C114.038 91.5229 113.954 91.3144 113.954 91.0572L113.958 91.0616Z" fill="white" stroke="#263238" stroke-linecap="round" stroke-linejoin="round"/>
<path d="M110.97 89.7443C110.97 89.7443 109.391 88.8972 109.008 88.7242C108.624 88.5512 107.643 88.3428 107.643 88.3428" stroke="#263238" stroke-linecap="round" stroke-linejoin="round"/>
<path d="M109.775 91.7842L111.309 92.0813" stroke="#263238" stroke-linecap="round" stroke-linejoin="round"/>
<path d="M68.0235 83.5083C68.0235 83.5083 78.5037 96.1357 80.4615 97.4042C82.4193 98.6771 83.8687 98.8457 83.8687 98.8457L100.401 97.0671C100.401 97.0671 101.935 97.9143 102.448 97.6615C102.961 97.4086 104.321 96.22 103.982 93.3414C103.643 90.4585 102.278 88.3428 101.342 88.4271C100.405 88.5114 98.7863 89.0214 98.5321 89.1057C98.2779 89.19 94.6968 89.4428 94.6968 89.4428C94.6968 89.4428 90.1791 89.3585 89.4121 89.4428C88.645 89.5271 86.6025 88.8485 85.9201 88.0856C85.2378 87.3227 83.3647 85.8812 83.3647 85.8812C83.3647 85.8812 79.1058 72.2381 77.313 71.0495C75.5246 69.8652 71.007 67.5766 68.8797 71.3866" fill="#3EBF80"/>
<path d="M68.0235 83.5083C68.0235 83.5083 78.5037 96.1357 80.4615 97.4042C82.4193 98.6771 83.8687 98.8457 83.8687 98.8457L100.401 97.0671C100.401 97.0671 101.935 97.9143 102.448 97.6615C102.961 97.4086 104.321 96.22 103.982 93.3414C103.643 90.4585 102.278 88.3428 101.342 88.4271C100.405 88.5114 98.7863 89.0214 98.5321 89.1057C98.2779 89.19 94.6968 89.4428 94.6968 89.4428C94.6968 89.4428 90.1791 89.3585 89.4121 89.4428C88.645 89.5271 86.6025 88.8485 85.9201 88.0856C85.2378 87.3227 83.3647 85.8812 83.3647 85.8812C83.3647 85.8812 79.1058 72.2381 77.313 71.0495C75.5246 69.8652 71.007 67.5766 68.8797 71.3866" stroke="#263238" stroke-linecap="round" stroke-linejoin="round"/>
<path d="M99.1252 89.9219C99.1252 89.9219 101.021 90.6759 100.138 95.9584" stroke="#263238" stroke-linecap="round" stroke-linejoin="round"/>
</g>
<defs>
<clipPath id="clip0_85_489">
<rect width="216" height="199" fill="white"/>
</clipPath>
</defs>
</svg>
