<svg width="81" height="61" viewBox="0 0 81 61" fill="none" xmlns="http://www.w3.org/2000/svg">
<path fill-rule="evenodd" clip-rule="evenodd" d="M71.7611 9.44531C73.0238 9.44531 74.0428 10.4663 74.0428 11.7211V16.12C74.0428 17.3748 73.0236 18.3958 71.7611 18.3958L57.9399 21.3912L41.2643 18.3958H37.1922C35.9342 18.3958 34.9105 17.3748 34.9105 16.12V11.7211C34.9105 10.4663 35.9342 9.44531 37.1922 9.44531H71.7611Z" fill="#FEB237"/>
<path fill-rule="evenodd" clip-rule="evenodd" d="M75.8332 27.3405L62.9093 31.3076L39.1585 25.9463C39.0458 25.6764 38.9826 25.3796 38.9826 25.0647V20.6659C38.9826 19.4111 40.0018 18.3945 41.2643 18.3945H71.7613H75.8332C77.0912 18.3945 78.1104 19.4111 78.1104 20.6659V25.0647C78.1104 26.324 77.0912 27.3405 75.8332 27.3405Z" fill="#FFD15B"/>
<path fill-rule="evenodd" clip-rule="evenodd" d="M73.1636 21.3901C74.4216 21.3901 75.4453 21.7139 75.4453 22.9688V27.3405H75.833C77.0911 27.3405 78.1103 26.324 78.1103 25.0647V20.6659C78.1103 19.4111 77.0911 18.3945 75.833 18.3945H71.7611H41.2643C40.0016 18.3945 38.9826 19.4111 38.9826 20.6659V21.39H69.0962L73.1636 21.3901Z" fill="#FFC344"/>
<path fill-rule="evenodd" clip-rule="evenodd" d="M68.0411 9.44531C69.2991 9.44531 70.3228 10.4663 70.3228 11.7211V16.12C70.3228 17.3748 69.2991 18.3958 68.0411 18.3958H71.7614C73.024 18.3958 74.0431 17.3748 74.0431 16.12V11.7211C74.0431 10.4663 73.0239 9.44531 71.7614 9.44531H68.0411Z" fill="#ECA026"/>
<path fill-rule="evenodd" clip-rule="evenodd" d="M62.9094 27.3408H75.8332H77.7497C79.0078 27.3408 80.0314 28.3618 80.0314 29.6167V34.0155C80.0314 35.2703 79.0078 36.2913 77.7497 36.2913H70.0792L65.9531 38.1939L63.3828 36.2913V28.9556C63.3828 28.3618 63.2114 27.8086 62.9094 27.3408Z" fill="#FEB237"/>
<path fill-rule="evenodd" clip-rule="evenodd" d="M61.791 36.293H70.0792C71.3372 36.293 72.3564 37.3095 72.3564 38.5643V42.9676C72.3564 44.2224 71.3372 45.239 70.0792 45.239L66.4131 46.8221L61.791 45.2388V36.293Z" fill="#FFD15B"/>
<path fill-rule="evenodd" clip-rule="evenodd" d="M63.3828 45.2383H70.0792H75.8332C77.0913 45.2383 78.1104 46.2548 78.1104 47.5141V51.9129C78.1104 53.1677 77.0913 54.1843 75.8332 54.1843H61.2995C60.8214 51.7105 60.9793 46.9384 63.3828 45.2383Z" fill="#FEB237"/>
<path fill-rule="evenodd" clip-rule="evenodd" d="M61.7911 45.2383V47.9369H66.8957H72.6497C73.9078 47.9369 74.927 48.9535 74.927 50.2083V54.1843H75.8334C77.0915 54.1843 78.1106 53.1677 78.1106 51.9129V47.5141C78.1106 46.2548 77.0915 45.2383 75.8334 45.2383H70.0794H61.7911Z" fill="#ECA026"/>
<path fill-rule="evenodd" clip-rule="evenodd" d="M67.9913 39.1266C69.254 39.1266 70.273 40.1476 70.273 41.4024V44.8881C70.273 45.005 70.264 45.1221 70.246 45.2345C71.4274 45.1445 72.3564 44.1641 72.3564 42.9676V38.5643C72.3564 37.3095 71.3372 36.293 70.0792 36.293H61.791V39.1266H67.9913Z" fill="#FFC344"/>
<path fill-rule="evenodd" clip-rule="evenodd" d="M63.3828 29.9585H73.335H75.256C76.5141 29.9585 77.5332 30.9796 77.5332 32.2344V36.2913H77.7497C79.0078 36.2913 80.0314 35.2703 80.0314 34.0155V29.6167C80.0314 28.3618 79.0078 27.3408 77.7497 27.3408H75.8332H62.9094C63.2116 27.8086 63.3828 28.3618 63.3828 28.9554V29.9585Z" fill="#ECA026"/>
<path fill-rule="evenodd" clip-rule="evenodd" d="M63.3828 45.238V51.3279C63.3828 52.6591 62.5036 53.7925 61.2996 54.1838C61.0065 54.2828 60.6953 54.3322 60.3706 54.3322H58.2286H9.13501C7.48009 54.3322 6.12274 52.9784 6.12274 51.3277V32.4105V28.9563C6.12274 27.3011 7.48009 25.9517 9.13501 25.9517L39.1584 25.9473L60.3706 25.9517C61.4348 25.9517 62.3728 26.505 62.9094 27.3415C63.2116 27.8093 63.3828 28.3625 63.3828 28.9561V36.2918V45.238Z" fill="#3EC3A4"/>
<path fill-rule="evenodd" clip-rule="evenodd" d="M9.13499 54.3322H58.2286V57.7864C58.2286 59.4416 56.8712 60.791 55.2163 60.791H3.98077C2.32138 60.791 0.968506 59.4416 0.968506 57.7864V35.4147C0.968506 33.7595 2.32138 32.4102 3.98077 32.4102H6.12273V51.3277C6.12273 52.9784 7.48008 54.3322 9.13499 54.3322Z" fill="#0BB494"/>
<path fill-rule="evenodd" clip-rule="evenodd" d="M60.0233 51.3273C60.0233 52.5461 59.2837 53.6076 58.2286 54.0753C58.1339 54.1158 58.0393 54.1518 57.94 54.1833C57.6469 54.2823 57.3357 54.3317 57.011 54.3317H58.2286H60.3705C60.6953 54.3317 61.0063 54.2823 61.2995 54.1833C62.5035 53.792 63.3828 52.6585 63.3828 51.3273C63.3828 44.2028 63.3828 37.083 63.3828 29.9585V28.9556C63.3828 28.3618 63.2114 27.8087 62.9094 27.3409C62.3727 26.5043 61.4348 25.9512 60.3705 25.9512H57.0291C58.0842 25.9557 59.0177 26.5089 59.5498 27.3409C59.852 27.8087 60.0233 28.362 60.0233 28.9556V51.3273Z" fill="#0BB494"/>
<path fill-rule="evenodd" clip-rule="evenodd" d="M57.2997 44.7168C54.7879 44.7168 52.7542 46.7453 52.7542 49.2414H16.7469C16.7469 46.7453 14.7176 44.7168 12.2105 44.7168L12.206 35.5683C14.2352 35.5683 15.9578 34.2416 16.5395 32.4109C16.6747 31.9792 16.7469 31.5159 16.7469 31.0391H52.7677C52.7633 31.5158 52.8354 31.979 52.9707 32.4109C53.5479 34.2416 55.2704 35.5683 57.2952 35.5683L57.2997 44.7168Z" fill="#9BE69D"/>
<path fill-rule="evenodd" clip-rule="evenodd" d="M39.0322 40.1423C39.0322 42.4991 37.1157 44.4107 34.7528 44.4107C32.3898 44.4107 30.4733 42.4991 30.4733 40.1423C30.4733 37.7856 32.3898 35.874 34.7528 35.874C37.1157 35.874 39.0322 37.7856 39.0322 40.1423Z" fill="#FED2A4"/>
<path fill-rule="evenodd" clip-rule="evenodd" d="M56.6369 16.0973C56.6369 7.20538 49.4128 0 40.4979 0C31.5829 0 24.3588 7.20538 24.3588 16.0973C24.3588 24.9893 31.5829 32.1947 40.4979 32.1947C49.4128 32.1947 56.6369 24.9893 56.6369 16.0973Z" fill="#EB5569"/>
<path fill-rule="evenodd" clip-rule="evenodd" d="M38.1302 0.170943C45.7556 1.45726 51.5592 8.07337 51.5592 16.0434C51.5592 24.1304 45.5798 30.8274 37.7921 31.9698C38.6713 32.1182 39.5778 32.1947 40.4976 32.1947C49.4126 32.1947 56.6367 24.9893 56.6367 16.0973C56.6367 7.20538 49.4126 0 40.4976 0C39.695 0 38.9014 0.0585254 38.1302 0.170943Z" fill="#E53950"/>
<path d="M42.1872 16.0982L47.4505 10.8485C47.917 10.3832 47.918 9.62781 47.4526 9.16116C46.9873 8.69466 46.2319 8.69373 45.7653 9.159L40.4975 14.413L35.2298 9.159C34.7633 8.69357 34.0079 8.6945 33.5425 9.16116C33.0771 9.62766 33.0781 10.3831 33.5446 10.8485L38.8079 16.0982L33.5446 21.3478C33.0781 21.8131 33.0771 22.5685 33.5425 23.0352C33.7755 23.2688 34.0813 23.3857 34.3872 23.3857C34.692 23.3857 34.9968 23.2696 35.2297 23.0373L40.4974 17.7833L45.7651 23.0373C45.998 23.2697 46.3028 23.3857 46.6076 23.3857C46.9134 23.3857 47.2193 23.2688 47.4523 23.0352C47.9177 22.5687 47.9166 21.8132 47.4501 21.3478L42.1872 16.0982Z" fill="#F3F0F3"/>
</svg>
