<svg width="26" height="26" viewBox="0 0 26 26" fill="none" xmlns="http://www.w3.org/2000/svg">
<circle cx="12.9999" cy="13" r="13" fill="#246BFD"/>
<path d="M17.9257 11.169C17.8966 11.1177 17.8545 11.075 17.8035 11.0453C17.7526 11.0156 17.6947 11 17.6357 11H13.269L14.0011 5.40637C14.009 5.33151 13.9914 5.25618 13.9512 5.19252C13.9111 5.12885 13.8507 5.08056 13.7797 5.0554C13.7088 5.03025 13.6314 5.02971 13.5601 5.05386C13.4888 5.078 13.4277 5.12544 13.3867 5.18854L8.07636 14.492C8.0453 14.5425 8.02828 14.6004 8.02705 14.6597C8.02582 14.719 8.04042 14.7775 8.06935 14.8293C8.09828 14.881 8.14049 14.9241 8.19163 14.9541C8.24277 14.9841 8.30098 14.9999 8.36027 15H12.6617L12.0815 20.602C12.0758 20.6766 12.0952 20.7509 12.1367 20.8132C12.1781 20.8755 12.2392 20.9222 12.3102 20.9457C12.3812 20.9693 12.4581 20.9685 12.5285 20.9433C12.599 20.9182 12.659 20.8702 12.6991 20.807L17.9217 11.5045C17.952 11.454 17.9683 11.3962 17.969 11.3373C17.9697 11.2783 17.9548 11.2202 17.9257 11.169Z" fill="white"/>
</svg>
