<svg width="42" height="42" viewBox="0 0 42 42" fill="none" xmlns="http://www.w3.org/2000/svg">
<path d="M42 21C42 32.598 32.598 42 21 42C9.40202 42 0 32.598 0 21C0 9.40202 9.40202 0 21 0C32.598 0 42 9.40202 42 21Z" fill="#F5F5F5"/>
<path d="M13.5 29.3332V16.8332C13.5 14.869 13.5 13.8865 14.11 13.2765C14.72 12.6665 15.7025 12.6665 17.6667 12.6665H20.1667C22.1308 12.6665 23.1133 12.6665 23.7233 13.2765C24.3333 13.8865 24.3333 14.869 24.3333 16.8332V29.3332M12.6667 29.3332H25.1667M13.5 20.1665H24.3333M28.5 18.1057L28.8725 17.9207C29.0975 17.8098 29.2092 17.754 29.2708 17.6548C29.3333 17.5548 29.3333 17.4315 29.3333 17.1832V16.6048C29.3333 16.069 29.3333 15.8007 29.1883 15.6773C29.1423 15.6381 29.0883 15.6094 29.03 15.5932C28.845 15.5415 28.6192 15.6907 28.1683 15.9882C27.5892 16.3698 27.3 16.5607 27.115 16.8332C27.054 16.9237 27.0021 17.02 26.96 17.1207C26.8333 17.4232 26.8333 17.7665 26.8333 18.4557V19.8165C26.8333 20.0098 26.9917 20.1665 27.1875 20.1665C27.3284 20.1669 27.4663 20.1252 27.5834 20.0469C27.7005 19.9685 27.7916 19.8569 27.845 19.7265L28.5 18.1057Z" stroke="#191919" stroke-linecap="round" stroke-linejoin="round"/>
<path d="M27.2317 20.1665C27.3983 21.3215 27.7875 22.6415 27.6292 23.8165C27.4867 24.8807 26.6442 25.7398 25.5358 25.9507C25.2775 25.9998 24.9625 25.9998 24.3333 25.9998M19.5417 22.6665L17.92 24.264C17.7225 24.4782 17.6233 24.5848 17.685 24.6673C17.7458 24.7498 17.9242 24.7498 18.2808 24.7498H19.5517C19.9092 24.7498 20.0875 24.7498 20.1483 24.8323C20.21 24.9157 20.1108 25.0215 19.9133 25.2357L18.2808 26.8332" stroke="#191919" stroke-linecap="round" stroke-linejoin="round"/>
</svg>
