<svg width="89" height="88" viewBox="0 0 89 88" fill="none" xmlns="http://www.w3.org/2000/svg">
<circle cx="44.5" cy="44" r="44" fill="#F0FAF5"/>
<path d="M61.84 38C61.56 37.98 61.2 37.96 60.8 37.96C60.02 37.96 59.4 38.58 59.4 39.36V48.66C59.4 49.44 60.02 50.06 60.8 50.06C61.2 50.06 61.54 50.04 61.88 50.02C65 49.66 65 47.46 65 45.86V42.14C65 40.54 65 38.34 61.84 38Z" fill="#3EBF80"/>
<path d="M46.86 29.5801H35.7C27.5 29.5801 25 32.0801 25 40.2801V47.7201C25 55.9201 27.5 58.4201 35.7 58.4201H46.86C55.06 58.4201 57.56 55.9201 57.56 47.7201V40.2801C57.56 32.0801 55.06 29.5801 46.86 29.5801ZM46.06 47.3601C46.02 47.4401 45.96 47.5201 45.9 47.5801L42.16 51.9601C41.86 52.3001 41.44 52.4801 41.02 52.4801C40.68 52.4801 40.32 52.3601 40.04 52.1201C39.42 51.5801 39.34 50.6401 39.88 50.0001L43.48 45.7801C43.5 45.7201 43.48 45.6601 43.44 45.6001C43.4 45.5201 43.32 45.4801 43.22 45.4801H39.24C38.06 45.4801 37.02 44.8801 36.42 43.8601C35.84 42.8401 35.84 41.6401 36.42 40.6201L39.84 36.1001C40.34 35.4401 41.28 35.3001 41.94 35.8001C42.6 36.3001 42.74 37.2401 42.24 37.9001L38.94 42.2801C39 42.2001 39 42.2801 39.04 42.3801C39.08 42.4601 39.16 42.5001 39.26 42.5001H43.28C44.46 42.5001 45.5 43.1001 46.1 44.1201C46.64 45.1401 46.64 46.3401 46.06 47.3601Z" fill="#3EBF80"/>
</svg>
