<svg width="40" height="40" viewBox="0 0 40 40" fill="none" xmlns="http://www.w3.org/2000/svg">
<path d="M35.2563 9.11248C35.7384 8.51723 35.9817 7.7639 35.939 6.9991C35.8962 6.23431 35.5704 5.51279 35.025 4.97498L33.2563 3.20623C33.1381 3.0919 32.9801 3.02798 32.8156 3.02798C32.6512 3.02798 32.4932 3.0919 32.375 3.20623L31.9313 3.64998L30.1625 1.88123L29.2813 2.76248L31.05 4.53123L30.1625 5.41873L28.4 3.64998L27.5125 4.53123L29.2813 6.29998L28.8375 6.74373C28.7794 6.80069 28.7334 6.86881 28.7023 6.94398C28.6711 7.01916 28.6555 7.09985 28.6563 7.18123C28.6554 7.26353 28.671 7.34517 28.7022 7.42136C28.7333 7.49756 28.7793 7.56678 28.8375 7.62498L30.6063 9.39373C31.0797 9.87112 31.6962 10.1808 32.3618 10.2755C33.0275 10.3703 33.7059 10.245 34.2938 9.91873C36.3882 12.8623 37.5093 16.3873 37.5 20C37.4974 22.8717 36.7888 25.6987 35.4366 28.2322C34.0843 30.7656 32.1299 32.9277 29.7455 34.528C27.361 36.1283 24.6196 37.1179 21.7627 37.4094C18.9059 37.701 16.0211 37.2856 13.3625 36.2L12.8875 37.3562C15.736 38.5199 18.8269 38.9653 21.888 38.6532C24.9491 38.341 27.8865 37.281 30.4414 35.5663C32.9964 33.8517 35.0905 31.5351 36.5394 28.8206C37.9883 26.1061 38.7474 23.077 38.75 20C38.7604 16.0935 37.5378 12.2834 35.2563 9.11248Z" fill="white"/>
<path d="M8.125 20C8.125 22.3487 8.82146 24.6446 10.1263 26.5974C11.4311 28.5502 13.2858 30.0723 15.4556 30.9711C17.6255 31.8699 20.0132 32.105 22.3167 31.6468C24.6202 31.1886 26.7361 30.0576 28.3969 28.3969C30.0576 26.7361 31.1886 24.6202 31.6468 22.3167C32.105 20.0132 31.8699 17.6255 30.9711 15.4556C30.0723 13.2858 28.5502 11.4311 26.5974 10.1263C24.6446 8.82146 22.3487 8.125 20 8.125C16.8514 8.12781 13.8326 9.37983 11.6062 11.6062C9.37983 13.8326 8.12781 16.8514 8.125 20ZM20.625 13.75V18.125H23.75C23.8565 18.1253 23.9612 18.1529 24.0541 18.205C24.147 18.2572 24.225 18.3323 24.2808 18.4231C24.3365 18.5139 24.3681 18.6174 24.3726 18.7238C24.377 18.8303 24.3542 18.9361 24.3062 19.0312L20.5562 26.5312C20.5043 26.6343 20.4248 26.721 20.3267 26.7817C20.2285 26.8423 20.1154 26.8747 20 26.875C19.9515 26.8749 19.9032 26.8686 19.8563 26.8563C19.7196 26.824 19.5978 26.7466 19.5105 26.6366C19.4232 26.5266 19.3754 26.3904 19.375 26.25V21.875H16.25C16.1435 21.8747 16.0388 21.8471 15.9459 21.795C15.853 21.7428 15.775 21.6677 15.7192 21.5769C15.6635 21.4861 15.6319 21.3826 15.6274 21.2762C15.623 21.1697 15.6458 21.0639 15.6938 20.9688L19.4438 13.4687C19.5076 13.3442 19.6113 13.2446 19.7384 13.1861C19.8655 13.1275 20.0086 13.1133 20.1448 13.1457C20.2809 13.1781 20.4022 13.2553 20.4893 13.3649C20.5764 13.4744 20.6242 13.61 20.625 13.75Z" fill="white"/>
<path d="M11.1625 33.2562C11.2206 33.1993 11.2666 33.1311 11.2978 33.056C11.3289 32.9808 11.3446 32.9001 11.3438 32.8187C11.3446 32.7364 11.329 32.6548 11.2978 32.5786C11.2667 32.5024 11.2207 32.4332 11.1625 32.375L9.39375 30.6062C8.92029 30.1288 8.30383 29.8192 7.63818 29.7244C6.97253 29.6297 6.29414 29.7549 5.70625 30.0812C3.61184 27.1376 2.49074 23.6126 2.50001 20C2.50257 17.1283 3.21118 14.3012 4.56343 11.7678C5.91568 9.23438 7.87009 7.07231 10.2546 5.47196C12.639 3.87161 15.3804 2.88209 18.2373 2.59053C21.0942 2.29897 23.9789 2.71431 26.6375 3.79998L27.1125 2.64373C24.2641 1.48006 21.1732 1.03468 18.112 1.3468C15.0509 1.65893 12.1135 2.71899 9.55858 4.43362C7.00362 6.14825 4.90948 8.46484 3.4606 11.1793C2.01172 13.8939 1.25257 16.923 1.25001 20C1.23958 23.9064 2.46222 27.7165 4.74376 30.8875C4.26166 31.4827 4.0183 32.2361 4.06104 33.0008C4.10379 33.7656 4.42958 34.4872 4.97501 35.025L6.74376 36.7937C6.86194 36.9081 7.01994 36.972 7.18438 36.972C7.34882 36.972 7.50682 36.9081 7.625 36.7937L8.06876 36.35L9.83751 38.1187L10.7188 37.2375L8.95001 35.4687L9.83751 34.5812L11.6 36.35L12.4875 35.4687L10.7188 33.7L11.1625 33.2562Z" fill="white"/>
</svg>
