<svg width="10" height="10" viewBox="0 0 10 10" fill="none" xmlns="http://www.w3.org/2000/svg">
<g clip-path="url(#clip0_54_649)">
<path d="M0.48825 10.0001C0.391664 10.0001 0.297242 9.97146 0.216928 9.9178C0.136614 9.86415 0.0740158 9.78789 0.0370514 9.69865C8.70931e-05 9.60942 -0.00958266 9.51123 0.00926532 9.4165C0.0281133 9.32177 0.0746322 9.23476 0.142938 9.16647L9.16638 0.143033C9.25796 0.0514506 9.38217 0 9.51169 0C9.6412 0 9.76542 0.0514506 9.857 0.143033C9.94858 0.234616 10 0.358828 10 0.488346C10 0.617863 9.94858 0.742076 9.857 0.833658L0.833563 9.8571C0.788258 9.90249 0.734429 9.9385 0.67517 9.96303C0.615911 9.98757 0.552388 10.0002 0.48825 10.0001Z" fill="black"/>
<path d="M9.51191 10.0001C9.44777 10.0002 9.38424 9.98757 9.32499 9.96303C9.26573 9.9385 9.2119 9.90249 9.16659 9.8571L0.143155 0.833658C0.0515726 0.742076 0.00012207 0.617863 0.00012207 0.488346C0.00012207 0.358828 0.0515726 0.234616 0.143155 0.143033C0.234738 0.0514506 0.35895 0 0.488468 0C0.617985 0 0.742198 0.0514506 0.83378 0.143033L9.85722 9.16647C9.92552 9.23476 9.97204 9.32177 9.99089 9.4165C10.0097 9.51123 10.0001 9.60942 9.9631 9.69865C9.92614 9.78789 9.86354 9.86415 9.78323 9.9178C9.70291 9.97146 9.60849 10.0001 9.51191 10.0001Z" fill="black"/>
</g>
<defs>
<clipPath id="clip0_54_649">
<rect width="10" height="10" fill="white"/>
</clipPath>
</defs>
</svg>
