<svg width="73" height="72" viewBox="0 0 73 72" fill="none" xmlns="http://www.w3.org/2000/svg">
<path d="M11.1875 7.875H5.5625C4.63052 7.875 3.875 8.63052 3.875 9.5625C3.875 10.4945 4.63052 11.25 5.5625 11.25H11.1875C12.1195 11.25 12.875 10.4945 12.875 9.5625C12.875 8.63052 12.1195 7.875 11.1875 7.875Z" fill="#AD9990"/>
<path d="M67.4375 7.875H61.8125C60.8805 7.875 60.125 8.63052 60.125 9.5625C60.125 10.4945 60.8805 11.25 61.8125 11.25H67.4375C68.3695 11.25 69.125 10.4945 69.125 9.5625C69.125 8.63052 68.3695 7.875 67.4375 7.875Z" fill="#AD9990"/>
<path d="M61.25 11.25L62.375 14.625H66.875L68 11.25H61.25Z" fill="#A3C8BE"/>
<path d="M5 11.25L6.125 14.625H10.625L11.75 11.25H5Z" fill="#A3C8BE"/>
<path d="M8.375 1.125C9.27011 1.125 10.1286 1.48058 10.7615 2.11351C11.3944 2.74645 11.75 3.60489 11.75 4.5V7.875H5V4.5C5 3.60489 5.35558 2.74645 5.98851 2.11351C6.62145 1.48058 7.47989 1.125 8.375 1.125Z" fill="#94350F"/>
<path d="M64.625 1.125C65.5201 1.125 66.3785 1.48058 67.0115 2.11351C67.6444 2.74645 68 3.60489 68 4.5V7.875H61.25V4.5C61.25 3.60489 61.6056 2.74645 62.2385 2.11351C62.8715 1.48058 63.7299 1.125 64.625 1.125Z" fill="#94350F"/>
<path d="M62.375 14.625H66.875V18H62.375V14.625Z" fill="#AD9990"/>
<path d="M6.125 14.625H10.625V18H6.125V14.625Z" fill="#AD9990"/>
<path d="M6.125 33.75H10.625V38.25H6.125V33.75Z" fill="#AD9990"/>
<path d="M62.375 33.75H66.875V38.25H62.375V33.75Z" fill="#AD9990"/>
<path d="M11.1875 67.5H5.5625C4.63052 67.5 3.875 68.2555 3.875 69.1875C3.875 70.1195 4.63052 70.875 5.5625 70.875H11.1875C12.1195 70.875 12.875 70.1195 12.875 69.1875C12.875 68.2555 12.1195 67.5 11.1875 67.5Z" fill="#6E5F5C"/>
<path d="M67.4375 67.5H61.8125C60.8805 67.5 60.125 68.2555 60.125 69.1875C60.125 70.1195 60.8805 70.875 61.8125 70.875H67.4375C68.3695 70.875 69.125 70.1195 69.125 69.1875C69.125 68.2555 68.3695 67.5 67.4375 67.5Z" fill="#6E5F5C"/>
<path d="M62.375 54H66.875V67.5H62.375V54Z" fill="#AD9990"/>
<path d="M6.125 54H10.625V67.5H6.125V54Z" fill="#AD9990"/>
<path d="M65.75 33.75L71.375 28.125V33.75H65.75Z" fill="#FFC630"/>
<path d="M1.625 27L10.625 18H1.625V27Z" fill="#FFC630"/>
<path d="M1.625 47.25L10.625 38.25H1.625V47.25Z" fill="#FFC630"/>
<path d="M26.375 18L10.625 33.75H2.75L18.5 18H26.375Z" fill="#FFC630"/>
<path d="M42.125 18L26.375 33.75H18.5L34.25 18H42.125Z" fill="#FFC630"/>
<path d="M57.875 18L42.125 33.75H34.25L50 18H57.875Z" fill="#FFC630"/>
<path d="M71.375 18V20.25L57.875 33.75H50L65.75 18H71.375Z" fill="#FFC630"/>
<path d="M18.5 18L2.75 33.75H1.625V27L10.625 18H18.5Z" fill="black"/>
<path d="M34.25 18L18.5 33.75H10.625L26.375 18H34.25Z" fill="black"/>
<path d="M50 18L34.25 33.75H26.375L42.125 18H50Z" fill="black"/>
<path d="M65.75 18L50 33.75H42.125L57.875 18H65.75Z" fill="black"/>
<path d="M65.75 33.75L71.375 28.125V20.25L57.875 33.75H65.75Z" fill="black"/>
<path d="M65.75 54L71.375 48.375V54H65.75Z" fill="#FFC630"/>
<path d="M26.375 38.25L10.625 54H2.75L18.5 38.25H26.375Z" fill="#FFC630"/>
<path d="M42.125 38.25L26.375 54H18.5L34.25 38.25H42.125Z" fill="#FFC630"/>
<path d="M57.875 38.25L42.125 54H34.25L50 38.25H57.875Z" fill="#FFC630"/>
<path d="M71.375 38.25V40.5L57.875 54H50L65.75 38.25H71.375Z" fill="#FFC630"/>
<path d="M18.5 38.25L2.75 54H1.625V47.25L10.625 38.25H18.5Z" fill="black"/>
<path d="M34.25 38.25L18.5 54H10.625L26.375 38.25H34.25Z" fill="black"/>
<path d="M50 38.25L34.25 54H26.375L42.125 38.25H50Z" fill="black"/>
<path d="M65.75 38.25L50 54H42.125L57.875 38.25H65.75Z" fill="black"/>
<path d="M65.75 54L71.375 48.375V40.5L57.875 54H65.75Z" fill="black"/>
</svg>
