<svg width="18" height="16" viewBox="0 0 18 16" fill="none" xmlns="http://www.w3.org/2000/svg">
<path d="M6.39287 14.2857C6.39287 15.2321 5.62558 16 4.67859 16C3.7316 16 2.9643 15.2321 2.9643 14.2857C2.9643 13.3393 3.7316 12.5714 4.67859 12.5714C5.62558 12.5714 6.39287 13.3393 6.39287 14.2857ZM14.3929 12.5714C13.4459 12.5714 12.6786 13.3393 12.6786 14.2857C12.6786 15.2321 13.4459 16 14.3929 16C15.3399 16 16.1072 15.2321 16.1072 14.2857C16.1072 13.3393 15.3399 12.5714 14.3929 12.5714ZM17.8214 10.8571V14.2857H17.25C17.25 12.7087 15.9699 11.4286 14.3929 11.4286C12.8159 11.4286 11.5357 12.7087 11.5357 14.2857H7.53573C7.53573 12.7087 6.2556 11.4286 4.67859 11.4286C3.10158 11.4286 1.82145 12.7087 1.82145 14.2857H0.678589V10.8571C0.678589 10.1713 0.827026 9.11998 1.01564 8.45703L1.53015 6.65737C1.77011 5.8058 2.65571 5.14286 3.53573 5.14286H9.25002C10.0045 5.14286 11.0558 5.52009 11.6384 6.00558L14.1072 8.06306L16.3471 8.81138C17.1758 9.08594 17.8214 9.9827 17.8214 10.8571ZM11.1747 9.14286H9.4604V7.20759L7.32535 10.2857H9.03964V12.221L11.1747 9.14286ZM14.3929 1.71429V0.571429H13.25V0H11.5357C10.4738 0 9.58651 0.731027 9.33093 1.71429H5.82145C4.87613 1.71429 4.10716 2.48326 4.10716 3.42857V4H5.25002V3.42857C5.25002 3.11328 5.50616 2.85714 5.82145 2.85714H9.33093C9.58651 3.8404 10.4738 4.57143 11.5357 4.57143H13.25V4H14.3929V2.85714H13.25V1.71429H14.3929Z" fill="white"/>
</svg>
