<svg width="17" height="16" viewBox="0 0 17 16" fill="none" xmlns="http://www.w3.org/2000/svg">
<g clip-path="url(#clip0_69_954)">
<path d="M11.1104 3.53956C11.1656 3.42913 11.1538 3.299 11.0788 3.20434L9.00438 0.483123C8.94523 0.404248 8.85057 0.356934 8.75198 0.356934C8.65338 0.356934 8.55873 0.404248 8.49563 0.483123L6.42119 3.20434C6.34626 3.299 6.33838 3.43309 6.38963 3.53956C6.44485 3.65 6.55526 3.71703 6.67754 3.71703H7.20995V6.50531C8.55873 7.17181 9.64723 8.28003 10.2901 9.64062V3.71703H10.8225C10.9447 3.71703 11.0552 3.64603 11.1104 3.53956Z" fill="white"/>
<path d="M13.9025 5.67315C13.8079 5.59821 13.6738 5.59033 13.5673 5.64159C13.4569 5.6968 13.3899 5.80721 13.3899 5.92949V6.4619H13.236C12.4355 6.4619 11.6546 6.61965 10.9329 6.91937V10.5082C11.4337 9.91668 12.1791 9.54202 13.0073 9.54202H13.3899V10.0744C13.3899 10.1967 13.4609 10.3071 13.5673 10.3623C13.6778 10.4176 13.8079 10.4057 13.9025 10.3308L16.6238 8.25634C16.7026 8.19718 16.75 8.10252 16.75 8.00393C16.75 7.9014 16.7026 7.81068 16.6238 7.74759L13.9025 5.67315Z" fill="white"/>
<path d="M0.880155 8.25238L3.60137 10.3268C3.69603 10.4018 3.83012 10.4136 3.93659 10.3584C4.04703 10.3032 4.11406 10.1928 4.11406 10.0705V9.53807H4.49662C5.99528 9.53807 7.20997 10.7567 7.20997 12.2514V15.3236C7.20997 15.5011 7.35193 15.6431 7.5294 15.6431H9.97062C10.1481 15.6431 10.2901 15.5011 10.2901 15.3236V12.4841C10.2901 9.16341 7.58856 6.46191 4.26787 6.46191H4.11012V5.9295C4.11012 5.80725 4.04309 5.69682 3.93265 5.6416C3.82222 5.59032 3.69209 5.59822 3.59744 5.67316L0.87619 7.74757C0.797314 7.80673 0.75 7.90138 0.75 8.00391C0.753938 8.10251 0.797314 8.19322 0.880155 8.25238Z" fill="white"/>
</g>
<defs>
<clipPath id="clip0_69_954">
<rect width="16" height="16" fill="white" transform="translate(0.75)"/>
</clipPath>
</defs>
</svg>
