<svg width="259" height="125" viewBox="0 0 259 125" fill="none" xmlns="http://www.w3.org/2000/svg">
<g clip-path="url(#clip0_3004_1756)">
<path d="M156.936 124.875H156.305C156.174 124.875 156.069 124.736 156.069 124.566C156.069 124.396 156.176 124.258 156.305 124.258H156.936C157.067 124.258 157.172 124.396 157.172 124.566C157.172 124.736 157.065 124.875 156.936 124.875Z" fill="#DFE2F7"/>
<path d="M156.303 124.751C156.285 124.751 156.267 124.747 156.249 124.738L137.813 115.07L122.438 107.01C122.387 106.984 122.351 106.919 122.349 106.847C122.347 106.776 122.375 106.706 122.424 106.675L122.722 106.476L137.799 96.3437L149.185 88.6885L129.922 70.9368C129.886 70.9055 129.866 70.854 129.862 70.7981C129.86 70.7467 129.873 70.6953 129.9 70.6573L141.799 52.8496C141.432 52.2281 139.692 49.2859 137.75 45.9971L135.779 42.6591C135.73 42.5787 135.744 42.4624 135.804 42.3998C135.866 42.3372 135.955 42.3528 136.001 42.4333L137.973 45.7713C140.161 49.4781 142.092 52.7446 142.092 52.7446C142.135 52.8139 142.132 52.9122 142.088 52.9793L130.213 70.7534L149.539 88.5633C149.579 88.6013 149.601 88.6639 149.599 88.7265C149.594 88.7914 149.565 88.8495 149.523 88.8786L137.928 96.6723L122.831 106.82L137.917 114.73L156.354 124.398C156.427 124.436 156.461 124.543 156.432 124.639C156.409 124.711 156.356 124.755 156.301 124.755L156.303 124.751Z" fill="#DFE2F7"/>
<path d="M119.429 124.751C119.373 124.751 119.32 124.707 119.298 124.635C119.269 124.541 119.304 124.432 119.375 124.394L137.812 114.726L152.898 106.816L152.876 106.803L137.799 96.6704L126.204 88.8766C126.16 88.8475 126.131 88.7894 126.128 88.7246C126.124 88.6597 126.148 88.5971 126.188 88.5614L145.512 70.7515L133.637 52.9774C133.615 52.9438 133.601 52.9013 133.601 52.8566C133.601 52.8141 133.613 52.7739 133.633 52.7404C133.686 52.6532 135.593 49.427 137.752 45.7693C138.401 44.6716 139.072 43.5336 139.723 42.4314C139.77 42.3509 139.861 42.3352 139.921 42.3978C139.983 42.4604 139.995 42.5767 139.946 42.6572C139.295 43.7594 138.623 44.8974 137.975 45.9951C136.032 49.2817 134.295 52.2217 133.924 52.8477L145.825 70.662C145.852 70.7023 145.863 70.7537 145.859 70.8051C145.854 70.8566 145.832 70.9035 145.799 70.9348L126.537 88.6866L137.924 96.3417L153.298 106.675C153.347 106.709 153.378 106.776 153.374 106.847C153.372 106.919 153.336 106.984 153.285 107.011L137.91 115.071L119.473 124.738C119.455 124.747 119.438 124.751 119.42 124.751H119.429Z" fill="#DFE2F7"/>
<path d="M156.936 124.874H156.305C156.274 124.874 156.245 124.868 156.218 124.852L137.868 115.229L119.517 124.852C119.489 124.868 119.46 124.874 119.431 124.874H118.8C118.726 124.874 118.657 124.83 118.613 124.754C118.569 124.678 118.553 124.577 118.573 124.485L126.048 88.6286L129.784 70.7002C129.784 70.7002 129.788 70.6846 129.788 70.6779L133.517 52.7852C133.517 52.7852 133.517 52.7763 133.519 52.7718L135.668 42.4628L137.639 33.0034C137.668 32.8693 137.761 32.7754 137.866 32.7754C137.97 32.7754 138.066 32.8693 138.092 33.0034L145.945 70.6756C145.945 70.6756 145.95 70.6935 145.952 70.7002L149.687 88.6286L157.162 124.485C157.182 124.577 157.167 124.678 157.122 124.754C157.078 124.83 157.009 124.874 156.936 124.874ZM156.349 124.257H156.627L149.234 88.7896L145.503 70.888C145.503 70.888 145.499 70.8701 145.496 70.8634L141.761 52.935L137.868 34.2577L136.123 42.6261L133.977 52.9239C133.977 52.9239 133.977 52.9328 133.975 52.9373L130.239 70.8634C130.239 70.8634 130.235 70.8791 130.235 70.8858L126.504 88.7918L119.111 124.26H119.389L137.783 114.612C137.839 114.583 137.903 114.583 137.959 114.612L156.354 124.26L156.349 124.257Z" fill="#DFE2F7"/>
<path d="M141.988 53.161H133.746C133.615 53.161 133.51 53.0224 133.51 52.8525C133.51 52.6826 133.617 52.5439 133.746 52.5439H141.988C142.119 52.5439 142.223 52.6826 142.223 52.8525C142.223 53.0224 142.119 53.161 141.988 53.161Z" fill="#DFE2F7"/>
<path d="M145.725 71.0887H130.008C129.877 71.0887 129.772 70.9501 129.772 70.7802C129.772 70.6103 129.879 70.4717 130.008 70.4717H145.725C145.856 70.4717 145.961 70.6103 145.961 70.7802C145.961 70.9501 145.856 71.0887 145.725 71.0887Z" fill="#DFE2F7"/>
<path d="M149.461 89.0175H126.271C126.14 89.0175 126.035 88.8788 126.035 88.7089C126.035 88.539 126.142 88.4004 126.271 88.4004H149.461C149.592 88.4004 149.696 88.539 149.696 88.7089C149.696 88.8788 149.592 89.0175 149.461 89.0175Z" fill="#DFE2F7"/>
<path d="M153.198 106.946H122.533C122.402 106.946 122.297 106.808 122.297 106.638C122.297 106.468 122.404 106.329 122.533 106.329H153.198C153.329 106.329 153.434 106.468 153.434 106.638C153.434 106.808 153.327 106.946 153.198 106.946Z" fill="#DFE2F7"/>
<path d="M138.252 23.8066C139.812 23.8066 141.076 25.0788 141.076 26.6483C141.076 28.2178 139.812 29.4899 138.252 29.4899C136.692 29.4899 135.428 28.2178 135.428 26.6483C135.428 25.0788 136.692 23.8066 138.252 23.8066Z" fill="#DFE2F7"/>
<path d="M141.076 33.2166C141.076 32.9103 141.234 32.6129 141.516 32.4475C141.632 32.3782 144.43 30.6634 144.43 26.6457C144.43 22.6281 141.756 20.7121 141.643 20.6338C141.241 20.3588 141.136 19.8066 141.405 19.402C141.676 18.9973 142.221 18.8877 142.625 19.1583C142.772 19.2566 146.194 21.6109 146.194 26.6435C146.194 31.6762 142.556 33.8918 142.401 33.9812C141.979 34.2271 141.439 34.0818 141.194 33.657C141.114 33.5162 141.074 33.3641 141.074 33.2121L141.076 33.2166Z" fill="#DFE2F7"/>
<path d="M145.167 36.5903C145.167 36.284 145.325 35.9867 145.607 35.8212C145.794 35.7117 150.218 33.0198 150.218 26.6905C150.218 20.3611 146.003 17.3831 145.823 17.2624C145.421 16.9874 145.314 16.4374 145.583 16.0305C145.854 15.6236 146.398 15.514 146.803 15.7868C147.014 15.9276 151.983 19.3438 151.983 26.6905C151.983 34.0371 146.714 37.2253 146.489 37.3572C146.067 37.6031 145.527 37.4578 145.283 37.033C145.203 36.8921 145.165 36.7401 145.165 36.5881L145.167 36.5903Z" fill="#DFE2F7"/>
<path d="M149.129 39.0759C149.129 38.7696 149.287 38.4722 149.569 38.3068C149.807 38.1659 155.433 34.7564 155.433 26.7234C155.433 18.6904 150.08 14.9299 149.851 14.7756C149.447 14.5029 149.34 13.9506 149.611 13.5437C149.882 13.1368 150.429 13.0273 150.834 13.2978C151.094 13.4722 157.198 17.6709 157.198 26.7212C157.198 35.7714 150.729 39.6795 150.454 39.8405C150.031 40.0864 149.491 39.9411 149.247 39.5163C149.167 39.3754 149.127 39.2234 149.127 39.0714L149.129 39.0759Z" fill="#DFE2F7"/>
<path d="M152.914 42.2732C152.914 41.9669 153.071 41.6696 153.354 41.5041C153.658 41.3253 160.827 36.9902 160.827 26.7684C160.827 16.5466 153.791 11.6302 153.722 11.5832C153.318 11.3105 153.211 10.7582 153.48 10.3513C153.751 9.94443 154.298 9.83488 154.702 10.1054C155.025 10.3223 162.591 15.5271 162.591 26.7684C162.591 38.0097 154.578 42.8433 154.238 43.0401C153.816 43.286 153.276 43.1407 153.031 42.7159C152.951 42.575 152.914 42.423 152.914 42.271V42.2732Z" fill="#DFE2F7"/>
<path d="M134.654 33.2166C134.654 32.9103 134.496 32.6129 134.214 32.4475C134.099 32.3782 131.301 30.6634 131.301 26.6457C131.301 22.6281 133.974 20.7121 134.088 20.6338C134.49 20.3588 134.594 19.8066 134.325 19.402C134.054 18.9973 133.51 18.8877 133.105 19.1583C132.959 19.2566 129.537 21.6109 129.537 26.6435C129.537 31.6762 133.174 33.8918 133.33 33.9812C133.752 34.2271 134.292 34.0818 134.536 33.657C134.616 33.5162 134.656 33.3641 134.656 33.2121L134.654 33.2166Z" fill="#DFE2F7"/>
<path d="M130.563 36.5903C130.563 36.284 130.406 35.9867 130.123 35.8212C129.937 35.7117 125.512 33.0198 125.512 26.6905C125.512 20.3611 129.728 17.3831 129.908 17.2624C130.31 16.9874 130.417 16.4374 130.148 16.0305C129.877 15.6236 129.332 15.514 128.928 15.7868C128.717 15.9276 123.748 19.3438 123.748 26.6905C123.748 34.0371 129.017 37.2253 129.241 37.3572C129.663 37.6031 130.203 37.4578 130.448 37.033C130.528 36.8921 130.566 36.7401 130.566 36.5881L130.563 36.5903Z" fill="#DFE2F7"/>
<path d="M126.599 39.0759C126.599 38.7696 126.441 38.4722 126.159 38.3068C125.921 38.1659 120.295 34.7564 120.295 26.7234C120.295 18.6904 125.648 14.9299 125.877 14.7756C126.281 14.5029 126.388 13.9506 126.117 13.5437C125.846 13.1368 125.299 13.0273 124.894 13.2978C124.634 13.4722 118.53 17.6709 118.53 26.7212C118.53 35.7714 124.999 39.6795 125.274 39.8405C125.697 40.0864 126.237 39.9411 126.481 39.5163C126.561 39.3754 126.601 39.2234 126.601 39.0714L126.599 39.0759Z" fill="#DFE2F7"/>
<path d="M122.817 42.2732C122.817 41.9669 122.659 41.6696 122.377 41.5041C122.073 41.3253 114.904 36.9902 114.904 26.7684C114.904 16.5466 121.937 11.6302 122.008 11.5832C122.413 11.3105 122.519 10.7582 122.25 10.3513C121.979 9.94443 121.433 9.83488 121.028 10.1054C120.706 10.3223 113.14 15.5271 113.14 26.7684C113.14 38.0097 121.153 42.8433 121.493 43.0401C121.915 43.286 122.455 43.1407 122.699 42.7159C122.779 42.575 122.817 42.423 122.817 42.271V42.2732Z" fill="#DFE2F7"/>
<path d="M188.909 86.9007C190.894 86.5005 192.889 86.8895 194.745 87.6429C196.431 88.3271 197.84 89.4964 199.369 90.4689C201.604 91.8908 203.94 93.154 206.404 94.1288C209.969 95.5351 213.755 96.1387 217.559 95.6111C220.768 95.1662 223.788 93.9947 226.839 92.9573C230.279 91.788 233.779 90.8937 237.43 90.8333C243.632 90.7305 249.671 92.7471 255.242 95.3339C256.244 95.7989 257.124 94.301 256.113 93.8337C250.887 91.4079 245.336 89.4695 239.545 89.1409C235.656 88.9195 231.821 89.5567 228.117 90.7148C224.97 91.6963 221.912 92.9998 218.675 93.6682C215.044 94.4195 211.408 94.0707 207.915 92.85C205.06 91.8506 202.384 90.3638 199.849 88.7228C198.198 87.6541 196.702 86.5273 194.845 85.832C192.783 85.0607 190.612 84.7946 188.447 85.2283C187.358 85.4474 187.818 87.1242 188.907 86.9051L188.909 86.9007Z" fill="#C8CBE3"/>
<path d="M85.5009 70.0522C82.5322 70.3987 79.8234 71.4763 77.4857 73.3588C75.3036 75.1161 73.6014 77.3921 72.0504 79.7128C69.0127 84.2603 66.3395 89.6819 61.2575 92.253C58.0354 93.8829 54.6023 93.7398 51.1113 93.4268C46.0493 92.9752 40.9695 92.651 35.8853 92.6309C29.1012 92.6018 22.1748 93.078 15.6684 95.1461C10.1198 96.9078 5.18664 99.906 0.39129 103.159C-0.526448 103.781 0.337959 105.287 1.26236 104.659C5.45329 101.815 9.75533 99.0944 14.5329 97.3617C20.606 95.1595 27.0812 94.4888 33.501 94.3815C38.1896 94.3032 42.8806 94.5223 47.5559 94.8711C51.6268 95.1751 55.7755 95.942 59.7687 94.7079C65.3085 92.9975 68.6528 88.2064 71.6371 83.5314C75.0369 78.2081 78.6968 72.583 85.4987 71.7871C86.5898 71.6597 86.6031 69.9202 85.4987 70.0477L85.5009 70.0522Z" fill="#C8CBE3"/>
<path d="M90.5336 62.8242H89.0448C85.0139 62.8242 81.7451 66.113 81.7451 70.1686C81.7451 74.2242 85.0139 77.513 89.0448 77.513H90.5336C91.7558 77.513 92.7469 76.5159 92.7469 75.2862V65.051C92.7469 63.8214 91.7558 62.8265 90.5336 62.8265V62.8242Z" fill="#3EBF80"/>
<path d="M90.5335 62.8242H89.0447C88.838 62.8242 88.6314 62.8354 88.4292 62.851C88.4781 63.0344 88.5069 63.2289 88.5069 63.4279V73.6631C88.5069 74.8927 87.5159 75.8899 86.2937 75.8899H84.8049C84.6893 75.8899 84.576 75.8854 84.4604 75.8809C85.7137 76.9004 87.307 77.5108 89.0425 77.5108H90.5313C91.7535 77.5108 92.7445 76.5136 92.7445 75.2862V65.051C92.7445 63.8214 91.7535 62.8265 90.5313 62.8265L90.5335 62.8242Z" fill="#167B4A"/>
<path d="M113.371 55.8691H102.433C96.909 55.8691 92.4292 60.3764 92.4292 65.9344V73.1C92.4292 78.658 96.909 83.1653 102.433 83.1653H113.371C114.542 83.1653 115.49 82.2106 115.49 81.0324V58.002C115.49 56.8238 114.542 55.8691 113.371 55.8691Z" fill="#3EBF80"/>
<path d="M115.404 81.3096H104.466C98.942 81.3096 94.4622 76.8023 94.4622 71.2443V64.0787C94.4622 61.6172 95.34 59.3658 96.7977 57.6152C94.16 59.4284 92.4268 62.4757 92.4268 65.9322V73.0977C92.4268 78.6558 96.9066 83.163 102.431 83.163H113.368C114.446 83.163 115.335 82.3537 115.468 81.3051C115.446 81.3051 115.426 81.3074 115.404 81.3074V81.3096Z" fill="#167B4A"/>
<path d="M93.3178 57.1484C91.5379 57.1484 90.0957 58.5994 90.0957 60.3903V78.6451C90.0957 80.4359 91.5379 81.8869 93.3178 81.8869C95.0977 81.8869 96.5399 80.4359 96.5399 78.6451V60.3903C96.5399 58.5994 95.0977 57.1484 93.3178 57.1484Z" fill="#3EBF80"/>
<path d="M94.2292 57.2822C94.5825 57.8032 94.7914 58.4314 94.7914 59.1111V77.3659C94.7914 79.1567 93.3492 80.6077 91.5693 80.6077C91.2515 80.6077 90.9471 80.5607 90.6582 80.4735C91.2382 81.3254 92.2137 81.8865 93.3181 81.8865C95.098 81.8865 96.5402 80.4355 96.5402 78.6447V60.3899C96.5402 58.9188 95.5647 57.678 94.2292 57.2822Z" fill="#167B4A"/>
<path d="M113.995 83.0872C116.973 83.0872 119.388 77.0113 119.388 69.5162C119.388 62.0212 116.973 55.9453 113.995 55.9453C111.016 55.9453 108.602 62.0212 108.602 69.5162C108.602 77.0113 111.016 83.0872 113.995 83.0872Z" fill="#167B4A"/>
<path d="M115.383 83.0872C118.053 83.0872 120.217 77.0423 120.217 69.5856C120.217 62.1289 118.053 56.084 115.383 56.084C112.714 56.084 110.55 62.1289 110.55 69.5856C110.55 77.0423 112.714 83.0872 115.383 83.0872Z" fill="#4ECD8F"/>
<path d="M125.845 62.5332H116.579C116.071 62.5332 115.659 62.9476 115.659 63.4588V64.1139C115.659 64.6251 116.071 65.0395 116.579 65.0395H125.845C126.353 65.0395 126.765 64.6251 126.765 64.1139V63.4588C126.765 62.9476 126.353 62.5332 125.845 62.5332Z" fill="#3EBF80"/>
<path d="M125.519 64.3023H116.904C116.344 64.3023 115.877 63.929 115.719 63.417C115.684 63.5333 115.659 63.6562 115.659 63.7859C115.659 64.4767 116.217 65.0379 116.904 65.0379H125.519C126.205 65.0379 126.763 64.4767 126.763 63.7859C126.763 63.6562 126.739 63.5355 126.703 63.417C126.545 63.929 126.079 64.3023 125.519 64.3023Z" fill="#167B4A"/>
<path d="M125.845 73.793H116.579C116.071 73.793 115.659 74.2074 115.659 74.7186V75.3736C115.659 75.8848 116.071 76.2992 116.579 76.2992H125.845C126.353 76.2992 126.765 75.8848 126.765 75.3736V74.7186C126.765 74.2074 126.353 73.793 125.845 73.793Z" fill="#3EBF80"/>
<path d="M125.519 75.5641H116.904C116.344 75.5641 115.877 75.1907 115.719 74.6787C115.684 74.795 115.659 74.9179 115.659 75.0476C115.659 75.7385 116.217 76.2996 116.904 76.2996H125.519C126.205 76.2996 126.763 75.7385 126.763 75.0476C126.763 74.9179 126.739 74.7972 126.703 74.6787C126.545 75.1907 126.079 75.5641 125.519 75.5641Z" fill="#167B4A"/>
<path d="M183.681 76.7686H182.192C180.97 76.7686 179.979 77.7657 179.979 78.9953V89.2306C179.979 90.4602 180.97 91.4574 182.192 91.4574H183.681C187.712 91.4574 190.98 88.1686 190.98 84.113C190.98 80.0573 187.712 76.7686 183.681 76.7686Z" fill="#3EBF80"/>
<path d="M182.191 76.7686H183.68C183.887 76.7686 184.094 76.7797 184.296 76.7954C184.247 76.9787 184.218 77.1732 184.218 77.3722V87.6074C184.218 88.8371 185.209 89.8342 186.431 89.8342H187.92C188.036 89.8342 188.149 89.8297 188.265 89.8253C187.011 90.8448 185.418 91.4551 183.683 91.4551H182.194C180.972 91.4551 179.98 90.458 179.98 89.2306V78.9953C179.98 77.7657 180.972 76.7708 182.194 76.7708L182.191 76.7686Z" fill="#167B4A"/>
<path d="M159.355 69.8135H170.293C175.817 69.8135 180.297 74.3207 180.297 79.8788V87.0443C180.297 92.6024 175.817 97.1096 170.293 97.1096H159.355C158.184 97.1096 157.235 96.1549 157.235 94.9767V71.9464C157.235 70.7681 158.184 69.8135 159.355 69.8135Z" fill="#3EBF80"/>
<path d="M157.322 95.2559H168.26C173.784 95.2559 178.264 90.7486 178.264 85.1906V78.025C178.264 75.5635 177.386 73.3121 175.928 71.5615C178.566 73.3747 180.299 76.422 180.299 79.8785V87.044C180.299 92.6021 175.819 97.1093 170.295 97.1093H159.358C158.28 97.1093 157.391 96.3 157.258 95.2514C157.28 95.2514 157.3 95.2536 157.322 95.2536V95.2559Z" fill="#167B4A"/>
<path d="M179.406 71.0947C177.626 71.0947 176.184 72.5457 176.184 74.3365V92.5914C176.184 94.3822 177.626 95.8332 179.406 95.8332C181.186 95.8332 182.628 94.3822 182.628 92.5914V74.3365C182.628 72.5457 181.186 71.0947 179.406 71.0947Z" fill="#3EBF80"/>
<path d="M178.497 71.2266C178.143 71.7475 177.934 72.3757 177.934 73.0554V91.3102C177.934 93.101 179.377 94.552 181.156 94.552C181.474 94.552 181.779 94.5051 182.068 94.4179C181.488 95.2697 180.512 95.8309 179.408 95.8309C177.628 95.8309 176.186 94.3799 176.186 92.589V74.3342C176.186 72.8631 177.161 71.6223 178.497 71.2266Z" fill="#167B4A"/>
<path d="M159.531 97.1093C162.346 97.1093 164.628 90.9994 164.628 83.4624C164.628 75.9254 162.346 69.8154 159.531 69.8154C156.715 69.8154 154.433 75.9254 154.433 83.4624C154.433 90.9994 156.715 97.1093 159.531 97.1093Z" fill="#167B4A"/>
<path d="M158.169 96.9573C160.838 96.9573 163.002 90.9125 163.002 83.4557C163.002 75.999 160.838 69.9541 158.169 69.9541C155.499 69.9541 153.335 75.999 153.335 83.4557C153.335 90.9125 155.499 96.9573 158.169 96.9573Z" fill="#4ECD8F"/>
<path d="M157.786 80.2967C158.501 80.2967 159.08 79.1936 159.08 77.8329C159.08 76.4722 158.501 75.3691 157.786 75.3691C157.072 75.3691 156.493 76.4722 156.493 77.8329C156.493 79.1936 157.072 80.2967 157.786 80.2967Z" fill="#167B4A"/>
<path d="M157.786 90.9471C158.501 90.9471 159.08 89.7299 159.08 88.2284C159.08 86.727 158.501 85.5098 157.786 85.5098C157.072 85.5098 156.493 86.727 156.493 88.2284C156.493 89.7299 157.072 90.9471 157.786 90.9471Z" fill="#167B4A"/>
<path d="M138.229 29.4869C137.327 29.4869 136.643 29.2298 136.176 28.7133C135.709 28.1968 135.476 27.5485 135.476 26.766C135.476 25.9835 135.716 25.3105 136.198 24.7471C136.68 24.1837 137.356 23.902 138.227 23.902C139.098 23.902 139.82 24.1926 140.303 24.7695C140.785 25.3485 141.025 26.0282 141.025 26.8107C141.025 27.5306 140.783 28.1566 140.303 28.6887C139.82 29.2208 139.129 29.4869 138.227 29.4869H138.229ZM139.023 21.1341H137.389L135.943 5.54882C135.912 4.95635 135.872 4.43319 135.827 3.98157C135.781 3.52995 135.758 3.13422 135.758 2.79663C135.758 2.00741 135.929 1.3434 136.272 0.806819C136.614 0.270242 137.267 0.00195312 138.232 0.00195312C139.134 0.00195312 139.771 0.270242 140.145 0.806819C140.518 1.3434 140.705 2.03424 140.705 2.88158C140.705 3.24825 140.696 3.66409 140.683 4.13136C140.667 4.5964 140.627 5.07037 140.567 5.55106L139.027 21.1364L139.023 21.1341Z" fill="#C8CBE3"/>
<path d="M136.705 64.7732L137.072 58.4461L139.205 58.6652L139.294 54.538L141.043 55.5038L141.238 52.3447C141.238 52.3447 143.225 53.0691 143.26 53.2681C143.296 53.4693 141.874 57.8558 141.874 57.8558L140.858 56.8587L140.652 60.4761L138.181 59.83L136.701 64.7732H136.705Z" fill="#E86F00"/>
<path d="M145.058 69.759L148.076 65.8555L149.351 66.9443L151.222 64.3284L151.922 65.728L153.436 63.7852C153.436 63.7852 154.396 65.1355 154.329 65.2786C154.262 65.424 151.42 67.6127 151.42 67.6127L151.205 66.5195L149.482 68.7552L148.178 67.2394L145.054 69.759H145.058Z" fill="#E86F00"/>
<path d="M135.619 85.0166L139.963 86.5928L139.367 88.0572L142.234 88.9783L141.196 90.0157L143.363 90.8116C143.363 90.8116 142.445 92.0659 142.296 92.0502C142.149 92.0323 139.378 90.1163 139.378 90.1163L140.285 89.6043L137.801 88.7056L138.765 87.0936L135.619 85.0188V85.0166Z" fill="#E86F00"/>
<path d="M26.472 74.7994C26.4054 74.7994 26.3521 74.7457 26.3521 74.6786C26.3521 74.6742 26.3521 74.142 26.432 73.2254C26.4365 73.1583 26.492 73.1091 26.5609 73.1158C26.6276 73.1226 26.6765 73.1807 26.6698 73.2455C26.592 74.151 26.592 74.6742 26.592 74.6809C26.592 74.7479 26.5387 74.8016 26.472 74.8016V74.7994Z" fill="#C8CBE3"/>
<path d="M26.9232 70.4591C26.9232 70.4591 26.9099 70.4591 26.9032 70.4591C26.8387 70.4479 26.7943 70.3853 26.8054 70.3205C26.9654 69.3703 27.1632 68.4045 27.3943 67.452C27.4098 67.3872 27.4765 67.347 27.5387 67.3626C27.6032 67.3783 27.6432 67.4431 27.6276 67.5079C27.3987 68.4559 27.201 69.415 27.0432 70.3585C27.0343 70.4166 26.9832 70.4591 26.9254 70.4591H26.9232ZM28.2942 64.7893C28.2831 64.7893 28.2698 64.7893 28.2587 64.7826C28.1965 64.7624 28.1609 64.6954 28.1809 64.6305C28.4742 63.7005 28.8053 62.7749 29.1609 61.8739C29.1853 61.8113 29.2542 61.7822 29.3164 61.8068C29.3786 61.8314 29.4075 61.9007 29.3831 61.9633C29.0298 62.8576 28.7009 63.781 28.4098 64.7043C28.3942 64.7557 28.3453 64.7893 28.2965 64.7893H28.2942ZM30.4386 59.3676C30.4208 59.3676 30.403 59.3631 30.3875 59.3564C30.3275 59.3274 30.303 59.2558 30.3319 59.1954C30.7541 58.3168 31.2141 57.4471 31.6941 56.6087C31.7274 56.5506 31.8008 56.5304 31.8585 56.564C31.9163 56.5975 31.9363 56.6713 31.903 56.7294C31.4252 57.5611 30.9697 58.4264 30.5497 59.3005C30.5297 59.343 30.4853 59.3676 30.4408 59.3676H30.4386ZM33.3451 54.3193C33.3229 54.3193 33.2985 54.3126 33.2785 54.2992C33.2229 54.2612 33.2096 54.1874 33.2474 54.1315C33.794 53.3289 34.3784 52.5374 34.9828 51.7817C35.0251 51.7303 35.1006 51.7214 35.1517 51.7639C35.2028 51.8063 35.2117 51.8823 35.1695 51.9338C34.5695 52.685 33.9895 53.472 33.4451 54.2701C33.4229 54.3037 33.3851 54.3238 33.3451 54.3238V54.3193ZM36.9761 49.7741C36.9472 49.7741 36.9161 49.7629 36.8939 49.7405C36.845 49.6958 36.8428 49.6175 36.8894 49.5706C37.5494 48.8641 38.2471 48.1733 38.9627 47.5182C39.0116 47.4735 39.0871 47.4779 39.1315 47.5271C39.176 47.5763 39.1715 47.6523 39.1227 47.697C38.4116 48.3476 37.7183 49.034 37.0627 49.736C37.0383 49.7606 37.0072 49.7741 36.9761 49.7741ZM74.3522 49.0787H74.3011C74.2345 49.0787 74.1811 49.0228 74.1834 48.9558C74.1834 48.8887 74.2322 48.8306 74.3056 48.8373H74.3522C75.1855 48.8373 76.0566 48.531 76.9388 47.9296C76.9943 47.8916 77.0677 47.9072 77.1054 47.9609C77.1432 48.0168 77.1277 48.0905 77.0743 48.1285C76.1522 48.759 75.2366 49.0787 74.3522 49.0787ZM71.7812 47.8379C71.7479 47.8379 71.7123 47.8223 71.6879 47.7954C71.0902 47.0733 70.7191 46.0963 70.6413 45.0432C70.6368 44.9762 70.6857 44.918 70.7524 44.9136C70.8213 44.9068 70.8768 44.9583 70.8813 45.0253C70.9546 46.027 71.3079 46.957 71.8723 47.6412C71.9146 47.6926 71.9079 47.7686 71.8568 47.8111C71.8346 47.829 71.8079 47.8379 71.7812 47.8379ZM78.9054 46.0046C78.892 46.0046 78.8765 46.0024 78.8632 45.9979C78.8009 45.9755 78.7698 45.904 78.792 45.8414C78.9054 45.5373 78.9632 45.2198 78.9632 44.9001C78.9632 44.33 78.7832 43.7465 78.4276 43.163C78.3921 43.1071 78.4098 43.0311 78.4676 42.9975C78.5254 42.9618 78.5987 42.9819 78.632 43.0378C79.0098 43.6593 79.2009 44.2875 79.2031 44.9001C79.2031 45.2489 79.1409 45.5955 79.0165 45.9263C78.9987 45.9755 78.952 46.0046 78.9031 46.0046H78.9054ZM41.2603 45.8481C41.2248 45.8481 41.1892 45.8324 41.1648 45.8011C41.1248 45.7497 41.1337 45.6737 41.1848 45.6312C41.9425 45.0365 42.7358 44.4597 43.5425 43.9164C43.598 43.8784 43.6713 43.8941 43.7091 43.95C43.7469 44.0058 43.7313 44.0796 43.6758 44.1176C42.8736 44.6564 42.0848 45.231 41.3337 45.8213C41.3115 45.8391 41.2848 45.8459 41.2603 45.8459V45.8481ZM46.0779 42.604C46.0357 42.604 45.9957 42.5817 45.9735 42.5437C45.9401 42.4855 45.9601 42.4118 46.0179 42.3782C46.8623 41.8931 47.7312 41.4392 48.5978 41.0256C48.6578 40.9965 48.7289 41.0234 48.7578 41.0837C48.7867 41.1441 48.76 41.2156 48.7 41.2447C47.8378 41.6561 46.9756 42.1077 46.1357 42.5884C46.1179 42.5996 46.0957 42.604 46.0757 42.604H46.0779ZM71.2546 42.3044C71.239 42.3044 71.2235 42.3022 71.2079 42.2955C71.1479 42.2687 71.119 42.1994 71.1457 42.1368C71.519 41.2559 72.0812 40.4421 72.8167 39.7155C72.8634 39.6685 72.939 39.6685 72.9856 39.7155C73.0323 39.7624 73.0323 39.8384 72.9856 39.8854C72.2723 40.5896 71.7279 41.3789 71.3679 42.2284C71.3479 42.2731 71.3035 42.3022 71.2568 42.3022L71.2546 42.3044ZM76.5099 41.153C76.4855 41.153 76.461 41.1463 76.441 41.1307C75.7255 40.6142 74.8811 40.1403 73.9345 39.7199C73.8745 39.6931 73.8456 39.6216 73.8723 39.5612C73.8989 39.5008 73.97 39.4718 74.03 39.4986C74.9922 39.9256 75.8499 40.4085 76.5788 40.9339C76.6321 40.9719 76.6455 41.048 76.6055 41.1016C76.581 41.1352 76.5455 41.153 76.5077 41.153H76.5099ZM51.3177 40.109C51.2688 40.109 51.2244 40.0799 51.2066 40.0307C51.1821 39.9681 51.2132 39.8988 51.2755 39.8742C52.1821 39.5254 53.1109 39.2102 54.0331 38.9374C54.0976 38.9195 54.1642 38.9553 54.182 39.0201C54.1998 39.085 54.1642 39.1521 54.0998 39.1699C53.1843 39.4405 52.2621 39.7535 51.3599 40.1C51.3466 40.1045 51.331 40.109 51.3177 40.109ZM71.2502 38.7541C71.2502 38.7541 71.2279 38.7541 71.2168 38.7496C70.3191 38.497 69.3702 38.2868 68.3969 38.1303C68.3325 38.1191 68.2881 38.0588 68.2969 37.9917C68.3081 37.9269 68.3681 37.8799 68.4347 37.8911C69.4169 38.0498 70.3746 38.2622 71.2813 38.5171C71.3457 38.535 71.3813 38.6021 71.3635 38.6669C71.3479 38.7206 71.3013 38.7541 71.2479 38.7541H71.2502ZM56.8797 38.4679C56.8241 38.4679 56.773 38.4277 56.7619 38.3718C56.7486 38.3069 56.7908 38.2421 56.8552 38.2287C57.8063 38.032 58.7729 37.871 59.7284 37.757C59.7951 37.7502 59.8529 37.7972 59.8618 37.862C59.8706 37.9291 59.8218 37.9872 59.7573 37.9962C58.8085 38.1102 57.8485 38.2689 56.9041 38.4657C56.8952 38.4657 56.8886 38.4679 56.8797 38.4679ZM75.2011 38.1572C75.1611 38.1572 75.1233 38.137 75.0989 38.1013C75.0633 38.0454 75.0789 37.9716 75.1344 37.9336C75.8988 37.444 76.7544 36.9633 77.6788 36.5049C77.7388 36.4759 77.8099 36.5005 77.8388 36.5608C77.8676 36.6212 77.8432 36.6927 77.7832 36.7218C76.8677 37.1757 76.0188 37.6519 75.2633 38.137C75.2433 38.1504 75.2211 38.1549 75.1989 38.1549L75.2011 38.1572ZM65.5348 37.8128C65.5348 37.8128 65.5304 37.8128 65.5282 37.8128C64.5816 37.7547 63.6083 37.7435 62.6394 37.7748C62.5794 37.7748 62.5172 37.7257 62.515 37.6586C62.5127 37.5915 62.5639 37.5356 62.6305 37.5334C63.606 37.5021 64.5882 37.5155 65.5415 37.5736C65.6082 37.5781 65.6571 37.634 65.6548 37.7011C65.6504 37.7659 65.5971 37.8151 65.5348 37.8151V37.8128ZM80.3853 35.5503C80.3386 35.5503 80.292 35.5212 80.2742 35.4743C80.2498 35.4117 80.2786 35.3424 80.3409 35.3178C81.1675 34.9824 82.0563 34.6448 83.063 34.2871C83.1252 34.2647 83.1941 34.2983 83.2163 34.3609C83.2385 34.4235 83.2052 34.4928 83.143 34.5151C82.1408 34.8706 81.2542 35.206 80.432 35.5413C80.4164 35.548 80.4031 35.5503 80.3875 35.5503H80.3853ZM85.854 33.5873C85.8029 33.5873 85.7562 33.556 85.7406 33.5046C85.7206 33.442 85.754 33.3727 85.8184 33.3525C86.4006 33.1603 86.9806 32.9725 87.5606 32.7847L88.5805 32.4538C88.645 32.4337 88.7116 32.4672 88.7316 32.532C88.7516 32.5946 88.7183 32.6639 88.6538 32.6841L87.6339 33.015C87.0539 33.2028 86.4739 33.3928 85.8917 33.5828C85.8784 33.5873 85.8673 33.5895 85.854 33.5895V33.5873ZM91.3737 31.7652C91.3248 31.7652 91.2782 31.7339 91.2604 31.6847C91.2382 31.6221 91.2715 31.5528 91.3337 31.5304C92.3581 31.1749 93.247 30.8463 94.0536 30.5266C94.1158 30.502 94.1847 30.5333 94.2092 30.5936C94.2336 30.6562 94.2025 30.7256 94.1425 30.7502C93.3336 31.0721 92.4403 31.403 91.4115 31.7585C91.3982 31.7629 91.3848 31.7652 91.3715 31.7652H91.3737ZM96.7557 29.5853C96.7113 29.5853 96.6691 29.5607 96.649 29.5183C96.6202 29.4579 96.6446 29.3864 96.7046 29.3573C97.6512 28.8878 98.469 28.416 99.2067 27.9152C99.2623 27.8772 99.3356 27.8929 99.3734 27.9465C99.4112 28.0024 99.3956 28.0762 99.3423 28.1142C98.5956 28.6217 97.769 29.0979 96.8135 29.5719C96.7957 29.5809 96.7779 29.5853 96.7602 29.5853H96.7557ZM101.489 26.2697C101.46 26.2697 101.429 26.2586 101.407 26.2362C101.358 26.1915 101.356 26.1132 101.402 26.0663C102.08 25.3397 102.624 24.5482 103.015 23.7143C103.044 23.6539 103.115 23.6271 103.175 23.6562C103.235 23.6852 103.26 23.7568 103.233 23.8171C102.829 24.6756 102.273 25.4872 101.578 26.2317C101.553 26.2563 101.522 26.2697 101.491 26.2697H101.489ZM103.904 21.1007C103.904 21.1007 103.895 21.1007 103.891 21.1007C103.824 21.094 103.778 21.0336 103.787 20.9666C103.811 20.7631 103.829 20.5529 103.84 20.3428C103.855 20.0365 103.864 19.7302 103.864 19.4306C103.864 18.9723 103.844 18.5184 103.804 18.0802C103.798 18.0132 103.847 17.955 103.913 17.9483C103.98 17.9416 104.038 17.9908 104.044 18.0579C104.084 18.5028 104.104 18.9656 104.104 19.4306C104.104 19.7347 104.095 20.0454 104.08 20.3562C104.069 20.5708 104.051 20.7877 104.027 20.9956C104.02 21.0582 103.967 21.1029 103.907 21.1029L103.904 21.1007ZM103.358 15.337C103.307 15.337 103.26 15.3034 103.244 15.2542C102.951 14.3354 102.547 13.4567 102.044 12.6407C102.009 12.5848 102.027 12.5088 102.082 12.4752C102.138 12.4395 102.213 12.4573 102.247 12.5132C102.76 13.3449 103.171 14.2437 103.471 15.1805C103.491 15.2431 103.458 15.3124 103.393 15.3325C103.38 15.337 103.369 15.3392 103.355 15.3392L103.358 15.337ZM100.349 10.4183C100.318 10.4183 100.287 10.4072 100.264 10.3826C99.6156 9.72527 98.8712 9.10597 98.049 8.54256C97.9934 8.50455 97.9801 8.43077 98.0179 8.37488C98.0557 8.31899 98.129 8.30557 98.1845 8.34358C99.0178 8.91593 99.7756 9.54641 100.436 10.2127C100.482 10.2596 100.482 10.3356 100.436 10.3826C100.411 10.4049 100.382 10.4183 100.351 10.4183H100.349ZM95.6047 7.10722C95.5869 7.10722 95.5691 7.10275 95.5513 7.09604C94.7225 6.69137 93.827 6.318 92.8848 5.98488C92.8225 5.96252 92.7892 5.89321 92.8114 5.83061C92.8337 5.76801 92.9025 5.73447 92.9648 5.75683C93.9158 6.09219 94.8202 6.47003 95.658 6.87917C95.718 6.90824 95.7424 6.97978 95.7135 7.04014C95.6935 7.08262 95.6491 7.10722 95.6047 7.10722ZM90.1449 5.15318C90.1449 5.15318 90.1249 5.15318 90.116 5.14871C89.2116 4.91843 88.2583 4.71721 87.285 4.5473C87.2206 4.53612 87.1761 4.47352 87.1872 4.40868C87.1983 4.34384 87.2606 4.29913 87.325 4.31031C88.305 4.48246 89.2649 4.68591 90.1738 4.91619C90.2382 4.93184 90.276 4.99892 90.2604 5.06375C90.2471 5.11741 90.1982 5.15542 90.1449 5.15542V5.15318Z" fill="#C8CBE3"/>
<path d="M84.3719 4.1383C84.3719 4.1383 84.363 4.1383 84.3586 4.1383C83.8875 4.08688 83.4053 4.04216 82.9297 4.00639C82.8631 4.00192 82.8142 3.94379 82.8186 3.87672C82.8231 3.80965 82.8786 3.76046 82.9475 3.76493C83.4253 3.80294 83.9097 3.84765 84.383 3.89907C84.4497 3.90578 84.4963 3.96615 84.4897 4.03098C84.483 4.09358 84.4319 4.1383 84.3697 4.1383H84.3719Z" fill="#C8CBE3"/>
<path d="M84.9812 4.35959L81.208 4.07341L82.5924 2.31836L84.9812 4.35959Z" fill="#C8CBE3"/>
<path d="M81.4188 4.71503L76.7412 2.60449L82.8187 3.15672L81.4188 4.71503Z" fill="#C8CBE3"/>
<path d="M76.7368 2.59801L84.7187 0.123047L83.4121 1.72384L76.7368 2.59801Z" fill="#C8CBE3"/>
<path d="M76.7412 2.60498L82.8298 3.17509L84.9808 4.36003L83.4165 1.69727L76.7412 2.60498Z" fill="#969BC5"/>
<path d="M249.483 74.7994C249.549 74.7994 249.603 74.7457 249.603 74.6786C249.603 74.6742 249.603 74.142 249.523 73.2254C249.518 73.1583 249.463 73.1091 249.394 73.1158C249.327 73.1226 249.278 73.1807 249.285 73.2455C249.363 74.151 249.363 74.6742 249.363 74.6809C249.363 74.7479 249.416 74.8016 249.483 74.8016V74.7994Z" fill="#3A67B3"/>
<path d="M248.914 70.3578C248.756 69.4143 248.558 68.4529 248.329 67.5072C248.314 67.4424 248.354 67.3775 248.418 67.3619C248.483 67.3462 248.547 67.3865 248.563 67.4513C248.794 68.4038 248.991 69.3696 249.151 70.3198C249.162 70.3846 249.118 70.4472 249.054 70.4584C249.047 70.4584 249.04 70.4584 249.034 70.4584C248.976 70.4584 248.925 70.4159 248.916 70.3578H248.914ZM247.547 64.7036C247.254 63.7802 246.927 62.8569 246.574 61.9626C246.549 61.9 246.578 61.8307 246.64 61.8061C246.703 61.7815 246.771 61.8106 246.796 61.8732C247.151 62.7742 247.483 63.702 247.776 64.6298C247.796 64.6924 247.76 64.7617 247.698 64.7819C247.687 64.7863 247.674 64.7886 247.663 64.7886C247.611 64.7886 247.565 64.755 247.549 64.7036H247.547ZM245.407 59.2976C244.987 58.4234 244.532 57.5582 244.054 56.7265C244.021 56.6684 244.041 56.5946 244.098 56.5611C244.156 56.5275 244.229 56.5476 244.263 56.6058C244.745 57.4442 245.203 58.3139 245.625 59.1925C245.654 59.2529 245.629 59.3244 245.569 59.3535C245.552 59.3624 245.534 59.3647 245.518 59.3647C245.474 59.3647 245.432 59.3401 245.409 59.2976H245.407ZM242.512 54.2672C241.969 53.469 241.39 52.6843 240.787 51.9308C240.745 51.8794 240.754 51.8034 240.805 51.7609C240.856 51.7184 240.932 51.7274 240.974 51.7788C241.578 52.5345 242.163 53.3259 242.709 54.1286C242.747 54.1845 242.734 54.2582 242.678 54.2962C242.658 54.3097 242.634 54.3164 242.612 54.3164C242.574 54.3164 242.536 54.2985 242.512 54.2627V54.2672ZM238.89 49.7376C238.234 49.0356 237.541 48.3492 236.83 47.6986C236.781 47.6539 236.776 47.5779 236.821 47.5287C236.865 47.4795 236.941 47.475 236.99 47.5197C237.705 48.1748 238.403 48.8656 239.063 49.5721C239.107 49.6213 239.105 49.6973 239.059 49.7421C239.036 49.7644 239.005 49.7756 238.976 49.7756C238.945 49.7756 238.912 49.7622 238.89 49.7376ZM198.88 48.1278C198.825 48.0898 198.811 48.0161 198.849 47.9602C198.887 47.9043 198.96 47.8909 199.016 47.9289C199.898 48.5325 200.769 48.8366 201.602 48.8366H201.649C201.72 48.8299 201.769 48.888 201.771 48.9551C201.771 49.0221 201.72 49.0758 201.653 49.078H201.602C200.72 49.078 199.805 48.7583 198.88 48.1278ZM204.096 47.8081C204.044 47.7657 204.038 47.6896 204.08 47.6382C204.644 46.9541 204.998 46.024 205.071 45.0224C205.076 44.9553 205.131 44.9039 205.2 44.9106C205.267 44.9151 205.316 44.9732 205.311 45.0403C205.233 46.0933 204.862 47.0703 204.264 47.7925C204.24 47.8215 204.207 47.835 204.171 47.835C204.144 47.835 204.118 47.826 204.096 47.8081ZM196.936 45.9256C196.811 45.5925 196.749 45.2482 196.749 44.8994C196.749 44.2846 196.94 43.6586 197.32 43.0371C197.356 42.9812 197.429 42.9633 197.485 42.9968C197.54 43.0326 197.558 43.1064 197.525 43.1623C197.169 43.7458 196.989 44.3316 196.989 44.8994C196.989 45.2192 197.047 45.5366 197.16 45.8407C197.183 45.9033 197.151 45.9726 197.089 45.9972C197.076 46.0017 197.06 46.0039 197.047 46.0039C196.998 46.0039 196.954 45.9748 196.934 45.9256H196.936ZM234.619 45.8206C233.865 45.2303 233.079 44.6557 232.277 44.1169C232.221 44.0789 232.208 44.0051 232.243 43.9492C232.281 43.8934 232.354 43.8799 232.41 43.9157C233.217 44.459 234.01 45.0358 234.768 45.6305C234.821 45.6708 234.83 45.7468 234.788 45.8004C234.763 45.8317 234.728 45.8474 234.692 45.8474C234.665 45.8474 234.641 45.8385 234.619 45.8228V45.8206ZM229.817 42.5877C228.977 42.107 228.115 41.6554 227.252 41.244C227.192 41.2149 227.168 41.1434 227.195 41.083C227.223 41.0227 227.295 40.9981 227.355 41.0249C228.221 41.4385 229.09 41.8924 229.934 42.3775C229.992 42.4111 230.012 42.4848 229.979 42.543C229.957 42.581 229.917 42.6033 229.874 42.6033C229.854 42.6033 229.834 42.5989 229.814 42.5877H229.817ZM204.591 42.23C204.229 41.3782 203.684 40.5912 202.973 39.8869C202.927 39.84 202.925 39.7639 202.973 39.717C203.02 39.67 203.096 39.6678 203.142 39.717C203.878 40.4436 204.44 41.2574 204.813 42.1383C204.84 42.1987 204.811 42.2702 204.751 42.297C204.736 42.3037 204.72 42.306 204.704 42.306C204.658 42.306 204.613 42.2792 204.593 42.2322L204.591 42.23ZM199.347 41.1009C199.309 41.0473 199.32 40.9712 199.374 40.9332C200.102 40.4078 200.96 39.9249 201.922 39.4979C201.982 39.4711 202.053 39.4979 202.08 39.5605C202.107 39.6209 202.08 39.6924 202.018 39.7192C201.071 40.1396 200.227 40.6135 199.511 41.13C199.489 41.1456 199.467 41.1523 199.442 41.1523C199.405 41.1523 199.369 41.1345 199.345 41.1009H199.347ZM224.595 40.0993C223.692 39.7528 222.773 39.4398 221.855 39.1692C221.79 39.1514 221.755 39.0843 221.773 39.0194C221.79 38.9546 221.857 38.9188 221.921 38.9367C222.844 39.2095 223.77 39.5247 224.679 39.8735C224.741 39.8981 224.772 39.9674 224.748 40.03C224.73 40.0792 224.684 40.1082 224.637 40.1082C224.624 40.1082 224.608 40.106 224.595 40.0993ZM204.589 38.6662C204.571 38.6014 204.609 38.5365 204.671 38.5164C205.578 38.2593 206.535 38.0491 207.518 37.8904C207.584 37.8792 207.644 37.9239 207.655 37.991C207.667 38.0558 207.622 38.1184 207.555 38.1296C206.582 38.2884 205.633 38.4963 204.736 38.7489C204.724 38.7512 204.713 38.7534 204.702 38.7534C204.649 38.7534 204.602 38.7176 204.587 38.6662H204.589ZM219.05 38.465C218.106 38.2682 217.146 38.1117 216.197 37.9955C216.131 37.9865 216.084 37.9284 216.093 37.8613C216.102 37.7943 216.159 37.7473 216.226 37.7563C217.182 37.8725 218.148 38.0313 219.099 38.228C219.164 38.2414 219.206 38.3062 219.193 38.3711C219.182 38.427 219.13 38.4672 219.075 38.4672C219.066 38.4672 219.059 38.4672 219.05 38.465ZM200.689 38.1386C199.931 37.6534 199.085 37.1772 198.169 36.7233C198.109 36.6943 198.085 36.6205 198.114 36.5624C198.143 36.502 198.216 36.4774 198.274 36.5065C199.198 36.9648 200.054 37.4455 200.818 37.9351C200.873 37.9709 200.889 38.0447 200.854 38.1028C200.831 38.1386 200.791 38.1587 200.751 38.1587C200.729 38.1587 200.707 38.152 200.687 38.1408L200.689 38.1386ZM210.3 37.7004C210.295 37.6333 210.346 37.5774 210.413 37.5729C211.366 37.5148 212.349 37.5014 213.324 37.5327C213.391 37.5327 213.442 37.5908 213.44 37.6579C213.44 37.725 213.375 37.7764 213.315 37.7741C212.346 37.7428 211.373 37.7563 210.426 37.8121C210.424 37.8121 210.422 37.8121 210.42 37.8121C210.358 37.8121 210.304 37.763 210.3 37.6981V37.7004ZM195.525 35.5406C194.703 35.2053 193.816 34.8699 192.814 34.5144C192.752 34.4921 192.718 34.4228 192.741 34.3602C192.763 34.2976 192.832 34.264 192.894 34.2864C193.9 34.6441 194.789 34.9795 195.616 35.3171C195.678 35.3417 195.707 35.4132 195.683 35.4736C195.665 35.5205 195.618 35.5496 195.572 35.5496C195.556 35.5496 195.54 35.5473 195.527 35.5406H195.525ZM190.063 33.5799C189.483 33.3899 188.901 33.1998 188.321 33.012L187.301 32.6811C187.239 32.661 187.203 32.5917 187.223 32.5291C187.243 32.4665 187.31 32.4307 187.374 32.4508L188.394 32.7817C188.974 32.9695 189.556 33.1596 190.136 33.3496C190.198 33.3697 190.234 33.439 190.214 33.5016C190.198 33.5531 190.15 33.5844 190.101 33.5844C190.087 33.5844 190.076 33.5844 190.063 33.5777V33.5799ZM184.543 31.7578C183.516 31.4023 182.623 31.0714 181.812 30.7495C181.75 30.7249 181.721 30.6556 181.745 30.593C181.77 30.5303 181.839 30.5013 181.901 30.5259C182.708 30.8456 183.596 31.1765 184.621 31.5297C184.683 31.5521 184.716 31.6192 184.694 31.684C184.676 31.7332 184.63 31.7645 184.581 31.7645C184.568 31.7645 184.554 31.7645 184.541 31.7578H184.543ZM179.146 29.5735C178.19 29.0995 177.361 28.6233 176.617 28.1158C176.561 28.0777 176.548 28.004 176.586 27.9481C176.623 27.8922 176.697 27.8788 176.752 27.9168C177.49 28.4176 178.308 28.8893 179.254 29.3588C179.314 29.3879 179.339 29.4617 179.31 29.5198C179.29 29.5623 179.246 29.5869 179.203 29.5869C179.186 29.5869 179.168 29.5824 179.15 29.5735H179.146ZM174.379 26.231C173.684 25.4865 173.126 24.675 172.724 23.8164C172.695 23.7561 172.721 23.6845 172.781 23.6555C172.841 23.6264 172.912 23.6532 172.941 23.7136C173.335 24.5498 173.877 25.3412 174.555 26.0656C174.599 26.1148 174.597 26.1908 174.55 26.2355C174.528 26.2579 174.497 26.269 174.468 26.269C174.437 26.269 174.404 26.2556 174.381 26.231H174.379ZM171.93 20.9927C171.906 20.7848 171.888 20.5679 171.877 20.3533C171.859 20.0425 171.853 19.7317 171.853 19.4277C171.853 18.9626 171.873 18.5021 171.913 18.0549C171.919 17.9879 171.975 17.9387 172.044 17.9454C172.11 17.9521 172.159 18.0102 172.153 18.0773C172.113 18.5155 172.093 18.9716 172.093 19.4277C172.093 19.7273 172.101 20.0336 172.117 20.3399C172.128 20.55 172.146 20.7602 172.17 20.9636C172.177 21.0307 172.13 21.0888 172.066 21.0978C172.061 21.0978 172.057 21.0978 172.053 21.0978C171.993 21.0978 171.941 21.0531 171.933 20.9905L171.93 20.9927ZM172.559 15.3296C172.497 15.3094 172.461 15.2401 172.481 15.1775C172.781 14.2408 173.192 13.3442 173.706 12.5103C173.741 12.4544 173.815 12.4365 173.87 12.4723C173.926 12.5081 173.944 12.5818 173.908 12.6377C173.406 13.4538 173.004 14.3324 172.708 15.2513C172.692 15.3027 172.644 15.334 172.595 15.334C172.584 15.334 172.57 15.334 172.557 15.3273L172.559 15.3296ZM175.521 10.3819C175.475 10.3349 175.475 10.2589 175.521 10.212C176.181 9.54348 176.937 8.91523 177.772 8.34289C177.828 8.30488 177.901 8.31829 177.939 8.37419C177.977 8.43008 177.963 8.50386 177.908 8.54187C177.086 9.10751 176.341 9.72681 175.692 10.3819C175.668 10.4065 175.639 10.4176 175.608 10.4176C175.577 10.4176 175.548 10.4065 175.523 10.3819H175.521ZM180.241 7.03721C180.212 6.97685 180.237 6.90531 180.297 6.87624C181.132 6.4671 182.039 6.08926 182.99 5.7539C183.052 5.73154 183.121 5.76508 183.143 5.82768C183.165 5.89028 183.132 5.95959 183.07 5.98195C182.128 6.31507 181.23 6.68844 180.403 7.09311C180.385 7.10205 180.368 7.10429 180.35 7.10429C180.306 7.10429 180.263 7.07969 180.241 7.03721ZM185.692 5.06082C185.676 4.99599 185.714 4.93115 185.779 4.91326C186.687 4.68298 187.647 4.47953 188.627 4.30738C188.692 4.2962 188.754 4.34091 188.765 4.40575C188.776 4.47059 188.732 4.53319 188.667 4.54437C187.692 4.71428 186.741 4.91773 185.836 5.14578C185.827 5.14802 185.816 5.15025 185.807 5.15025C185.754 5.15025 185.705 5.11448 185.692 5.05859V5.06082Z" fill="#C8CBE3"/>
<path d="M191.583 4.1383C191.583 4.1383 191.592 4.1383 191.596 4.1383C192.067 4.08688 192.549 4.04216 193.025 4.00639C193.092 4.00192 193.14 3.94379 193.136 3.87672C193.132 3.80965 193.076 3.76046 193.007 3.76493C192.529 3.80294 192.045 3.84765 191.572 3.89907C191.505 3.90578 191.458 3.96615 191.465 4.03098C191.472 4.09358 191.523 4.1383 191.585 4.1383H191.583Z" fill="#3A67B3"/>
<path d="M190.974 4.35959L194.747 4.07341L193.363 2.31836L190.974 4.35959Z" fill="#C8CBE3"/>
<path d="M194.536 4.71503L199.214 2.60449L193.136 3.15672L194.536 4.71503Z" fill="#C8CBE3"/>
<path d="M199.218 2.59801L191.236 0.123047L192.543 1.72384L199.218 2.59801Z" fill="#C8CBE3"/>
<path d="M199.214 2.60498L193.125 3.17509L190.974 4.36003L192.539 1.69727L199.214 2.60498Z" fill="#969BC5"/>
<path d="M57.9019 69.8105C57.9375 69.8686 57.9486 69.9401 57.933 70.0094C57.9108 70.1011 57.8441 70.1726 57.753 70.1995L56.8797 70.4566C56.7886 70.4834 56.6953 70.4588 56.6264 70.394C56.5575 70.3291 56.5308 70.2353 56.5531 70.1414L56.7686 69.2515C56.7908 69.1599 56.8575 69.0883 56.9486 69.0615C57.0397 69.0347 57.133 69.0593 57.2019 69.1241L57.8597 69.7568C57.8752 69.7725 57.8908 69.7903 57.9019 69.8082V69.8105ZM56.7597 70.233C56.7597 70.233 56.7664 70.242 56.7686 70.2442C56.7753 70.2509 56.7953 70.2666 56.8219 70.2576L57.6952 70.0005C57.7219 69.9916 57.7308 69.9692 57.733 69.9603C57.7352 69.9513 57.7375 69.9267 57.7175 69.9066L57.0597 69.2739C57.0397 69.2538 57.0153 69.2582 57.0064 69.2605C56.9975 69.2627 56.9753 69.2716 56.9686 69.3007L56.7531 70.1905C56.7486 70.2084 56.7531 70.2218 56.7597 70.233Z" fill="#D94559"/>
<path d="M218.591 19.0634C218.626 19.1215 218.638 19.1931 218.622 19.2624C218.6 19.354 218.533 19.4256 218.442 19.4524L217.569 19.7095C217.478 19.7363 217.384 19.7118 217.315 19.6469C217.246 19.5821 217.22 19.4882 217.242 19.3943L217.458 18.5045C217.48 18.4128 217.546 18.3412 217.638 18.3144C217.729 18.2876 217.822 18.3122 217.891 18.377L218.549 19.0097C218.564 19.0254 218.58 19.0433 218.591 19.0612V19.0634ZM217.449 19.4837C217.449 19.4837 217.455 19.4927 217.458 19.4949C217.464 19.5016 217.484 19.5172 217.511 19.5083L218.384 19.2512C218.411 19.2422 218.42 19.2199 218.422 19.2109C218.424 19.202 218.426 19.1774 218.406 19.1573L217.749 18.5246C217.729 18.5045 217.704 18.5089 217.695 18.5112C217.686 18.5134 217.664 18.5223 217.658 18.5514L217.442 19.4412C217.438 19.4591 217.442 19.4725 217.449 19.4837Z" fill="#D94559"/>
<path d="M59.1507 19.5245L59.4729 19.2003C59.5462 19.1265 59.5462 19.008 59.4729 18.9342C59.3996 18.8605 59.2818 18.8605 59.2085 18.9342L58.8863 19.2584L58.5641 18.9342C58.4907 18.8605 58.373 18.8605 58.2996 18.9342C58.2263 19.008 58.2263 19.1265 58.2996 19.2003L58.6218 19.5245L58.3019 19.8464C58.2285 19.9202 58.2285 20.0387 58.3019 20.1125C58.3374 20.1482 58.3863 20.1684 58.433 20.1684C58.4796 20.1684 58.5285 20.1505 58.5641 20.1125L58.884 19.7905L59.204 20.1125C59.2396 20.1482 59.2885 20.1684 59.3351 20.1684C59.3818 20.1684 59.4307 20.1505 59.4662 20.1125C59.5396 20.0387 59.5396 19.9202 59.4662 19.8464L59.1463 19.5245H59.1507Z" fill="#FFB86B"/>
<path d="M171.081 52.8331L171.404 52.5089C171.477 52.4351 171.477 52.3166 171.404 52.2428C171.33 52.1691 171.212 52.1691 171.139 52.2428L170.817 52.567L170.495 52.2428C170.421 52.1691 170.304 52.1691 170.23 52.2428C170.157 52.3166 170.157 52.4351 170.23 52.5089L170.553 52.8331L170.233 53.155C170.159 53.2288 170.159 53.3473 170.233 53.4211C170.268 53.4568 170.317 53.477 170.364 53.477C170.41 53.477 170.459 53.4591 170.495 53.4211L170.815 53.0991L171.135 53.4211C171.17 53.4568 171.219 53.477 171.266 53.477C171.312 53.477 171.361 53.4591 171.397 53.4211C171.47 53.3473 171.47 53.2288 171.397 53.155L171.077 52.8331H171.081Z" fill="#FFB86B"/>
<path d="M16.3417 54.0781C15.9373 54.0781 15.6084 53.7472 15.6084 53.3403C15.6084 52.9334 15.9373 52.6025 16.3417 52.6025C16.7461 52.6025 17.075 52.9334 17.075 53.3403C17.075 53.7472 16.7461 54.0781 16.3417 54.0781ZM16.3417 52.8328C16.0639 52.8328 15.8373 53.0609 15.8373 53.3403C15.8373 53.6198 16.0639 53.8478 16.3417 53.8478C16.6195 53.8478 16.8461 53.6198 16.8461 53.3403C16.8461 53.0609 16.6195 52.8328 16.3417 52.8328Z" fill="#4E80C2"/>
<path d="M166.002 5.8916C165.597 5.8916 165.269 5.56071 165.269 5.15381C165.269 4.7469 165.597 4.41602 166.002 4.41602C166.406 4.41602 166.735 4.7469 166.735 5.15381C166.735 5.56071 166.406 5.8916 166.002 5.8916ZM166.002 4.6463C165.724 4.6463 165.497 4.87434 165.497 5.15381C165.497 5.43328 165.724 5.66132 166.002 5.66132C166.28 5.66132 166.506 5.43328 166.506 5.15381C166.506 4.87434 166.28 4.6463 166.002 4.6463Z" fill="#4E80C2"/>
<path d="M229.637 67.5107C229.232 67.5107 228.903 67.1799 228.903 66.773C228.903 66.366 229.232 66.0352 229.637 66.0352C230.041 66.0352 230.37 66.366 230.37 66.773C230.37 67.1799 230.041 67.5107 229.637 67.5107ZM229.637 66.2654C229.359 66.2654 229.132 66.4935 229.132 66.773C229.132 67.0524 229.359 67.2805 229.637 67.2805C229.914 67.2805 230.141 67.0524 230.141 66.773C230.141 66.4935 229.914 66.2654 229.637 66.2654Z" fill="#4E80C2"/>
<path d="M104.104 45.3672C103.7 45.3672 103.371 45.0363 103.371 44.6294C103.371 44.2225 103.7 43.8916 104.104 43.8916C104.509 43.8916 104.838 44.2225 104.838 44.6294C104.838 45.0363 104.509 45.3672 104.104 45.3672ZM104.104 44.1219C103.827 44.1219 103.6 44.3499 103.6 44.6294C103.6 44.9089 103.827 45.1369 104.104 45.1369C104.382 45.1369 104.609 44.9089 104.609 44.6294C104.609 44.3499 104.382 44.1219 104.104 44.1219Z" fill="#4E80C2"/>
</g>
<defs>
<clipPath id="clip0_3004_1756">
<rect width="259" height="124.875" fill="white"/>
</clipPath>
</defs>
</svg>
