<svg width="26" height="26" viewBox="0 0 26 26" fill="none" xmlns="http://www.w3.org/2000/svg">
<circle cx="13" cy="13" r="13" fill="#E86F00"/>
<g clip-path="url(#clip0_91_935)">
<path d="M13.0006 13.2699C15.0006 13.2699 16.6355 11.6349 16.6355 9.63493C16.6355 7.63491 15.0006 6 13.0006 6C11.0006 6 9.36567 7.63491 9.36567 9.63493C9.36567 11.6349 11.0006 13.2699 13.0006 13.2699Z" fill="white"/>
<path d="M19.2387 16.174C19.1434 15.9359 19.0165 15.7137 18.8736 15.5074C18.1434 14.428 17.0165 13.7137 15.7466 13.5391C15.5879 13.5232 15.4133 13.555 15.2863 13.6502C14.6196 14.1423 13.826 14.3962 13.0006 14.3962C12.1752 14.3962 11.3815 14.1423 10.7149 13.6502C10.5879 13.555 10.4133 13.5073 10.2546 13.5391C8.98471 13.7137 7.84186 14.428 7.12758 15.5074C6.98473 15.7137 6.85773 15.9518 6.76251 16.174C6.71491 16.2693 6.73077 16.3804 6.77837 16.4756C6.90537 16.6978 7.06409 16.9201 7.20694 17.1106C7.42915 17.4122 7.66726 17.682 7.93711 17.9359C8.15932 18.1582 8.41329 18.3645 8.66728 18.5709C9.92123 19.5074 11.4292 19.9994 12.9847 19.9994C14.5403 19.9994 16.0482 19.5074 17.3022 18.5709C17.5562 18.3804 17.8101 18.1582 18.0324 17.9359C18.2863 17.682 18.5403 17.4121 18.7625 17.1106C18.9212 16.9042 19.0641 16.6978 19.1911 16.4756C19.2704 16.3804 19.2863 16.2692 19.2387 16.174Z" fill="white"/>
</g>
<defs>
<clipPath id="clip0_91_935">
<rect x="5.99959" y="6" width="14" height="14" rx="7" fill="white"/>
</clipPath>
</defs>
</svg>
