<svg width="164" height="143" viewBox="0 0 164 143" fill="none" xmlns="http://www.w3.org/2000/svg">
<path d="M22.5 105C23.3284 105 24 104.552 24 104C24 103.448 23.3284 103 22.5 103C21.6716 103 21 103.448 21 104C21 104.552 21.6716 105 22.5 105Z" fill="#CFCFCF"/>
<path d="M110.485 48.4246C98.8453 48.4246 86.9974 47.9559 75.9144 44.8954C65.0399 41.9039 55.0554 36.1 46.1556 29.3863C40.329 25.0162 35.0308 21.5283 27.466 22.0522C20.0653 22.4492 12.9882 25.1889 7.2745 29.8688C-2.34843 38.2231 -0.902209 53.7046 2.94974 64.5403C8.73463 80.9042 26.3396 92.3051 41.3024 99.6806C58.5875 108.242 77.5831 113.218 96.6204 116.072C113.308 118.595 134.751 120.415 149.213 109.62C162.493 99.6806 166.136 77.0166 162.882 61.7142C162.093 57.1936 159.665 53.1147 156.054 50.2444C146.724 43.4755 132.804 47.9973 122.319 48.2178C118.425 48.3006 114.462 48.3971 110.485 48.4246Z" fill="#F2F2F2"/>
<path d="M86.5 118C95.0604 118 102 111.06 102 102.5C102 93.9396 95.0604 87 86.5 87C77.9396 87 71 93.9396 71 102.5C71 111.06 77.9396 118 86.5 118Z" fill="#3EBF80"/>
<path d="M70.0248 4.80612C70.8904 4.61312 71.7854 4.5925 72.6589 4.74542C73.5325 4.89835 74.3673 5.22182 75.1158 5.69739C75.8643 6.17295 76.5118 6.79128 77.0213 7.51708C77.5309 8.24288 77.8925 9.06193 78.0855 9.92748L80.5872 21.1471L67.3781 24.0924L64.8764 12.8728C64.6829 12.005 64.6627 11.1075 64.8169 10.2318C64.9711 9.35615 65.2967 8.51957 65.7751 7.77008C66.2534 7.02058 66.8751 6.37293 67.6044 5.8643C68.3336 5.35566 69.1562 4.99606 70.0248 4.80612Z" fill="white" stroke="#BABABA" stroke-linecap="round" stroke-linejoin="round"/>
<path d="M131.746 92.9267L51.7233 110.928C51.2262 111.041 50.7087 111.021 50.2217 110.87C49.7347 110.719 49.2951 110.442 48.9462 110.068C48.5973 109.693 48.3512 109.233 48.2322 108.733C48.1132 108.233 48.1253 107.71 48.2674 107.216L48.5992 106.058C51.3639 96.1642 53.7691 85.2656 51.5574 75.2182L46.8298 53.7839C42.8487 35.7684 53.548 17.418 71.2971 12.9944C75.6252 11.9098 80.1244 11.71 84.5301 12.4069C88.9358 13.1038 93.1589 14.6833 96.9509 17.0524C100.743 19.4215 104.027 22.5324 106.61 26.2019C109.194 29.8715 111.024 34.0256 111.993 38.4198L116.873 60.5798C119.098 70.6272 125.816 79.5023 132.534 87.2332L133.322 88.1403C133.641 88.5287 133.857 88.9927 133.949 89.4886C134.042 89.9845 134.007 90.496 133.85 90.9748C133.692 91.4536 133.416 91.8841 133.048 92.2255C132.68 92.567 132.232 92.8083 131.746 92.9267Z" fill="white" stroke="#BABABA" stroke-linecap="round" stroke-linejoin="round"/>
<path d="M72.0003 79C71.9784 75.8219 73.065 72.7324 75.0791 70.2458C77.0931 67.7592 79.9132 66.0256 83.0697 65.3336C86.2261 64.6417 89.5286 65.0331 92.4271 66.4428C95.3256 67.8524 97.6453 70.1953 99 73.0812" stroke="#BABABA" stroke-linecap="round" stroke-linejoin="round"/>
<path d="M97 57C98.1046 57 99 56.1046 99 55C99 53.8954 98.1046 53 97 53C95.8954 53 95 53.8954 95 55C95 56.1046 95.8954 57 97 57Z" fill="#BABABA"/>
<path d="M67 63C68.1046 63 69 62.1046 69 61C69 59.8954 68.1046 59 67 59C65.8954 59 65 59.8954 65 61C65 62.1046 65.8954 63 67 63Z" fill="#BABABA"/>
<path d="M103.5 3C104.328 3 105 2.32843 105 1.5C105 0.671572 104.328 0 103.5 0C102.672 0 102 0.671572 102 1.5C102 2.32843 102.672 3 103.5 3Z" fill="#CFCFCF"/>
<path d="M22.5 105C23.3284 105 24 104.552 24 104C24 103.448 23.3284 103 22.5 103C21.6716 103 21 103.448 21 104C21 104.552 21.6716 105 22.5 105Z" fill="#CFCFCF"/>
<path d="M141 34V40" stroke="#BABABA" stroke-linecap="round" stroke-linejoin="round"/>
<path d="M138 37H144" stroke="#BABABA" stroke-linecap="round" stroke-linejoin="round"/>
<path d="M144 124V130" stroke="#BABABA" stroke-linecap="round" stroke-linejoin="round"/>
<path d="M141 127H147" stroke="#BABABA" stroke-linecap="round" stroke-linejoin="round"/>
<path d="M39 12V18" stroke="#BABABA" stroke-linecap="round" stroke-linejoin="round"/>
<path d="M36 15H42" stroke="#BABABA" stroke-linecap="round" stroke-linejoin="round"/>
<path d="M82.5 143C110.39 143 133 141.657 133 140C133 138.343 110.39 137 82.5 137C54.6096 137 32 138.343 32 140C32 141.657 54.6096 143 82.5 143Z" fill="#F2F2F2"/>
<path d="M131 30.7436C130.996 34.9139 129.309 38.9123 126.31 41.8611C123.31 44.81 119.242 46.4682 115 46.4718C114.478 46.4718 113.957 46.4443 113.438 46.3896L108.695 54L107.216 44.4698C104.752 43.121 102.694 41.1559 101.252 38.7736C99.809 36.3913 99.0326 33.6765 99.001 30.9042C98.9694 28.1319 99.6839 25.4007 101.072 22.9872C102.46 20.5738 104.473 18.5639 106.905 17.1613C109.338 15.7587 112.105 15.0131 114.925 15.0002C117.746 14.9872 120.519 15.7074 122.965 17.0876C125.411 18.4678 127.443 20.4591 128.854 22.8597C130.265 25.2603 131.005 27.9848 131 30.7573V30.7436Z" fill="white" stroke="#BABABA" stroke-linecap="round" stroke-linejoin="round"/>
<path d="M108.5 32C109.328 32 110 31.3284 110 30.5C110 29.6716 109.328 29 108.5 29C107.672 29 107 29.6716 107 30.5C107 31.3284 107.672 32 108.5 32Z" fill="#D2D2D2" stroke="#D2D2D2" stroke-miterlimit="10"/>
<path d="M115.5 32C116.328 32 117 31.3284 117 30.5C117 29.6716 116.328 29 115.5 29C114.672 29 114 29.6716 114 30.5C114 31.3284 114.672 32 115.5 32Z" fill="#D2D2D2" stroke="#D2D2D2" stroke-miterlimit="10"/>
<path d="M122 32C123.105 32 124 31.3284 124 30.5C124 29.6716 123.105 29 122 29C120.895 29 120 29.6716 120 30.5C120 31.3284 120.895 32 122 32Z" fill="#D2D2D2" stroke="#D2D2D2" stroke-miterlimit="10"/>
</svg>
