<svg width="131" height="115" viewBox="0 0 131 115" fill="none" xmlns="http://www.w3.org/2000/svg">
<path d="M65.0366 89.9931C65.6335 89.9931 66.1174 89.5092 66.1174 88.9123C66.1174 88.3154 65.6335 87.8315 65.0366 87.8315C64.4397 87.8315 63.9558 88.3154 63.9558 88.9123C63.9558 89.5092 64.4397 89.9931 65.0366 89.9931Z" fill="#CFCFCF"/>
<path d="M33.6382 8.62451V13.3668" stroke="#BABABA" stroke-linecap="round" stroke-linejoin="round"/>
<path d="M31.2563 10.9956H36.0096" stroke="#BABABA" stroke-linecap="round" stroke-linejoin="round"/>
<path opacity="0.67" d="M87.6231 38.5339C78.3922 38.5339 68.9959 38.1589 60.2061 35.7106C51.5818 33.3174 43.6633 28.6744 36.605 23.3035C31.9841 19.8074 27.7822 17.0172 21.7827 17.4363C15.9134 17.7539 10.3007 19.9456 5.76926 23.6895C-1.86249 30.3728 -0.715523 42.7578 2.33938 51.4263C6.92725 64.5171 20.8894 73.6377 32.7561 79.538C46.4646 86.3867 61.5295 90.368 76.6276 92.6509C89.8618 94.6691 106.868 96.1249 118.338 87.4896C128.87 79.538 131.759 61.4071 129.179 49.1654C128.552 45.549 126.627 42.2859 123.764 39.9897C116.363 34.5746 105.324 38.192 97.0083 38.3685C93.9203 38.4346 90.7772 38.5118 87.6231 38.5339Z" fill="#F2F2F2"/>
<path d="M72.6904 2.16159C73.2873 2.16159 73.7712 1.6777 73.7712 1.0808C73.7712 0.483889 73.2873 0 72.6904 0C72.0935 0 71.6096 0.483889 71.6096 1.0808C71.6096 1.6777 72.0935 2.16159 72.6904 2.16159Z" fill="#CFCFCF"/>
<path d="M16.5332 86.3203V91.0626" stroke="#BABABA" stroke-linecap="round" stroke-linejoin="round"/>
<path d="M14.1621 88.6914H18.9044" stroke="#BABABA" stroke-linecap="round" stroke-linejoin="round"/>
<path opacity="0.45" d="M65.4777 114.113C87.8374 114.113 105.963 112.982 105.963 111.587C105.963 110.192 87.8374 109.062 65.4777 109.062C43.118 109.062 24.9919 110.192 24.9919 111.587C24.9919 112.982 43.118 114.113 65.4777 114.113Z" fill="#F2F2F2"/>
<path d="M98.0226 84.5338H28.0907C27.6227 84.5335 27.1603 84.4315 26.7356 84.2349C26.3109 84.0383 25.9339 83.7518 25.6308 83.3952C25.3277 83.0386 25.1057 82.6205 24.9801 82.1696C24.8545 81.7188 24.8283 81.246 24.9034 80.7841L33.8476 26.5458C33.9684 25.7909 34.3547 25.1039 34.937 24.6086C35.5193 24.1133 36.2593 23.842 37.0238 23.8438H106.956C107.423 23.8438 107.885 23.9457 108.31 24.1424C108.734 24.3391 109.11 24.6258 109.413 24.9826C109.715 25.3395 109.936 25.7579 110.06 26.2088C110.184 26.6596 110.209 27.1322 110.132 27.5935L101.232 81.8318C101.108 82.5914 100.716 83.2815 100.128 83.7771C99.5389 84.2728 98.7922 84.5412 98.0226 84.5338Z" fill="#D2D2D2"/>
<path d="M98.8845 22.4251L57.3744 3.89152C56.1508 3.34522 54.7161 3.89425 54.1698 5.11783L41.0137 34.5837C40.4674 35.8073 41.0164 37.2421 42.24 37.7884L83.7501 56.322C84.9736 56.8683 86.4084 56.3192 86.9547 55.0957L100.111 25.6298C100.657 24.4062 100.108 22.9714 98.8845 22.4251Z" fill="white" stroke="#BABABA" stroke-linecap="round" stroke-linejoin="round"/>
<path d="M63.4592 28.1336C64.5519 26.6005 66.1409 25.4923 67.9572 24.9968C69.7735 24.5012 71.7052 24.6489 73.425 25.4147C75.1449 26.1805 76.547 27.5174 77.394 29.1988C78.2409 30.8802 78.4804 32.8027 78.072 34.6405" stroke="#BABABA" stroke-width="0.68" stroke-linecap="round" stroke-linejoin="round"/>
<path d="M83.311 26.4687C83.9383 26.4687 84.4469 25.9601 84.4469 25.3327C84.4469 24.7054 83.9383 24.1968 83.311 24.1968C82.6836 24.1968 82.175 24.7054 82.175 25.3327C82.175 25.9601 82.6836 26.4687 83.311 26.4687Z" fill="#BABABA"/>
<path d="M66.8564 19.1234C67.4838 19.1234 67.9923 18.6149 67.9923 17.9875C67.9923 17.3601 67.4838 16.8516 66.8564 16.8516C66.229 16.8516 65.7205 17.3601 65.7205 17.9875C65.7205 18.6149 66.229 19.1234 66.8564 19.1234Z" fill="#BABABA"/>
<path d="M97.7143 84.5116H27.4405C26.5854 84.5086 25.7663 84.1669 25.1627 83.5612C24.5591 82.9555 24.2202 82.1353 24.2202 81.2802V31.729C24.2099 31.2991 24.2855 30.8715 24.4426 30.4712C24.5997 30.0709 24.8351 29.7061 25.135 29.3979C25.4349 29.0898 25.7933 28.8446 26.1892 28.6768C26.5851 28.5089 27.0105 28.4218 27.4405 28.4204H53.0377C53.6317 28.4226 54.2136 28.5884 54.7194 28.8997C55.2253 29.211 55.6355 29.6557 55.9052 30.185L59.5556 37.3315C59.8242 37.8615 60.2343 38.3069 60.7403 38.6183C61.2464 38.9298 61.8288 39.0951 62.423 39.096H97.7143C98.5684 39.096 99.3875 39.4353 99.9915 40.0392C100.595 40.6432 100.935 41.4623 100.935 42.3164V81.2802C100.935 82.1353 100.596 82.9555 99.9921 83.5612C99.3885 84.1669 98.5694 84.5086 97.7143 84.5116Z" fill="white" stroke="#BABABA" stroke-linecap="round" stroke-linejoin="round"/>
<path d="M86.8948 40.7837C82.835 40.7815 78.8658 41.9834 75.4892 44.2373C72.1126 46.4912 69.4802 49.6958 67.9251 53.4459C66.37 57.196 65.962 61.3231 66.7526 65.3051C67.5433 69.2871 69.4972 72.9452 72.3671 75.8166C75.237 78.6881 78.894 80.6439 82.8756 81.4367C86.8572 82.2296 90.9845 81.8238 94.7354 80.2707C98.4864 78.7176 101.692 76.0869 103.948 72.7115C106.204 69.3361 107.408 65.3676 107.408 61.3078C107.408 55.8664 105.247 50.6477 101.4 46.799C97.5537 42.9503 92.3362 40.7866 86.8948 40.7837Z" fill="white" stroke="#BABABA" stroke-linecap="round" stroke-linejoin="round"/>
<path d="M101.497 76.1963L106.967 81.6664" stroke="#BABABA" stroke-linecap="round" stroke-linejoin="round"/>
<path d="M106.349 79.0088L104.649 80.7866C103.887 81.5835 103.916 82.8471 104.713 83.6089L119.461 97.7074C120.258 98.4692 121.521 98.4407 122.283 97.6438L123.983 95.8661C124.744 95.0692 124.716 93.8056 123.919 93.0438L109.171 78.9453C108.374 78.1835 107.11 78.2119 106.349 79.0088Z" fill="#3EBF80"/>
<path d="M117.268 1.08057V5.83387" stroke="#BABABA" stroke-linecap="round" stroke-linejoin="round"/>
<path d="M114.885 3.46289H119.639" stroke="#BABABA" stroke-linecap="round" stroke-linejoin="round"/>
</svg>
