<svg width="73" height="73" viewBox="0 0 73 73" fill="none" xmlns="http://www.w3.org/2000/svg">
<path d="M49.0469 45.0547V70.1484H37.6406V56.4609H35.3594V70.1484H23.9531V45.0547H49.0469Z" fill="#232323"/>
<path d="M23.9531 45.0547L22.9897 45.4397C19.9145 46.6696 16.5214 46.8598 13.3279 45.9814L12.5469 45.7676L13.9584 47.0023C16.7252 49.4232 20.2767 50.7577 23.9531 50.7578L27.3764 45.0547H23.9531Z" fill="black"/>
<path d="M60.7312 19.5246L59.3311 26.2372L49.0469 24.5234V45.0547H23.9531V24.5234L13.669 26.2372L12.2689 19.5246L22.4062 17.9235C23.4357 17.7611 24.4764 17.6796 25.5186 17.6797H47.4814C48.5236 17.6796 49.5643 17.7611 50.5939 17.9235L60.7312 19.5246Z" fill="#3EBF80"/>
<path d="M14.84 45.0906L15.2962 46.9172C15.3097 46.971 15.3107 47.0273 15.2991 47.0816C15.2876 47.136 15.2638 47.1869 15.2295 47.2307C15.1953 47.2744 15.1515 47.3098 15.1015 47.334C15.0516 47.3583 14.9967 47.3708 14.9412 47.3707C14.4812 47.3695 14.0381 47.1975 13.6979 46.8879L12.5583 45.8505V50.3831C12.5584 50.5028 12.5207 50.6195 12.4505 50.7166C12.3803 50.8136 12.2813 50.886 12.1676 50.9235L9.70814 51.7433C9.63463 51.768 9.55683 51.7775 9.47954 51.771C9.40225 51.7645 9.32709 51.7423 9.25871 51.7057C9.19032 51.6691 9.13015 51.6189 9.0819 51.5582C9.03365 51.4975 8.99834 51.4275 8.97814 51.3526L2.49697 27.5863C2.28323 26.8039 2.23691 25.9852 2.36103 25.1837C2.48516 24.3821 2.77694 23.6158 3.21733 22.9347C3.65772 22.2536 4.2368 21.6731 4.91679 21.231C5.59677 20.7888 6.36235 20.4951 7.16355 20.369L12.2807 19.5605L13.6808 26.2731L10.2775 26.8406L14.84 45.0906Z" fill="#FFEDAE"/>
<path d="M38.7834 17.6797L38.7924 11.9766H34.2188V17.6797L36.5 19.3906L38.7834 17.6797Z" fill="#FFB3D0"/>
<path d="M35.9297 13.1172H38.7812V16.5391C38.025 16.5391 37.2997 16.2386 36.7649 15.7039C36.2301 15.1691 35.9297 14.4438 35.9297 13.6875V13.1172Z" fill="#E67199"/>
<path d="M34.2188 6.39453H41.0625V13.1172C41.0625 13.7223 40.8222 14.3025 40.3943 14.7303C39.9665 15.1581 39.3863 15.3985 38.7812 15.3985C37.5712 15.3985 36.4107 14.9178 35.5551 14.0622C34.6994 13.2065 34.2188 12.046 34.2188 10.836V6.39453Z" fill="#FFB3D0"/>
<path d="M43.3438 5.13281V6.76148C43.3438 7.14865 43.2672 7.53199 43.1185 7.88946C42.9699 8.24694 42.752 8.57149 42.4774 8.84446C42.2028 9.11742 41.877 9.3334 41.5187 9.47999C41.1603 9.62657 40.7765 9.70087 40.3894 9.69859C40.0796 9.69671 39.7722 9.64585 39.4783 9.54789L36.5 8.55469C36.5 9.31097 36.1996 10.0363 35.6648 10.571C35.13 11.1058 34.4047 11.4062 33.6484 11.4062H33.0781V7.62693C33.0782 6.66295 33.4611 5.73846 34.1428 5.05682C34.8244 4.37518 35.7489 3.99223 36.7129 3.99219C37.2557 3.99239 37.7916 4.11419 38.2812 4.34863L39.1776 4.77751C39.6672 5.01192 40.2031 5.13371 40.746 5.13395L43.3438 5.13281Z" fill="#2A2A2A"/>
<path d="M34.7891 13.1172C35.734 13.1172 36.5 12.3512 36.5 11.4062C36.5 10.4613 35.734 9.69531 34.7891 9.69531C33.8441 9.69531 33.0781 10.4613 33.0781 11.4062C33.0781 12.3512 33.8441 13.1172 34.7891 13.1172Z" fill="#FFB3D0"/>
<path d="M38.7713 21.1016L37.6406 23.3828L39.3516 45.0547L36.5 49.6172L33.6484 45.0547L35.3594 23.3828L34.2188 21.1016L36.5 19.9609L38.7713 21.1016Z" fill="#1DA864"/>
<path d="M41.0625 22.8126C40.974 22.8126 40.8867 22.792 40.8076 22.7524L36.5 20.5987L32.1926 22.7524C32.0855 22.806 31.9643 22.8245 31.8461 22.8053C31.7279 22.7862 31.6188 22.7303 31.5341 22.6457L29.2529 20.3644C29.1459 20.2574 29.0858 20.1123 29.0858 19.9611C29.0858 19.8098 29.1459 19.6647 29.2529 19.5577C29.3599 19.4507 29.505 19.3906 29.6562 19.3906C29.8075 19.3906 29.9526 19.4507 30.0596 19.5577L32.0501 21.5484L36.2449 19.4509C36.3241 19.4113 36.4114 19.3907 36.5 19.3907C36.5885 19.3907 36.6759 19.4113 36.7551 19.4509L40.9499 21.5484L42.9404 19.5577C43.0474 19.4507 43.1925 19.3906 43.3437 19.3906C43.4187 19.3906 43.4928 19.4054 43.562 19.434C43.6312 19.4627 43.6941 19.5047 43.7471 19.5577C43.8001 19.6107 43.8421 19.6736 43.8707 19.7428C43.8994 19.812 43.9142 19.8861 43.9142 19.9611C43.9142 20.036 43.8994 20.1101 43.8707 20.1793C43.8421 20.2486 43.8001 20.3114 43.7471 20.3644L41.4658 22.6457C41.4129 22.6986 41.35 22.7406 41.2808 22.7693C41.2116 22.7979 41.1374 22.8126 41.0625 22.8126Z" fill="#1DA864"/>
<path d="M59.6721 45.9823C56.4786 46.8607 53.0855 46.6704 50.0103 45.4405L49.0469 45.0547H45.625L49.0469 50.7578C52.7233 50.7577 56.2748 49.4232 59.0416 47.0023L60.4531 45.7676L59.6721 45.9823Z" fill="black"/>
<path d="M17.1094 55.8907C16.9965 55.8908 16.8862 55.8573 16.7924 55.7947C16.6986 55.732 16.6255 55.6429 16.5823 55.5387C16.5391 55.4345 16.5278 55.3198 16.5498 55.2091C16.5719 55.0985 16.6262 54.9968 16.706 54.9171L17.8466 53.7765C17.9536 53.6695 18.0987 53.6094 18.25 53.6094C18.4013 53.6094 18.5464 53.6695 18.6533 53.7765C18.7603 53.8834 18.8204 54.0285 18.8204 54.1798C18.8204 54.3311 18.7603 54.4762 18.6533 54.5832L17.5127 55.7238C17.4598 55.7768 17.3969 55.8188 17.3277 55.8474C17.2585 55.8761 17.1843 55.8908 17.1094 55.8907Z" fill="#F5A000"/>
<path d="M20.5312 57.0312C20.38 57.0312 20.2349 56.9712 20.128 56.8642C20.021 56.7573 19.9609 56.6122 19.9609 56.4609V54.75C19.9609 54.5987 20.021 54.4537 20.128 54.3467C20.2349 54.2398 20.38 54.1797 20.5312 54.1797C20.6825 54.1797 20.8276 54.2398 20.9345 54.3467C21.0415 54.4537 21.1016 54.5987 21.1016 54.75V56.4609C21.1016 56.6122 21.0415 56.7573 20.9345 56.8642C20.8276 56.9712 20.6825 57.0312 20.5312 57.0312Z" fill="#F5A000"/>
<path d="M17.1094 52.4688H15.3984C15.2472 52.4688 15.1021 52.4087 14.9952 52.3017C14.8882 52.1948 14.8281 52.0497 14.8281 51.8984C14.8281 51.7472 14.8882 51.6021 14.9952 51.4952C15.1021 51.3882 15.2472 51.3281 15.3984 51.3281H17.1094C17.2606 51.3281 17.4057 51.3882 17.5126 51.4952C17.6196 51.6021 17.6797 51.7472 17.6797 51.8984C17.6797 52.0497 17.6196 52.1948 17.5126 52.3017C17.4057 52.4087 17.2606 52.4688 17.1094 52.4688Z" fill="#F5A000"/>
<path d="M55.8906 57.0314C55.8157 57.0314 55.7415 57.0167 55.6723 56.9881C55.6031 56.9594 55.5402 56.9174 55.4873 56.8644L54.3466 55.7238C54.2397 55.6168 54.1796 55.4717 54.1796 55.3204C54.1796 55.1691 54.2397 55.0241 54.3466 54.9171C54.4536 54.8101 54.5987 54.75 54.75 54.75C54.9013 54.75 55.0464 54.8101 55.1534 54.9171L56.294 56.0577C56.3738 56.1375 56.4281 56.2391 56.4501 56.3497C56.4721 56.4604 56.4609 56.5751 56.4177 56.6793C56.3745 56.7836 56.3014 56.8726 56.2076 56.9353C56.1137 56.998 56.0034 57.0314 55.8906 57.0314Z" fill="#F5A000"/>
<path d="M52.4688 58.1719C52.3175 58.1719 52.1724 58.1118 52.0655 58.0048C51.9585 57.8979 51.8984 57.7528 51.8984 57.6016V55.8906C51.8984 55.7394 51.9585 55.5943 52.0655 55.4874C52.1724 55.3804 52.3175 55.3203 52.4688 55.3203C52.62 55.3203 52.7651 55.3804 52.872 55.4874C52.979 55.5943 53.0391 55.7394 53.0391 55.8906V57.6016C53.0391 57.7528 52.979 57.8979 52.872 58.0048C52.7651 58.1118 52.62 58.1719 52.4688 58.1719Z" fill="#F5A000"/>
<path d="M57.6016 53.6094H55.8906C55.7394 53.6094 55.5943 53.5493 55.4874 53.4423C55.3804 53.3354 55.3203 53.1903 55.3203 53.0391C55.3203 52.8878 55.3804 52.7427 55.4874 52.6358C55.5943 52.5288 55.7394 52.4688 55.8906 52.4688H57.6016C57.7528 52.4688 57.8979 52.5288 58.0048 52.6358C58.1118 52.7427 58.1719 52.8878 58.1719 53.0391C58.1719 53.1903 58.1118 53.3354 58.0048 53.4423C57.8979 53.5493 57.7528 53.6094 57.6016 53.6094Z" fill="#F5A000"/>
<path d="M70.7187 26.0317C70.7188 26.5447 70.6503 27.0553 70.5148 27.5501L64.0332 51.3165C64.013 51.3914 63.9777 51.4613 63.9295 51.5221C63.8812 51.5828 63.8211 51.633 63.7527 51.6696C63.6843 51.7062 63.6091 51.7284 63.5318 51.7349C63.4546 51.7413 63.3768 51.7319 63.3032 51.7071L60.8438 50.8873C60.73 50.8499 60.631 50.7775 60.5609 50.6804C60.4907 50.5834 60.453 50.4667 60.4531 50.347V45.8144L59.3541 46.8147C58.9878 47.1482 58.5106 47.3335 58.0153 47.3347C57.9663 47.3349 57.9178 47.3238 57.8737 47.3024C57.8295 47.281 57.7909 47.2498 57.7606 47.2112C57.7303 47.1726 57.7093 47.1276 57.6991 47.0796C57.6889 47.0316 57.6897 46.9819 57.7016 46.9343L58.1719 45.0545L62.7344 26.8045L59.331 26.237L60.7311 19.5244L65.8483 20.3328C67.2059 20.5467 68.4426 21.2383 69.3356 22.2831C70.2285 23.3279 70.719 24.6573 70.7187 26.0317Z" fill="#FFEDAE"/>
</svg>
