<svg width="14" height="12" viewBox="0 0 14 12" fill="none" xmlns="http://www.w3.org/2000/svg">
<path d="M6.03953 0.235396C6.99137 -0.26732 8.20217 0.0629796 8.73408 0.961394L13.8222 9.37148C13.9342 9.62251 13.9832 9.82663 13.9972 10.0387C14.0252 10.5341 13.8432 11.0157 13.4863 11.3863C13.1293 11.7556 12.6464 11.9736 12.1215 12H1.87523C1.65827 11.9874 1.44131 11.9405 1.23834 11.8679C0.223511 11.4781 -0.266406 10.3815 0.146524 9.43093L5.26966 0.955449C5.44463 0.657519 5.71059 0.400546 6.03953 0.235396ZM6.99837 8.18174C6.66243 8.18174 6.38247 8.44598 6.38247 8.76373C6.38247 9.08015 6.66243 9.34505 6.99837 9.34505C7.33431 9.34505 7.60727 9.08015 7.60727 8.75646C7.60727 8.44003 7.33431 8.18174 6.99837 8.18174ZM6.99837 4.06026C6.66243 4.06026 6.38247 4.31724 6.38247 4.63498V6.50382C6.38247 6.82091 6.66243 7.08581 6.99837 7.08581C7.33431 7.08581 7.60727 6.82091 7.60727 6.50382V4.63498C7.60727 4.31724 7.33431 4.06026 6.99837 4.06026Z" fill="#FF0000"/>
</svg>
