<svg width="22" height="22" viewBox="0 0 22 22" fill="none" xmlns="http://www.w3.org/2000/svg">
<g clip-path="url(#clip0_410_905)">
<path d="M22 10.999C22 4.92463 17.0754 0 10.999 0C4.9227 0 0 4.92463 0 10.999C0 16.4899 4.02329 21.0409 9.2811 21.8652V14.1788H6.48849V10.999H9.2811V8.57621C9.2811 5.82019 10.9239 4.29677 13.4354 4.29677C14.6391 4.29677 15.8967 4.51247 15.8967 4.51247V7.22034H14.51C13.1445 7.22034 12.717 8.06776 12.717 8.93828V11.001H15.7677L15.2804 14.1807H12.717V21.8671C17.9748 21.0428 21.9981 16.4918 21.9981 11.001L22 10.999Z" fill="#1677F0"/>
<path d="M15.2824 14.1788L15.7697 10.9991H12.719V8.93644C12.719 8.06591 13.1446 7.2185 14.512 7.2185H15.8987V4.51063C15.8987 4.51063 14.6391 4.29492 13.4373 4.29492C10.924 4.29492 9.28309 5.81834 9.28309 8.57436V10.9972H6.49048V14.1769H9.28309V21.8633C9.84354 21.9519 10.4175 21.9962 11.001 21.9962C11.5846 21.9962 12.1604 21.95 12.719 21.8633V14.1769H15.2824V14.1788Z" fill="white"/>
</g>
<defs>
<clipPath id="clip0_410_905">
<rect width="22" height="22" fill="white"/>
</clipPath>
</defs>
</svg>
