<svg width="15" height="14" viewBox="0 0 15 14" fill="none" xmlns="http://www.w3.org/2000/svg">
<g clip-path="url(#clip0_1028_1025)">
<path d="M5.50386 12.9766C5.3757 13.128 5.19441 12.9482 5.24415 12.7386L6.18674 8.77399C6.26114 8.47625 6.1448 8.16341 5.89395 7.9866L3.8089 6.61966C3.69584 6.52418 3.68044 6.35555 3.77439 6.24117L8.41198 1.01944C8.54257 0.871949 8.72722 1.06264 8.66447 1.27554L7.52612 5.13424C7.4299 5.44098 7.54338 5.77471 7.80661 5.95928L9.89166 7.33779C10.0029 7.43182 10.0196 7.59712 9.92931 7.71144L5.50386 12.9766Z" fill="#FFA800"/>
<path d="M12.8848 10.1377C12.8848 10.5376 12.5605 10.8618 12.1606 10.8618H7.91235L10.3003 8.02104C10.4366 7.85575 10.4958 7.64014 10.463 7.42845C10.4368 7.22794 10.3264 7.0481 10.1594 6.9341L8.07335 5.55655C7.98979 5.48726 7.95681 5.37409 7.99006 5.27075L8.61862 3.1377H12.1606C12.5605 3.1377 12.8848 3.46191 12.8848 3.86184V10.1377Z" fill="#FFA800"/>
<path d="M14.3331 8.20692C14.3331 8.34022 14.225 8.44831 14.0917 8.44831H13.3676V5.55176H14.0917C14.225 5.55176 14.3331 5.65982 14.3331 5.79315L14.3331 8.20692Z" fill="#FFA800"/>
<path d="M5.19445 10.8618L5.0786 11.3446H3.471C3.3377 11.3446 3.22961 11.2365 3.22961 11.1032C3.22961 10.9699 3.33768 10.8618 3.471 10.8618H5.19445V10.8618Z" fill="#FFA800"/>
<path d="M2.50542 11.3446H1.78131C1.64801 11.3446 1.53992 11.2365 1.53992 11.1032C1.53992 10.9699 1.64798 10.8618 1.78131 10.8618H2.50545C2.63875 10.8618 2.74684 10.9699 2.74684 11.1032C2.74684 11.2365 2.63875 11.3446 2.50542 11.3446Z" fill="#FFA800"/>
<path d="M3.87405 7.24108H0.574398C0.441098 7.24108 0.333008 7.13302 0.333008 6.99969C0.333008 6.86639 0.44107 6.7583 0.574398 6.7583H3.31164C3.36371 6.86595 3.44374 6.95766 3.54336 7.02381L3.87405 7.24108Z" fill="#FFA800"/>
<path d="M6.31437 2.65481L5.88712 3.13757H3.95367C3.82037 3.13757 3.71228 3.0295 3.71228 2.89618C3.71228 2.76285 3.82034 2.65479 3.95367 2.65479L6.31437 2.65481Z" fill="#FFA800"/>
<path d="M2.98821 3.13757H2.2641C2.1308 3.13757 2.02271 3.0295 2.02271 2.89618C2.02271 2.76285 2.13077 2.65479 2.2641 2.65479H2.98824C3.12154 2.65479 3.22963 2.76285 3.22963 2.89618C3.22963 3.0295 3.12154 3.13757 2.98821 3.13757Z" fill="#FFA800"/>
<path d="M5.02788 4.10305L4.59823 4.58581H1.05719C0.923886 4.58581 0.815796 4.47775 0.815796 4.34442C0.815796 4.21109 0.923858 4.10303 1.05719 4.10303H5.02788V4.10305Z" fill="#FFA800"/>
<path d="M3.95616 5.31009L3.52651 5.79284H2.98822C2.85492 5.79284 2.74683 5.68478 2.74683 5.55145C2.74683 5.41812 2.85489 5.31006 2.98822 5.31006H3.95616V5.31009Z" fill="#FFA800"/>
<path d="M2.02261 5.79284H1.53985C1.40655 5.79284 1.29846 5.68478 1.29846 5.55145C1.29846 5.41812 1.40652 5.31006 1.53985 5.31006H2.02261C2.15591 5.31006 2.264 5.41812 2.264 5.55145C2.264 5.68478 2.15591 5.79284 2.02261 5.79284Z" fill="#FFA800"/>
<path d="M5.53953 9.4136L5.42367 9.89636H0.815731C0.682431 9.89636 0.574341 9.78829 0.574341 9.65496C0.574341 9.52164 0.682403 9.41357 0.815731 9.41357H5.53953V9.4136Z" fill="#FFA800"/>
<path d="M5.71819 8.66277L5.71095 8.68932H3.71234C3.57904 8.68932 3.47095 8.58126 3.47095 8.44793C3.47095 8.31461 3.57901 8.20654 3.71234 8.20654H5.34889L5.62889 8.38999C5.70887 8.45606 5.74362 8.56226 5.71819 8.66277Z" fill="#FFA800"/>
<path d="M2.74682 8.68932H1.78131C1.64801 8.68932 1.53992 8.58126 1.53992 8.44793C1.53992 8.31461 1.64798 8.20654 1.78131 8.20654H2.74682C2.88012 8.20654 2.98821 8.31461 2.98821 8.44793C2.98821 8.58126 2.88012 8.68932 2.74682 8.68932Z" fill="#FFA800"/>
</g>
<defs>
<clipPath id="clip0_1028_1025">
<rect width="14" height="14" fill="white" transform="translate(0.333008)"/>
</clipPath>
</defs>
</svg>
