<svg width="16" height="16" viewBox="0 0 16 16" fill="none" xmlns="http://www.w3.org/2000/svg">
<g clip-path="url(#clip0_1028_1024)">
<path d="M14.8304 10.0904C15.0034 10.2369 14.7978 10.444 14.5584 10.3872L10.0274 9.30995C9.68708 9.22492 9.32955 9.35789 9.12748 9.64457L7.56526 12.0275C7.45614 12.1567 7.26342 12.1743 7.1327 12.0669L1.16501 6.76682C0.996452 6.61757 1.21439 6.40654 1.4577 6.47826L5.86764 7.77923C6.2182 7.8892 6.59961 7.75951 6.81055 7.45867L8.38598 5.07576C8.49345 4.9486 8.68236 4.92957 8.81301 5.03273L14.8304 10.0904Z" fill="white"/>
<path d="M11.586 1.65514C12.0431 1.65514 12.4136 2.02567 12.4136 2.48273L12.4136 7.33789L9.16697 4.6088C8.97806 4.45305 8.73165 4.38542 8.48972 4.42286C8.26056 4.45276 8.05503 4.57902 7.92475 4.76989L6.3504 7.15389C6.27122 7.24939 6.14187 7.28708 6.02378 7.24908L3.586 6.53073L3.586 2.48273C3.586 2.02567 3.95653 1.65514 4.41359 1.65514L11.586 1.65514Z" fill="white"/>
<path d="M9.37907 7.80687e-05C9.53142 7.8062e-05 9.65495 0.123578 9.65495 0.275953L9.65495 1.10352L6.3446 1.10352L6.3446 0.275922C6.3446 0.123578 6.4681 4.76783e-05 6.62048 4.76717e-05L9.37907 7.80687e-05Z" fill="white"/>
<path d="M12.4136 10.4439L12.9653 10.5763L12.9653 12.4136C12.9653 12.5659 12.8418 12.6895 12.6894 12.6895C12.5371 12.6895 12.4136 12.566 12.4136 12.4136L12.4136 10.4439L12.4136 10.4439Z" fill="white"/>
<path d="M12.9653 13.5172L12.9653 14.3447C12.9653 14.4971 12.8418 14.6206 12.6894 14.6206C12.5371 14.6206 12.4136 14.4971 12.4136 14.3447L12.4136 13.5171C12.4136 13.3648 12.5371 13.2413 12.6894 13.2413C12.8418 13.2413 12.9653 13.3648 12.9653 13.5172Z" fill="white"/>
<path d="M8.27563 11.9531L8.27563 15.7241C8.27563 15.8765 8.15213 16 7.99975 16C7.84741 16 7.72388 15.8765 7.72388 15.7241L7.72388 12.5958C7.84691 12.5363 7.95172 12.4449 8.02731 12.331L8.27563 11.9531Z" fill="white"/>
<path d="M3.03427 9.16388L3.58599 9.65216L3.58599 11.8618C3.58599 12.0142 3.46249 12.1377 3.31012 12.1377C3.15774 12.1377 3.03424 12.0142 3.03424 11.8618L3.03427 9.16388Z" fill="white"/>
<path d="M3.58599 12.9654L3.58599 13.793C3.58599 13.9453 3.46249 14.0688 3.31012 14.0688C3.15774 14.0688 3.03424 13.9453 3.03424 13.793L3.03424 12.9654C3.03424 12.813 3.15774 12.6895 3.31012 12.6895C3.46249 12.6895 3.58599 12.813 3.58599 12.9654Z" fill="white"/>
<path d="M4.68942 10.6344L5.24114 11.1255L5.24114 15.1724C5.24114 15.3247 5.11764 15.4482 4.96527 15.4482C4.81289 15.4482 4.68939 15.3247 4.68939 15.1724L4.68939 10.6344L4.68942 10.6344Z" fill="white"/>
<path d="M6.06876 11.8591L6.62048 12.3501L6.62048 12.9653C6.62048 13.1177 6.49698 13.2412 6.3446 13.2412C6.19223 13.2412 6.06873 13.1177 6.06873 12.9653L6.06873 11.8591L6.06876 11.8591Z" fill="white"/>
<path d="M6.62048 14.0689L6.62048 14.6206C6.62048 14.773 6.49698 14.8965 6.3446 14.8965C6.19223 14.8965 6.06873 14.773 6.06873 14.6206L6.06873 14.0689C6.06873 13.9165 6.19223 13.793 6.3446 13.793C6.49698 13.793 6.62048 13.9165 6.62048 14.0689Z" fill="white"/>
<path d="M10.7584 10.0496L11.3101 10.182L11.3101 15.4482C11.3101 15.6006 11.1866 15.7241 11.0342 15.7241C10.8819 15.7241 10.7584 15.6006 10.7584 15.4482L10.7584 10.0496L10.7584 10.0496Z" fill="white"/>
<path d="M9.90043 9.84529L9.93078 9.85357L9.93078 12.1377C9.93078 12.29 9.80728 12.4136 9.6549 12.4136C9.50253 12.4136 9.37903 12.2901 9.37903 12.1377L9.37903 10.2674L9.58868 9.94736C9.66418 9.85595 9.78556 9.81623 9.90043 9.84529Z" fill="white"/>
<path d="M9.93084 13.2413L9.93084 14.3447C9.93084 14.4971 9.80734 14.6206 9.65496 14.6206C9.50259 14.6206 9.37909 14.4971 9.37909 14.3447L9.37909 13.2413C9.37909 13.0889 9.50259 12.9654 9.65496 12.9654C9.80734 12.9654 9.93084 13.0889 9.93084 13.2413Z" fill="white"/>
</g>
<defs>
<clipPath id="clip0_1028_1024">
<rect width="16" height="16" fill="white" transform="translate(0 16) rotate(-90)"/>
</clipPath>
</defs>
</svg>
