<svg width="32" height="32" viewBox="0 0 32 32" fill="none" xmlns="http://www.w3.org/2000/svg">
<circle cx="16" cy="16" r="16" fill="#3EBF80"/>
<g clip-path="url(#clip0_66_278)">
<path d="M14.1216 15.9103C14.3416 16.2286 14.2758 15.9633 14.2758 22.3086C14.2758 22.8764 14.9236 23.2014 15.3802 22.8618C17.3313 21.3908 17.7211 21.2634 17.7211 20.5753C17.7211 15.9514 17.6672 16.2114 17.8753 15.9103L21.0436 11.5977H10.9533L14.1216 15.9103Z" fill="white"/>
<path d="M22.2404 9.35164C22.1272 9.1348 21.9052 9 21.6607 9H10.3362C9.80829 9 9.49769 9.59546 9.8005 10.0281C9.80299 10.0323 9.76613 9.98183 10.3507 10.7773H21.6462C22.1443 10.0994 22.4773 9.8065 22.2404 9.35164Z" fill="white"/>
</g>
<defs>
<clipPath id="clip0_66_278">
<rect width="14" height="14" fill="white" transform="translate(9 9)"/>
</clipPath>
</defs>
</svg>
