<svg width="17" height="16" viewBox="0 0 17 16" fill="none" xmlns="http://www.w3.org/2000/svg">
<path d="M13.0797 4.15375L11.9718 2.31851C11.8001 2.03064 11.5266 1.81772 11.2054 1.72187C10.8842 1.62603 10.5387 1.65425 10.2373 1.80095C10.1981 1.81773 6.42694 4.15375 6.42694 4.15375H13.0797Z" fill="#3EBF80"/>
<path d="M5.36663 4.15403C5.36663 4.15403 9.87638 1.34894 9.97432 1.30604L9.32248 0.662584C9.08038 0.419191 8.75185 0.281418 8.40856 0.279321C8.06527 0.277225 7.73508 0.410975 7.49003 0.651393L3.8587 4.15403H5.36663Z" fill="#3EBF80"/>
<path d="M15.5836 8.4541H11.983C11.5297 8.4541 11.0949 8.63419 10.7743 8.95476C10.4538 9.27532 10.2737 9.71011 10.2737 10.1635C10.2737 10.6168 10.4538 11.0516 10.7743 11.3721C11.0949 11.6927 11.5297 11.8728 11.983 11.8728H15.5836C15.7824 11.8728 15.9731 11.7938 16.1137 11.6532C16.2543 11.5126 16.3333 11.3219 16.3333 11.123V9.20666C16.3334 9.00753 16.2546 8.81648 16.114 8.6754C15.9735 8.53433 15.7827 8.45475 15.5836 8.4541ZM12.7356 9.95923C12.8088 9.96069 12.8786 9.99081 12.9298 10.0431C12.9811 10.0954 13.0098 10.1657 13.0098 10.239C13.0098 10.3122 12.9811 10.3826 12.9298 10.4349C12.8786 10.4872 12.8088 10.5173 12.7356 10.5188C12.6624 10.5173 12.5926 10.4872 12.5414 10.4349C12.4901 10.3826 12.4614 10.3122 12.4614 10.239C12.4614 10.1657 12.4901 10.0954 12.5414 10.0431C12.5926 9.99081 12.6624 9.96069 12.7356 9.95923Z" fill="#3EBF80"/>
<path d="M11.983 12.4325C8.97987 12.3203 8.98221 8.00756 11.9831 7.89477H14.3275H14.887V6.11268C14.8869 5.74173 14.7394 5.38602 14.4771 5.12372C14.2148 4.86142 13.8591 4.714 13.4882 4.71387H2.06544C1.69449 4.714 1.33878 4.86142 1.07648 5.12372C0.814178 5.38602 0.66676 5.74173 0.666626 6.11268V14.3209C0.66676 14.6919 0.814178 15.0476 1.07648 15.3099C1.33878 15.5722 1.69449 15.7196 2.06544 15.7197H13.4882C13.8591 15.7196 14.2148 15.5722 14.4771 15.3099C14.7394 15.0476 14.8868 14.6919 14.887 14.3209V12.4325C14.5484 12.4301 12.3749 12.4343 11.983 12.4325Z" fill="#3EBF80"/>
</svg>
