<svg width="22" height="22" viewBox="0 0 22 22" fill="none" xmlns="http://www.w3.org/2000/svg">
<path d="M18.1869 6.58312L13.1402 3.05217C11.7646 2.08838 9.65303 2.14095 8.33001 3.16607L3.94041 6.59189C3.06424 7.2753 2.37207 8.67717 2.37207 9.78114V15.8267C2.37207 18.0609 4.18574 19.8834 6.41997 19.8834H15.8651C18.0993 19.8834 19.913 18.0697 19.913 15.8355V9.89504C19.913 8.71221 19.1507 7.25777 18.1869 6.58312ZM11.7996 16.3787C11.7996 16.7379 11.5017 17.0358 11.1425 17.0358C10.7833 17.0358 10.4854 16.7379 10.4854 16.3787V13.7502C10.4854 13.391 10.7833 13.0931 11.1425 13.0931C11.5017 13.0931 11.7996 13.391 11.7996 13.7502V16.3787Z" fill="#3EBF80"/>
</svg>
