<svg width="14" height="13" viewBox="0 0 14 13" fill="none" xmlns="http://www.w3.org/2000/svg">
<g clip-path="url(#clip0_797_883)">
<path d="M3.24921 12.5864C3.17883 12.7033 3.20671 12.8546 3.31472 12.9388C3.42244 13.023 3.57592 13.0135 3.67282 12.9169L11.2518 5.33795C11.3341 5.25539 11.3546 5.12953 11.3027 5.02559C11.2504 4.92137 11.1389 4.86156 11.0222 4.87861L7.79577 5.33957L10.7508 0.414061C10.8211 0.296587 10.793 0.145549 10.6853 0.0613686C10.5773 -0.0230827 10.4238 -0.0133383 10.3274 0.0832934L2.74846 7.66225C2.66617 7.74481 2.6456 7.87067 2.69757 7.97461C2.74954 8.07855 2.86079 8.1381 2.97799 8.12159L6.20419 7.66063L3.24921 12.5864Z" fill="white"/>
</g>
<defs>
<clipPath id="clip0_797_883">
<rect width="12.9925" height="12.9925" fill="white" transform="translate(0.503723 0.00390625)"/>
</clipPath>
</defs>
</svg>
