<svg width="40" height="40" viewBox="0 0 40 40" fill="none" xmlns="http://www.w3.org/2000/svg">
<rect width="40" height="40" rx="20" fill="#E86F00"/>
<path d="M10.8333 14.7291C10.8333 14.0963 11.3463 13.5833 11.9791 13.5833C12.612 13.5833 13.125 14.0963 13.125 14.7291C13.125 15.3619 12.612 15.8749 11.9791 15.8749C11.3463 15.8749 10.8333 15.3619 10.8333 14.7291ZM10.8333 20.4583C10.8333 19.8254 11.3463 19.3124 11.9791 19.3124C12.612 19.3124 13.125 19.8254 13.125 20.4583C13.125 21.0911 12.612 21.6041 11.9791 21.6041C11.3463 21.6041 10.8333 21.0911 10.8333 20.4583ZM10.8333 26.1874C10.8333 25.5546 11.3463 25.0416 11.9791 25.0416C12.612 25.0416 13.125 25.5546 13.125 26.1874C13.125 26.8202 12.612 27.3333 11.9791 27.3333C11.3463 27.3333 10.8333 26.8202 10.8333 26.1874ZM28.0208 15.8749C28.6536 15.8749 29.1666 15.3619 29.1666 14.7291C29.1666 14.0963 28.6536 13.5833 28.0208 13.5833H16.5888C15.956 13.5833 15.443 14.0963 15.443 14.7291C15.443 15.3619 15.956 15.8749 16.5888 15.8749H28.0208ZM15.4166 20.4583C15.4166 19.8254 15.9297 19.3124 16.5625 19.3124H28.0208C28.6536 19.3124 29.1666 19.8254 29.1666 20.4583C29.1666 21.0911 28.6536 21.6041 28.0208 21.6041H16.5625C15.9297 21.6041 15.4166 21.0911 15.4166 20.4583ZM15.4166 26.1874C15.4166 25.5546 15.9297 25.0416 16.5625 25.0416H28.0208C28.6536 25.0416 29.1666 25.5546 29.1666 26.1874C29.1666 26.8202 28.6536 27.3333 28.0208 27.3333H16.5625C15.9297 27.3333 15.4166 26.8202 15.4166 26.1874Z" fill="white"/>
</svg>
