<svg width="11" height="14" viewBox="0 0 11 14" fill="none" xmlns="http://www.w3.org/2000/svg">
<path d="M8.45437 1.85853C7.85839 1.37054 7.16153 1.0209 6.41407 0.834824C5.6666 0.648751 4.88715 0.630885 4.13194 0.782514C3.16091 0.981596 2.26756 1.45561 1.55832 2.14809C0.849087 2.84058 0.353856 3.72234 0.131621 4.68834C-0.0906129 5.65434 -0.0304825 6.66387 0.30485 7.59666C0.640183 8.52945 1.23658 9.34619 2.02301 9.94958C2.92089 10.6067 3.68537 11.4289 4.27556 12.3722L4.6777 13.0409C4.72878 13.1258 4.80096 13.1961 4.88723 13.2449C4.9735 13.2937 5.07093 13.3193 5.17004 13.3193C5.26915 13.3193 5.36658 13.2937 5.45285 13.2449C5.53912 13.1961 5.6113 13.1258 5.66237 13.0409L6.04785 12.3986C6.5618 11.4952 7.26256 10.7118 8.10336 10.1007C8.76264 9.64708 9.3075 9.04648 9.69494 8.34627C10.0824 7.64606 10.3018 6.86539 10.3359 6.06587C10.37 5.26634 10.2178 4.46983 9.89139 3.73918C9.56497 3.00853 9.07322 2.36373 8.45495 1.85565L8.45437 1.85853ZM5.16946 8.14972C4.71497 8.14972 4.27069 8.01495 3.8928 7.76245C3.5149 7.50995 3.22037 7.15106 3.04644 6.73116C2.87252 6.31127 2.82701 5.84923 2.91568 5.40347C3.00434 4.95771 3.2232 4.54826 3.54457 4.22689C3.86595 3.90551 4.2754 3.68665 4.72116 3.59799C5.16691 3.50932 5.62895 3.55483 6.04885 3.72875C6.46874 3.90268 6.82763 4.19721 7.08013 4.57511C7.33263 4.953 7.46741 5.39729 7.46741 5.85178C7.46741 6.46123 7.2253 7.04572 6.79436 7.47667C6.36341 7.90762 5.77892 8.14972 5.16946 8.14972Z" fill="#3EBF80"/>
</svg>
