<svg width="73" height="73" viewBox="0 0 73 73" fill="none" xmlns="http://www.w3.org/2000/svg">
<path d="M36.4998 72.19C56.4345 72.19 72.5948 56.0297 72.5948 36.095C72.5948 16.1603 56.4345 0 36.4998 0C16.5651 0 0.404785 16.1603 0.404785 36.095C0.404785 56.0297 16.5651 72.19 36.4998 72.19Z" fill="#F41F52"/>
<path d="M40.187 20.0439C40.187 18.0068 38.536 16.3555 36.4993 16.3555C34.4626 16.3555 32.8115 18.0068 32.8115 20.0439V31.6253C32.8115 33.6624 34.4626 35.3138 36.4993 35.3138C38.536 35.3138 40.187 33.6624 40.187 31.6253V20.0439Z" fill="white"/>
<path d="M43.2678 25.1765C43.0093 25.8032 42.9544 26.4953 43.1107 27.1549C43.2671 27.8145 43.6269 28.4083 44.1391 28.8523C45.9412 30.4095 47.2242 32.4803 47.8162 34.7872C48.4083 37.094 48.281 39.5268 47.4516 41.7593C46.6222 43.9918 45.1301 45.9175 43.1755 47.2782C41.2209 48.6389 38.897 49.3697 36.5154 49.3725C34.1337 49.3754 31.8081 48.6502 29.8502 47.2942C27.8924 45.9381 26.3957 44.0161 25.5609 41.7855C24.7261 39.555 24.5931 37.1226 25.1796 34.8143C25.7661 32.506 27.0442 30.4321 28.8425 28.8706C29.359 28.4253 29.7227 27.8292 29.8823 27.1661C30.0419 26.5031 29.9894 25.8067 29.7321 25.1751C28.896 23.1406 26.3059 22.4962 24.6408 23.9344C21.837 26.3534 19.8401 29.5721 18.918 33.1586C17.9959 36.7451 18.1927 40.5278 19.482 43.9992C20.7712 47.4706 23.0914 50.4647 26.131 52.5798C29.1707 54.6949 32.7845 55.8297 36.4876 55.8321C40.1907 55.8346 43.806 54.7044 46.8484 52.5933C49.8908 50.4822 52.2148 47.4912 53.5086 44.0214C54.8025 40.5517 55.0042 36.7692 54.0868 33.1816C53.1694 29.5939 51.1767 26.3726 48.3761 23.9499C47.9868 23.6163 47.5239 23.3797 47.0255 23.2597C46.5271 23.1396 46.0073 23.1394 45.5088 23.2591C45.0103 23.3788 44.5472 23.615 44.1577 23.9483C43.7681 24.2816 43.4632 24.7025 43.2678 25.1765Z" fill="white"/>
</svg>
