<svg width="26" height="26" viewBox="0 0 26 26" fill="none" xmlns="http://www.w3.org/2000/svg">
<rect width="26" height="26" rx="13" fill="#CB033F"/>
<g clip-path="url(#clip0_91_1045)">
<path d="M19.3251 14.312C19.5325 12.0794 18.579 10.0571 16.9974 8.77229C16.3809 8.27103 15.4591 8.70027 15.4591 9.49248C15.4591 9.78344 15.5973 10.0514 15.822 10.2328C16.9427 11.1461 17.6168 12.5864 17.4526 14.1766C17.2394 16.2479 15.5801 17.9245 13.5117 18.155C10.8124 18.4575 8.51926 16.343 8.51926 13.7042C8.51926 12.3041 9.16743 11.051 10.1786 10.23C10.4033 10.0485 10.5387 9.78056 10.5387 9.49248C10.5387 8.70891 9.63124 8.26527 9.02051 8.755C7.57436 9.92172 6.64675 11.7049 6.64675 13.7042C6.64675 17.3599 9.75223 20.3069 13.4656 20.039C16.5365 19.823 19.0399 17.3772 19.3251 14.312ZM13.0018 5.94336C13.5203 5.94336 13.938 6.36395 13.938 6.87961V11.1921C13.938 11.7107 13.5174 12.1284 13.0018 12.1284C12.4861 12.1284 12.0655 11.7078 12.0655 11.1921V6.87961C12.0655 6.36395 12.4832 5.94336 13.0018 5.94336Z" fill="white"/>
</g>
<defs>
<clipPath id="clip0_91_1045">
<rect width="14.1126" height="14.1126" fill="white" transform="matrix(-1 0 0 1 20.0563 5.94336)"/>
</clipPath>
</defs>
</svg>
