<svg width="26" height="26" viewBox="0 0 26 26" fill="none" xmlns="http://www.w3.org/2000/svg">
<rect width="26" height="26" rx="13" fill="#25BE9A"/>
<path d="M12.0886 17.6306L10.3109 20.71C10.2142 20.8811 10.0282 20.9926 9.82739 20.9926C9.80507 20.9926 9.77532 20.9926 9.75301 20.9926C9.52986 20.9629 9.34391 20.7992 9.2844 20.5835L8.88274 19.0885L7.38766 19.4901C7.17195 19.5496 6.93393 19.4678 6.80004 19.2893C6.66615 19.1108 6.64384 18.8653 6.76285 18.6719L8.3695 15.89C8.58521 16.0239 8.80835 16.1429 9.03894 16.2247C9.49267 16.7975 10.11 17.2363 10.8167 17.4669C11.1886 17.5934 11.5828 17.6529 11.977 17.6529H12.0812L12.0886 17.6306ZM17.6301 15.8752C17.4218 16.009 17.1987 16.1206 16.9606 16.2099C16.4995 16.7901 15.8821 17.2215 15.1755 17.4521C14.8035 17.5711 14.4168 17.638 14.0151 17.638C13.9779 17.638 13.9482 17.638 13.911 17.638L15.6887 20.7174C15.7854 20.8885 15.9713 21.0001 16.1722 21.0001H16.2466C16.4697 20.9703 16.6557 20.8067 16.7152 20.591L17.1168 19.0959L18.6119 19.4976C18.8276 19.5571 19.0582 19.4752 19.1995 19.2967C19.3334 19.1182 19.3557 18.8728 19.2367 18.6794L17.6301 15.8975V15.8752ZM18.9318 10.7577C18.9318 11.3899 18.7012 12.0073 18.2846 12.4833C18.3367 13.1305 18.1582 13.7404 17.7937 14.2387C17.4218 14.752 16.8788 15.109 16.2689 15.2503C15.9416 15.7859 15.4358 16.195 14.8333 16.3884C14.5655 16.4776 14.2978 16.5148 14.0225 16.5148C13.6729 16.5148 13.3308 16.4479 13.0035 16.314C12.4233 16.5595 11.7688 16.5818 11.1737 16.3884C10.5712 16.195 10.0654 15.7859 9.73813 15.2578C9.14307 15.1239 8.58521 14.7594 8.2133 14.2387C7.84139 13.7255 7.67031 13.1007 7.71494 12.4759C7.31327 12.0073 7.07525 11.3899 7.07525 10.7577C7.07525 10.1254 7.30584 9.50805 7.72238 9.032C7.67031 8.38488 7.84883 7.77495 8.2133 7.27659C8.58521 6.76335 9.1282 6.40631 9.73813 6.26499C10.0654 5.72944 10.5712 5.32034 11.1737 5.12694C11.7762 4.93355 12.4308 4.9633 13.0035 5.20133C13.5837 4.9633 14.2382 4.93355 14.8333 5.12694C15.4358 5.32034 15.9416 5.72944 16.2689 6.25755C16.8639 6.39144 17.4218 6.75591 17.7937 7.27659C18.1656 7.78982 18.3367 8.41463 18.2921 9.03944C18.6937 9.50805 18.9318 10.1254 18.9318 10.7577ZM15.0193 10.2519C14.9523 10.051 14.7812 9.90227 14.5655 9.87252L13.8291 9.76838L13.5019 9.09895C13.3159 8.7196 12.6911 8.7196 12.4977 9.09895L12.1704 9.76838L11.434 9.87252C11.2258 9.90227 11.0473 10.051 10.9803 10.2519C10.9134 10.4527 10.9729 10.6758 11.1216 10.8246L11.6572 11.3453L11.5307 12.0817C11.4935 12.2899 11.5828 12.5056 11.7539 12.6247C11.925 12.7511 12.1555 12.766 12.3415 12.6693L13.0035 12.3197L13.6655 12.6693C13.7473 12.7139 13.8366 12.7362 13.9258 12.7362C14.0449 12.7362 14.1564 12.699 14.2531 12.6321C14.4242 12.5056 14.5135 12.2974 14.4763 12.0891L14.3498 11.3527L14.8854 10.832C15.0341 10.6833 15.0936 10.4601 15.0267 10.2593L15.0193 10.2519Z" fill="white"/>
</svg>
