<svg width="40" height="40" viewBox="0 0 40 40" fill="none" xmlns="http://www.w3.org/2000/svg">
<rect width="40" height="40" rx="20" fill="#E86F00"/>
<g clip-path="url(#clip0_69_308)">
<path d="M25.625 10C23.2125 10 21.25 11.9625 21.25 14.375C21.25 16.62 24.76 20.5962 25.16 21.0425C25.2788 21.1737 25.4475 21.25 25.625 21.25C25.8025 21.25 25.9712 21.1737 26.09 21.0425C26.49 20.5962 30 16.62 30 14.375C30 11.9625 28.0375 10 25.625 10ZM25.625 16.25C24.59 16.25 23.75 15.41 23.75 14.375C23.75 13.34 24.59 12.5 25.625 12.5C26.66 12.5 27.5 13.34 27.5 14.375C27.5 15.41 26.66 16.25 25.625 16.25Z" fill="white"/>
<path d="M10.3925 17.3425C10.1563 17.4375 10 17.6675 10 17.9238V29.375C10 29.5825 10.1038 29.7762 10.275 29.8925C10.38 29.9625 10.5013 30 10.625 30C10.7038 30 10.7825 29.985 10.8575 29.955L16.25 27.7975V15L10.3925 17.3425Z" fill="white"/>
<path d="M27.02 21.8774C26.665 22.2724 26.1562 22.4999 25.625 22.4999C25.0938 22.4999 24.585 22.2724 24.23 21.8774C24.1025 21.7362 23.9387 21.5499 23.75 21.3287V29.9999L29.6075 27.6574C29.845 27.5637 30 27.3324 30 27.0774V17.8887C28.9763 19.6224 27.6075 21.2224 27.02 21.8774Z" fill="white"/>
<path d="M20.3937 16.1575L17.5 15V27.7975L22.5 29.7975V19.76C21.7013 18.6838 20.8675 17.3875 20.3937 16.1575Z" fill="white"/>
</g>
<defs>
<clipPath id="clip0_69_308">
<rect width="20" height="20" fill="white" transform="translate(10 10)"/>
</clipPath>
</defs>
</svg>
