<svg width="26" height="26" viewBox="0 0 26 26" fill="none" xmlns="http://www.w3.org/2000/svg">
<rect width="26" height="26" rx="13" fill="#3EBF80"/>
<path d="M19.9999 12.279V13.721C19.9999 14.106 19.6919 14.421 19.2999 14.435H17.9279C17.1719 14.435 16.4789 13.882 16.4159 13.126C16.3739 12.685 16.5419 12.272 16.8359 11.985C17.0949 11.719 17.4519 11.5649 17.8439 11.5649H19.2999C19.6919 11.5789 19.9999 11.894 19.9999 12.279Z" fill="white"/>
<path d="M18.9292 15.4849H17.9282C16.5982 15.4849 15.4782 14.4839 15.3662 13.2099C15.3032 12.4819 15.5692 11.7539 16.1012 11.2359C16.5492 10.7739 17.1722 10.5149 17.8442 10.5149H18.9292C19.1322 10.5149 19.3002 10.3469 19.2792 10.1438C19.1252 8.44282 17.9982 7.28081 16.3252 7.08481C16.1572 7.0568 15.9822 7.0498 15.8002 7.0498H9.50005C9.30405 7.0498 9.11504 7.0638 8.93304 7.09181C7.14802 7.31581 6 8.64583 6 10.5499V15.4499C6 17.3819 7.56802 18.95 9.50005 18.95H15.8002C17.7602 18.95 19.1112 17.725 19.2792 15.8559C19.3002 15.6529 19.1322 15.4849 18.9292 15.4849ZM13.7001 11.4249H9.50005C9.21304 11.4249 8.97504 11.1869 8.97504 10.8999C8.97504 10.6129 9.21304 10.3749 9.50005 10.3749H13.7001C13.9871 10.3749 14.2251 10.6129 14.2251 10.8999C14.2251 11.1869 13.9871 11.4249 13.7001 11.4249Z" fill="white"/>
</svg>
