<svg width="26" height="26" viewBox="0 0 26 26" fill="none" xmlns="http://www.w3.org/2000/svg">
<circle cx="12.9999" cy="13" r="13" fill="#FFBB0D"/>
<path d="M20.9443 13.1679C20.829 11.8737 20.6391 11.6216 20.5674 11.5268C20.4024 11.3078 20.1385 11.1646 19.8593 11.0144C19.8435 11.006 19.8298 10.9941 19.8194 10.9796C19.809 10.9651 19.8021 10.9483 19.7993 10.9307C19.7965 10.9131 19.7978 10.895 19.8032 10.878C19.8085 10.8609 19.8177 10.8453 19.8301 10.8325C19.8818 10.78 19.9216 10.717 19.9466 10.6477C19.9717 10.5785 19.9814 10.5046 19.9752 10.4312C19.9632 10.301 19.9026 10.1802 19.8056 10.0925C19.7087 10.0049 19.5823 9.95694 19.4516 9.95814H18.952C18.9305 9.95827 18.9091 9.95966 18.8879 9.96231C18.8733 9.95598 18.8582 9.95094 18.8427 9.94725C18.5468 9.32177 18.1417 8.46537 17.3019 8.04742C16.0564 7.42802 13.762 7.396 13.3136 7.396C12.8653 7.396 10.5708 7.42802 9.32693 8.04646C8.48718 8.46441 8.08204 9.32081 7.78612 9.94629L7.78355 9.95142C7.76879 9.95349 7.7543 9.95714 7.74032 9.96231C7.71907 9.95966 7.69768 9.95827 7.67626 9.95814H7.17568C7.04498 9.95694 6.9186 10.0049 6.82161 10.0925C6.72461 10.1802 6.66409 10.301 6.65205 10.4312C6.64636 10.5044 6.65655 10.578 6.68192 10.6469C6.70729 10.7159 6.74724 10.7785 6.79905 10.8306C6.81144 10.8434 6.82068 10.859 6.82602 10.876C6.83137 10.8931 6.83268 10.9111 6.82986 10.9288C6.82703 10.9464 6.82014 10.9632 6.80974 10.9777C6.79933 10.9922 6.7857 11.0041 6.7699 11.0125C6.49063 11.1636 6.22545 11.3068 6.06179 11.5249C5.99005 11.621 5.80045 11.8717 5.68484 13.166C5.62078 13.8942 5.61117 14.6482 5.66146 15.1337C5.76682 16.1425 5.96443 16.7523 5.97276 16.7776C6.00308 16.8697 6.0589 16.9513 6.13373 17.0129C6.20856 17.0745 6.29933 17.1136 6.39551 17.1257V17.1322C6.39551 17.2681 6.4495 17.3984 6.5456 17.4945C6.6417 17.5906 6.77204 17.6446 6.90794 17.6446H8.70144C8.83735 17.6446 8.96769 17.5906 9.06379 17.4945C9.15988 17.3984 9.21387 17.2681 9.21387 17.1322C9.48962 17.1322 9.68146 17.0828 9.88483 17.0303C10.1785 16.9512 10.4786 16.8986 10.7816 16.8731C11.7587 16.7799 12.7304 16.7478 13.3136 16.7478C13.885 16.7478 14.8996 16.7799 15.8783 16.8731C16.1826 16.8986 16.4839 16.9515 16.7786 17.0309C16.9733 17.0809 17.1581 17.127 17.414 17.1318C17.414 17.2677 17.468 17.3981 17.5641 17.4942C17.6602 17.5903 17.7905 17.6443 17.9265 17.6443H19.72C19.8559 17.6443 19.9862 17.5903 20.0823 17.4942C20.1784 17.3981 20.2324 17.2677 20.2324 17.1318V17.128C20.3288 17.1161 20.4198 17.0771 20.4949 17.0155C20.57 16.9538 20.626 16.8721 20.6564 16.7799C20.6647 16.7546 20.8624 16.1448 20.9677 15.1359C21.018 14.6501 21.009 13.8974 20.9443 13.1679ZM8.71233 10.3844C8.96855 9.83996 9.26159 9.22377 9.78331 8.96403C10.5372 8.58868 12.0998 8.41957 13.3136 8.41957C14.5274 8.41957 16.09 8.58739 16.8439 8.96403C17.3657 9.22377 17.6574 9.84028 17.9149 10.3844L17.9469 10.4539C17.9657 10.4935 17.974 10.5372 17.971 10.5809C17.968 10.6245 17.9539 10.6667 17.93 10.7034C17.9061 10.7401 17.8733 10.77 17.8345 10.7904C17.7958 10.8107 17.7524 10.8208 17.7087 10.8197C16.6444 10.7908 14.4025 10.6986 13.3136 10.6986C12.2247 10.6986 9.98284 10.7931 8.91698 10.8219C8.87322 10.8231 8.8299 10.813 8.79115 10.7926C8.7524 10.7723 8.7195 10.7423 8.69561 10.7056C8.67171 10.669 8.65762 10.6268 8.65466 10.5831C8.6517 10.5394 8.65998 10.4957 8.6787 10.4562C8.68991 10.4325 8.70176 10.4084 8.71233 10.3844ZM9.09441 12.9347C8.54349 13.001 7.98904 13.0338 7.43414 13.0327C7.09466 13.0327 6.7446 12.9366 6.67959 12.6343C6.63507 12.4309 6.63988 12.3166 6.6639 12.2016C6.68407 12.1039 6.7161 12.0328 6.87623 12.0079C7.29258 11.9438 7.52542 12.0242 8.20695 12.225C8.65885 12.3579 8.98488 12.535 9.17064 12.6753C9.26383 12.7445 9.21419 12.9251 9.09441 12.9347ZM16.1845 15.5609C15.763 15.609 14.9201 15.5913 13.3232 15.5913C11.7264 15.5913 10.8838 15.609 10.4623 15.5609C10.0274 15.5126 9.47297 15.1013 9.85153 14.7349C10.1036 14.4935 10.6916 14.3128 11.4746 14.2113C12.2577 14.1098 12.5892 14.0576 13.32 14.0576C14.0509 14.0576 14.3487 14.0896 15.1654 14.2116C15.9821 14.3336 16.5993 14.5165 16.7885 14.7353C17.1338 15.1273 16.6191 15.51 16.1845 15.5628V15.5609ZM19.9477 12.634C19.8836 12.9376 19.5313 13.0324 19.1931 13.0324C18.6276 13.0325 18.0625 12.9998 17.5008 12.9344C17.4028 12.9251 17.3573 12.7531 17.4566 12.675C17.6395 12.5312 17.969 12.3576 18.4203 12.2247C19.1018 12.0239 19.4948 11.9435 19.8324 12.0104C19.9147 12.0268 19.9582 12.1152 19.9634 12.1706C19.9859 12.3248 19.9806 12.4819 19.9477 12.6343V12.634Z" fill="white"/>
</svg>
