<svg width="40" height="40" viewBox="0 0 40 40" fill="none" xmlns="http://www.w3.org/2000/svg">
<rect width="40" height="40" rx="20" fill="white"/>
<path d="M20 23.3334C21.841 23.3334 23.3334 21.841 23.3334 20.0001C23.3334 18.1591 21.841 16.6667 20 16.6667C18.1591 16.6667 16.6667 18.1591 16.6667 20.0001C16.6667 21.841 18.1591 23.3334 20 23.3334Z" fill="#9DB2CE"/>
<path d="M20.8334 13.3909V11.6667H19.1667V13.3909C17.7003 13.5781 16.3375 14.2469 15.2922 15.2922C14.2468 16.3376 13.5781 17.7003 13.3909 19.1667H11.6667V20.8334H13.3909C13.5778 22.2999 14.2465 23.6629 15.2919 24.7083C16.3372 25.7536 17.7002 26.4223 19.1667 26.6092V28.3334H20.8334V26.6092C22.2999 26.4224 23.6629 25.7538 24.7083 24.7084C25.7538 23.663 26.4224 22.3 26.6092 20.8334H28.3334V19.1667H26.6092C26.4222 17.7002 25.7536 16.3373 24.7082 15.2919C23.6628 14.2465 22.2999 13.5779 20.8334 13.3909ZM20 25.0001C17.2425 25.0001 15 22.7576 15 20.0001C15 17.2426 17.2425 15.0001 20 15.0001C22.7575 15.0001 25 17.2426 25 20.0001C25 22.7576 22.7575 25.0001 20 25.0001Z" fill="#9DB2CE"/>
</svg>
