<svg width="16" height="16" viewBox="0 0 16 16" fill="none" xmlns="http://www.w3.org/2000/svg">
<path d="M3.70972 9.10498L3.6355 9.24658L2.87183 10.5151L2.86987 10.5181C2.67149 10.8519 2.57993 11.2679 2.72925 11.6655L2.72827 11.6665C2.85421 12.0233 3.13283 12.2694 3.45288 12.4116L3.59155 12.4663L3.59448 12.4673C4.22613 12.6788 4.86675 12.8414 5.51147 12.9604C4.86107 12.8431 4.21897 12.6819 3.59253 12.4722H3.59155C3.21212 12.3399 2.93507 12.0995 2.78589 11.8052L2.73022 11.6763L2.72827 11.6704L2.68628 11.5356C2.61826 11.2603 2.64852 10.9606 2.78882 10.6655L2.86792 10.519V10.5181L3.6355 9.24463V9.24365C3.66211 9.19928 3.68657 9.1511 3.71069 9.10107C3.71013 9.10227 3.71028 9.10379 3.70972 9.10498ZM12.5701 12.4165L12.4304 12.4722L12.4275 12.4731C11.9215 12.6434 11.4038 12.7807 10.8796 12.8901C11.403 12.7793 11.923 12.6395 12.4373 12.4673L12.4382 12.4683C12.4861 12.4523 12.5327 12.4335 12.5779 12.4126L12.5701 12.4165ZM12.7068 12.3433C12.6847 12.3567 12.6614 12.3682 12.6384 12.3804C12.6614 12.3682 12.6846 12.3567 12.7068 12.3433ZM12.9392 12.1636C12.8746 12.2264 12.8029 12.2811 12.7263 12.3296C12.803 12.2813 12.8744 12.2262 12.9392 12.1636ZM4.04077 5.48779C4.02351 5.63845 4.01343 5.7915 4.01343 5.94678L4.01831 5.7417C4.02265 5.65629 4.03112 5.57173 4.04077 5.48779ZM11.9871 5.48779C12.0044 5.63844 12.0134 5.7916 12.0134 5.94678C12.0134 5.79155 12.0043 5.63841 11.9871 5.48779ZM7.60522 1.96729C7.38499 1.98971 7.17004 2.03057 6.96167 2.0874C7.10642 2.04785 7.25432 2.01581 7.40503 1.99268L7.60522 1.96729Z" fill="#191919" stroke="#191919"/>
<path d="M8.01978 1.28662C8.57286 1.28662 9.05057 1.61232 9.25024 2.12061H9.25122C9.25181 2.12224 9.25088 2.1241 9.25122 2.12549H9.25024L9.24634 2.12451L8.93286 2.04736L8.62622 1.9917L8.61743 1.99072L8.3811 1.96631C7.8329 1.92245 7.29671 1.97401 6.7854 2.12646C6.98448 1.61856 7.46721 1.28671 8.01978 1.28662Z" fill="#191919" stroke="#191919"/>
<path d="M9.94791 13.2065C9.75847 13.9406 9.16443 14.5121 8.41666 14.6655L8.21744 14.6958C9.05631 14.6104 9.7406 14.004 9.94693 13.2065H9.94791Z" fill="#191919" stroke="#191919"/>
</svg>
