<svg width="26" height="26" viewBox="0 0 26 26" fill="none" xmlns="http://www.w3.org/2000/svg">
<circle cx="13.0001" cy="13" r="13" fill="#8500A6"/>
<path d="M6 12.3716V15.8573C6 17.0358 6.96437 18.0002 8.1429 18.0002H18.1431C19.322 18.0002 20.286 17.0358 20.286 15.8573V12.3716H6ZM11.7144 15.143H9.57149C9.17877 15.143 8.8572 14.8214 8.8572 14.4287C8.8572 14.036 9.17877 13.7144 9.57149 13.7144H11.7144C12.1071 13.7144 12.4287 14.036 12.4287 14.4287C12.4287 14.8214 12.1071 15.143 11.7144 15.143ZM6 10.9465V10.1429C6 8.96123 6.96123 8 8.1429 8H18.1431C19.3247 8 20.286 8.96123 20.286 10.1429V10.9465H6Z" fill="white"/>
</svg>
