<svg width="77" height="77" viewBox="0 0 77 77" fill="none" xmlns="http://www.w3.org/2000/svg">
<path d="M55.4495 31.145C55.4495 31.145 30.6491 49.7088 30.6491 49.7088C29.501 50.6106 27.679 50.1747 27.0562 48.8605C27.0562 48.8605 20.8408 36.4697 20.8409 36.4698C19.4691 33.6173 23.6827 31.5105 25.1434 34.3126L30.0687 44.1326L52.5662 27.2912C55.105 25.4134 57.9501 29.2567 55.4495 31.145ZM72.2475 38.4997C70.4015 83.1778 6.60528 83.1908 4.75256 38.5C4.75256 19.9244 19.8915 4.8125 38.5 4.8125C57.1085 4.8125 72.2474 19.9244 72.2475 38.4997ZM67.435 38.5002C65.8526 0.204795 11.1533 0.193606 9.56506 38.5C9.56506 54.4226 22.5457 67.375 38.5 67.375C54.4543 67.375 67.4349 54.4226 67.435 38.5002Z" fill="url(#paint0_radial_29344_2373)"/>
<defs>
<radialGradient id="paint0_radial_29344_2373" cx="0" cy="0" r="1" gradientUnits="userSpaceOnUse" gradientTransform="translate(38.5 38.4128) rotate(90) scale(33.6003 65.4696)">
<stop stop-color="#42D99C"/>
<stop offset="1" stop-color="#3EBF80"/>
</radialGradient>
</defs>
</svg>
