<svg width="71" height="70" viewBox="0 0 71 70" fill="none" xmlns="http://www.w3.org/2000/svg">
<path d="M35.5 0C16.1707 0 0.5 15.6693 0.5 35C0.5 54.3307 16.1707 70 35.5 70C54.8293 70 70.5 54.3293 70.5 35C70.5 15.6707 54.8293 0 35.5 0ZM56.5752 56.0752C51.3486 61.2873 44.3687 64.3668 36.9956 64.7136C29.6225 65.0604 22.3844 62.6498 16.6916 57.9513C10.9988 53.2529 7.25926 46.6033 6.20154 39.2982C5.14382 31.9931 6.84374 24.5559 10.9701 18.4357C15.0964 12.3155 21.3535 7.95085 28.5222 6.19215C35.6909 4.43344 43.2576 5.40671 49.7478 8.92229C56.2381 12.4379 61.187 18.2439 63.6303 25.2091C66.0735 32.1743 65.836 39.7996 62.9641 46.5992C61.4682 50.1418 59.2984 53.3601 56.5752 56.0752ZM49.943 24.2307L39.1736 35L49.943 45.7693C50.4285 46.2568 50.7007 46.917 50.7 47.605C50.6993 48.293 50.4257 48.9527 49.9392 49.4392C49.4527 49.9257 48.793 50.1993 48.105 50.2C47.417 50.2007 46.7568 49.9285 46.2693 49.443L35.5 38.6736L24.7307 49.443C24.2432 49.9285 23.583 50.2007 22.895 50.2C22.207 50.1993 21.5473 49.9257 21.0608 49.4392C20.5743 48.9527 20.3007 48.293 20.3 47.605C20.2993 46.917 20.5715 46.2568 21.057 45.7693L31.8264 35L21.057 24.2307C20.5715 23.7432 20.2993 23.083 20.3 22.395C20.3007 21.707 20.5743 21.0473 21.0608 20.5608C21.5473 20.0743 22.207 19.8007 22.895 19.8C23.583 19.7993 24.2432 20.0715 24.7307 20.557L35.5 31.3264L46.2693 20.557C46.7568 20.0715 47.417 19.7993 48.105 19.8C48.793 19.8007 49.4527 20.0743 49.9392 20.5608C50.4257 21.0473 50.6993 21.707 50.7 22.395C50.7007 23.083 50.4285 23.7432 49.943 24.2307Z" fill="#F41F52"/>
</svg>
