<svg width="20" height="20" viewBox="0 0 20 20" fill="none" xmlns="http://www.w3.org/2000/svg">
<path fill-rule="evenodd" clip-rule="evenodd" d="M9.78231 1.66675C14.2573 1.66675 17.8973 5.30675 17.8973 9.78175C17.8973 11.893 17.0871 13.8186 15.7612 15.2638L18.3701 17.8673C18.6143 18.1115 18.6151 18.5065 18.371 18.7507C18.2493 18.874 18.0885 18.9348 17.9285 18.9348C17.7693 18.9348 17.6093 18.874 17.4868 18.7523L14.8464 16.1193C13.4574 17.2316 11.6962 17.8976 9.78231 17.8976C5.30731 17.8976 1.66647 14.2567 1.66647 9.78175C1.66647 5.30675 5.30731 1.66675 9.78231 1.66675ZM9.78231 2.91675C5.99647 2.91675 2.91647 5.99591 2.91647 9.78175C2.91647 13.5676 5.99647 16.6476 9.78231 16.6476C13.5673 16.6476 16.6473 13.5676 16.6473 9.78175C16.6473 5.99591 13.5673 2.91675 9.78231 2.91675Z" fill="#A3A3A3"/>
</svg>
