<svg width="22" height="22" viewBox="0 0 22 22" fill="none" xmlns="http://www.w3.org/2000/svg">
<g clip-path="url(#clip0_44_979)">
<path d="M11.7431 21.6482H9.7803C9.11698 21.6482 8.55706 21.1514 8.4782 20.4916L8.26877 18.8477C7.8508 18.7119 7.44773 18.5445 7.06481 18.3491L5.75569 19.3665C5.22468 19.7774 4.47724 19.7301 4.01633 19.2561L2.63624 17.876C2.16569 17.4194 2.11837 16.672 2.52934 16.1419L3.54666 14.8319C3.35038 14.449 3.18302 14.0459 3.04808 13.6279L1.40073 13.4185C0.743538 13.3379 0.246704 12.7779 0.246704 12.1146V10.1518C0.246704 9.4885 0.743538 8.92858 1.40335 8.84972L3.0472 8.64029C3.18302 8.22232 3.35038 7.81925 3.54579 7.43633L2.52934 6.12721C2.1175 5.5962 2.16569 4.84788 2.64062 4.38698L4.02071 3.00688C4.47724 2.53634 5.22556 2.4899 5.75481 2.89998L7.06393 3.91818C7.44685 3.72278 7.84993 3.55542 8.26877 3.4196L8.4782 1.77225C8.55706 1.11506 9.11698 0.618225 9.7803 0.618225H11.7431C12.4064 0.618225 12.9663 1.11506 13.0452 1.77488L13.2546 3.41872C13.6735 3.55454 14.0766 3.7219 14.4595 3.91731L15.7686 2.89998C16.3005 2.48902 17.047 2.53634 17.508 3.01126L18.888 4.39136C19.3586 4.84788 19.4059 5.59532 18.9949 6.12546L17.9776 7.43545C18.1739 7.81837 18.3413 8.22145 18.4762 8.63942L20.1236 8.84884C20.7799 8.92858 21.2767 9.4885 21.2767 10.1518V12.1146C21.2767 12.7779 20.7799 13.3379 20.1201 13.4167L18.4762 13.6262C18.3404 14.0441 18.173 14.4472 17.9776 14.8301L18.9949 16.1392C19.4068 16.6702 19.3586 17.4177 18.8837 17.8786L17.5036 19.2587C17.047 19.7292 16.2987 19.7774 15.7695 19.3656L14.4595 18.3483C14.0766 18.5445 13.6735 18.7119 13.2555 18.8469L13.0461 20.4942C12.9663 21.1514 12.4064 21.6482 11.7431 21.6482ZM7.02012 17.3897C7.09285 17.3897 7.16733 17.4081 7.23392 17.4449C7.71674 17.7147 8.23986 17.932 8.78839 18.0898C8.95663 18.138 9.08018 18.2817 9.10209 18.4552L9.34744 20.3829C9.37372 20.6029 9.56387 20.772 9.7803 20.772H11.7431C11.9595 20.772 12.1497 20.6029 12.1751 20.3873L12.4213 18.456C12.4432 18.2825 12.5668 18.1388 12.735 18.0907C13.2836 17.9329 13.8067 17.7156 14.2895 17.4457C14.4428 17.3599 14.6339 17.3748 14.7714 17.4825L16.3049 18.6742C16.481 18.8109 16.7281 18.7995 16.8788 18.6444L18.2677 17.2556C18.4263 17.1014 18.4385 16.8543 18.3018 16.6773L17.1101 15.1438C17.0024 15.0054 16.9875 14.8152 17.0733 14.6619C17.3432 14.1791 17.5605 13.6559 17.7183 13.1074C17.7664 12.9392 17.9102 12.8156 18.0837 12.7937L20.0114 12.5484C20.2313 12.5212 20.4005 12.3311 20.4005 12.1146V10.1518C20.4005 9.93539 20.2313 9.74525 20.0158 9.71983L18.0845 9.47361C17.911 9.4517 17.7673 9.32815 17.7191 9.15991C17.5614 8.61138 17.3441 8.08826 17.0742 7.60544C16.9883 7.4521 17.0024 7.26195 17.111 7.12351L18.3027 5.59007C18.4403 5.41306 18.428 5.16596 18.2738 5.017L16.8849 3.62814C16.7316 3.46867 16.4836 3.4564 16.3066 3.59397L14.7732 4.78567C14.6339 4.89345 14.4437 4.90835 14.2904 4.82247C13.8093 4.55259 13.2862 4.33615 12.7359 4.17755C12.5677 4.12936 12.4441 3.98565 12.4222 3.81216L12.1768 1.88441C12.1497 1.66359 11.9595 1.49448 11.7431 1.49448H9.7803C9.56387 1.49448 9.37372 1.66359 9.34831 1.87915L9.10209 3.8104C9.08018 3.9839 8.95663 4.12761 8.78839 4.17668C8.2381 4.3344 7.71498 4.55171 7.23392 4.82072C7.08058 4.90747 6.89043 4.8917 6.75111 4.78479L5.21767 3.59309C5.04067 3.45552 4.79444 3.46779 4.6446 3.62201L3.25575 5.01174C3.09715 5.16596 3.08488 5.41306 3.22157 5.59007L4.41327 7.12351C4.52105 7.26195 4.53595 7.4521 4.45008 7.60544C4.17931 8.08826 3.96288 8.61138 3.80516 9.15991C3.75696 9.32815 3.61326 9.4517 3.43976 9.47361L1.51201 9.71896C1.29207 9.74524 1.12295 9.93539 1.12295 10.1518V12.1146C1.12295 12.3311 1.29207 12.5212 1.50763 12.5466L3.43888 12.7928C3.61238 12.8147 3.75609 12.9383 3.80428 13.1065C3.962 13.6551 4.17931 14.1782 4.4492 14.661C4.53507 14.8144 4.52105 15.0045 4.4124 15.1429L3.2207 16.6764C3.08313 16.8534 3.09539 17.1005 3.24961 17.2495L4.63847 18.6383C4.79181 18.7969 5.03804 18.8092 5.21679 18.6725L6.75023 17.4808C6.82997 17.4212 6.92461 17.3897 7.02012 17.3897Z" fill="#3EBF80"/>
<path d="M7.02012 17.3897C7.09285 17.3897 7.16733 17.4081 7.23392 17.4449C7.71674 17.7147 8.23986 17.932 8.78839 18.0898C8.95663 18.138 9.08018 18.2817 9.10209 18.4552L9.34744 20.3829C9.37372 20.6029 9.56387 20.772 9.7803 20.772H11.7431C11.9595 20.772 12.1497 20.6029 12.1751 20.3873L12.4213 18.456C12.4432 18.2825 12.5668 18.1388 12.735 18.0907C13.2836 17.9329 13.8067 17.7156 14.2895 17.4457C14.4428 17.3599 14.6339 17.3748 14.7714 17.4825L16.3049 18.6742C16.481 18.8109 16.7281 18.7995 16.8788 18.6444L18.2677 17.2556C18.4263 17.1014 18.4385 16.8543 18.3018 16.6773L17.1101 15.1438C17.0024 15.0054 16.9875 14.8152 17.0733 14.6619C17.3432 14.1791 17.5605 13.6559 17.7183 13.1074C17.7664 12.9392 17.9102 12.8156 18.0837 12.7937L20.0114 12.5484C20.2313 12.5212 20.4005 12.3311 20.4005 12.1146V10.1518C20.4005 9.93539 20.2313 9.74525 20.0158 9.71983L18.0845 9.47361C17.911 9.4517 17.7673 9.32815 17.7191 9.15991C17.5614 8.61138 17.3441 8.08826 17.0742 7.60544C16.9883 7.4521 17.0024 7.26195 17.111 7.12351L18.3027 5.59007C18.4403 5.41306 18.428 5.16596 18.2738 5.017L16.8849 3.62814C16.7316 3.46867 16.4836 3.4564 16.3066 3.59397L14.7732 4.78567C14.6339 4.89345 14.4437 4.90835 14.2904 4.82247C13.8093 4.55259 13.2862 4.33615 12.7359 4.17755C12.5677 4.12936 12.4441 3.98565 12.4222 3.81216L12.1768 1.88441C12.1497 1.66359 11.9595 1.49448 11.7431 1.49448H9.7803C9.56387 1.49448 9.37372 1.66359 9.34831 1.87915L9.10209 3.8104C9.08018 3.9839 8.95663 4.12761 8.78839 4.17668C8.2381 4.3344 7.71498 4.55171 7.23392 4.82072C7.08058 4.90747 6.89043 4.8917 6.75111 4.78479L5.21767 3.59309C5.04067 3.45552 4.79444 3.46779 4.6446 3.62201L3.25575 5.01174C3.09715 5.16596 3.08488 5.41306 3.22157 5.59007L4.41327 7.12351C4.52105 7.26195 4.53595 7.4521 4.45008 7.60544C4.17931 8.08826 3.96288 8.61138 3.80516 9.15991C3.75696 9.32815 3.61326 9.4517 3.43976 9.47361L1.51201 9.71896C1.29207 9.74524 1.12295 9.93539 1.12295 10.1518V12.1146C1.12295 12.3311 1.29207 12.5212 1.50763 12.5466L3.43888 12.7928C3.61238 12.8147 3.75609 12.9383 3.80428 13.1065C3.962 13.6551 4.17931 14.1782 4.4492 14.661C4.53507 14.8144 4.52105 15.0045 4.4124 15.1429L3.2207 16.6764C3.08313 16.8534 3.09539 17.1005 3.24961 17.2495L4.63847 18.6383C4.79181 18.7969 5.03804 18.8092 5.21679 18.6725L6.75023 17.4808C6.82997 17.4212 6.92461 17.3897 7.02012 17.3897Z" fill="#3EBF80"/>
<path d="M10.7617 15.5145C8.34592 15.5145 6.38049 13.5491 6.38049 11.1332C6.38049 8.71741 8.34592 6.75198 10.7617 6.75198C13.1776 6.75198 15.143 8.71741 15.143 11.1332C15.143 13.5491 13.1776 15.5145 10.7617 15.5145ZM10.7617 7.62823C8.82874 7.62823 7.25674 9.20023 7.25674 11.1332C7.25674 13.0662 8.82874 14.6382 10.7617 14.6382C12.6948 14.6382 14.2667 13.0662 14.2667 11.1332C14.2667 9.20023 12.6948 7.62823 10.7617 7.62823Z" fill="#3EBF80"/>
<path d="M10.7617 7.62823C8.82874 7.62823 7.25674 9.20023 7.25674 11.1332C7.25674 13.0662 8.82874 14.6382 10.7617 14.6382C12.6948 14.6382 14.2667 13.0662 14.2667 11.1332C14.2667 9.20023 12.6948 7.62823 10.7617 7.62823Z" fill="white"/>
</g>
<defs>
<clipPath id="clip0_44_979">
<rect width="21.03" height="21.03" fill="white" transform="translate(0.246704 0.618225)"/>
</clipPath>
</defs>
</svg>
