<svg width="22" height="22" viewBox="0 0 22 22" fill="none" xmlns="http://www.w3.org/2000/svg">
<g clip-path="url(#clip0_44_936)">
<path d="M11.9814 21.4124H10.0186C9.35526 21.4124 8.79534 20.9156 8.71648 20.2557L8.50705 18.6119C8.08908 18.4761 7.68601 18.3087 7.30309 18.1133L5.99397 19.1306C5.46296 19.5416 4.71552 19.4943 4.25461 19.0202L2.87452 17.6401C2.40397 17.1836 2.35666 16.4362 2.76762 15.906L3.78494 14.596C3.58866 14.2131 3.4213 13.81 3.28636 13.3921L1.63901 13.1826C0.981819 13.102 0.484985 12.5421 0.484985 11.8788V9.91599C0.484985 9.25266 0.981819 8.69274 1.64164 8.61388L3.28548 8.40445C3.4213 7.98648 3.58866 7.58341 3.78407 7.20049L2.76762 5.89137C2.35578 5.36036 2.40397 4.61204 2.8789 4.15114L4.25899 2.77104C4.71552 2.3005 5.46384 2.25406 5.99309 2.66414L7.30221 3.68234C7.68513 3.48694 8.08821 3.31958 8.50705 3.18376L8.71648 1.53641C8.79534 0.879219 9.35526 0.382385 10.0186 0.382385H11.9814C12.6447 0.382385 13.2046 0.879219 13.2835 1.53904L13.4929 3.18288C13.9118 3.3187 14.3148 3.48606 14.6978 3.68147L16.0069 2.66414C16.5388 2.25318 17.2853 2.3005 17.7462 2.77542L19.1263 4.15552C19.5969 4.61204 19.6442 5.35949 19.2332 5.88962L18.2159 7.19961C18.4122 7.58253 18.5795 7.98561 18.7145 8.40358L20.3618 8.613C21.0182 8.69274 21.515 9.25266 21.515 9.91599V11.8788C21.515 12.5421 21.0182 13.102 20.3583 13.1809L18.7145 13.3903C18.5787 13.8083 18.4113 14.2114 18.2159 14.5943L19.2332 15.9034C19.6451 16.4344 19.5969 17.1819 19.1219 17.6428L17.7419 19.0229C17.2853 19.4934 16.537 19.5416 16.0078 19.1298L14.6978 18.1124C14.3148 18.3087 13.9118 18.4761 13.4938 18.611L13.2844 20.2584C13.2046 20.9156 12.6447 21.4124 11.9814 21.4124ZM7.2584 17.1538C7.33113 17.1538 7.40561 17.1722 7.4722 17.209C7.95502 17.4789 8.47814 17.6962 9.02667 17.8539C9.19491 17.9021 9.31846 18.0458 9.34037 18.2193L9.58572 20.1471C9.61201 20.367 9.80215 20.5361 10.0186 20.5361H11.9814C12.1978 20.5361 12.388 20.367 12.4134 20.1515L12.6596 18.2202C12.6815 18.0467 12.8051 17.903 12.9733 17.8548C13.5218 17.6971 14.045 17.4798 14.5278 17.2099C14.6811 17.124 14.8721 17.1389 15.0097 17.2467L16.5431 18.4384C16.7193 18.5751 16.9664 18.5637 17.1171 18.4086L18.5059 17.0197C18.6645 16.8655 18.6768 16.6184 18.5401 16.4414L17.3484 14.908C17.2406 14.7695 17.2257 14.5794 17.3116 14.426C17.5815 13.9432 17.7988 13.4201 17.9565 12.8716C18.0047 12.7033 18.1484 12.5798 18.3219 12.5579L20.2497 12.3125C20.4696 12.2854 20.6387 12.0952 20.6387 11.8788V9.91599C20.6387 9.69955 20.4696 9.50941 20.2541 9.48399L18.3228 9.23777C18.1493 9.21586 18.0056 9.09231 17.9574 8.92407C17.7997 8.37554 17.5824 7.85242 17.3125 7.3696C17.2266 7.21626 17.2406 7.02611 17.3493 6.88767L18.541 5.35423C18.6786 5.17723 18.6663 4.93012 18.5121 4.78116L17.1232 3.3923C16.9699 3.23283 16.7219 3.22056 16.5449 3.35813L15.0115 4.54983C14.8721 4.65761 14.682 4.67251 14.5286 4.58663C14.0476 4.31675 13.5245 4.10031 12.9742 3.94171C12.8059 3.89352 12.6824 3.74981 12.6605 3.57632L12.4151 1.64857C12.388 1.42775 12.1978 1.25864 11.9814 1.25864H10.0186C9.80215 1.25864 9.61201 1.42775 9.58659 1.64331L9.34037 3.57456C9.31846 3.74806 9.19491 3.89177 9.02667 3.94084C8.47639 4.09856 7.95326 4.31587 7.4722 4.58488C7.31886 4.67163 7.12871 4.65586 6.98939 4.54895L5.45595 3.35725C5.27895 3.21968 5.03272 3.23195 4.88288 3.38617L3.49403 4.7759C3.33543 4.93012 3.32316 5.17723 3.45985 5.35423L4.65155 6.88767C4.75933 7.02611 4.77423 7.21626 4.68836 7.3696C4.4176 7.85242 4.20116 8.37554 4.04344 8.92407C3.99524 9.09231 3.85154 9.21586 3.67804 9.23777L1.75029 9.48312C1.53035 9.50941 1.36124 9.69955 1.36124 9.91599V11.8788C1.36124 12.0952 1.53035 12.2854 1.74591 12.3108L3.67716 12.557C3.85066 12.5789 3.99437 12.7025 4.04256 12.8707C4.20029 13.4192 4.4176 13.9424 4.68748 14.4252C4.77335 14.5785 4.75933 14.7687 4.65068 14.9071L3.45898 16.4405C3.32141 16.6175 3.33367 16.8646 3.48789 17.0136L4.87675 18.4025C5.03009 18.5611 5.27632 18.5733 5.45508 18.4366L6.98851 17.2449C7.06825 17.1854 7.16289 17.1538 7.2584 17.1538Z" fill="#9DB2CE"/>
<path d="M11 15.2786C8.5842 15.2786 6.61877 13.3132 6.61877 10.8974C6.61877 8.48157 8.5842 6.51614 11 6.51614C13.4158 6.51614 15.3813 8.48157 15.3813 10.8974C15.3813 13.3132 13.4158 15.2786 11 15.2786ZM11 7.39239C9.06702 7.39239 7.49502 8.96439 7.49502 10.8974C7.49502 12.8304 9.06702 14.4024 11 14.4024C12.933 14.4024 14.505 12.8304 14.505 10.8974C14.505 8.96439 12.933 7.39239 11 7.39239Z" fill="#9DB2CE"/>
</g>
<defs>
<clipPath id="clip0_44_936">
<rect width="21.03" height="21.03" fill="white" transform="translate(0.484985 0.382385)"/>
</clipPath>
</defs>
</svg>
