<svg width="28" height="28" viewBox="0 0 28 28" fill="none" xmlns="http://www.w3.org/2000/svg">
<path d="M10.5001 14.0002C10.5001 14.7737 10.1928 15.5156 9.64581 16.0626C9.09883 16.6095 8.35696 16.9168 7.58341 16.9168C6.80987 16.9168 6.068 16.6095 5.52102 16.0626C4.97404 15.5156 4.66675 14.7737 4.66675 14.0002C4.66675 13.2266 4.97404 12.4847 5.52102 11.9378C6.068 11.3908 6.80987 11.0835 7.58341 11.0835C8.35696 11.0835 9.09883 11.3908 9.64581 11.9378C10.1928 12.4847 10.5001 13.2266 10.5001 14.0002Z" stroke="white" stroke-width="1.25"/>
<path d="M16.3333 7.5835L10.5 11.6668M16.3333 20.4168L10.5 16.3335" stroke="white" stroke-width="1.25" stroke-linecap="round"/>
<path d="M22.1668 21.5833C22.1668 22.3569 21.8595 23.0987 21.3126 23.6457C20.7656 24.1927 20.0237 24.5 19.2502 24.5C18.4766 24.5 17.7347 24.1927 17.1878 23.6457C16.6408 23.0987 16.3335 22.3569 16.3335 21.5833C16.3335 20.8098 16.6408 20.0679 17.1878 19.5209C17.7347 18.974 18.4766 18.6667 19.2502 18.6667C20.0237 18.6667 20.7656 18.974 21.3126 19.5209C21.8595 20.0679 22.1668 20.8098 22.1668 21.5833ZM22.1668 6.41667C22.1668 7.19021 21.8595 7.93208 21.3126 8.47906C20.7656 9.02604 20.0237 9.33333 19.2502 9.33333C18.4766 9.33333 17.7347 9.02604 17.1878 8.47906C16.6408 7.93208 16.3335 7.19021 16.3335 6.41667C16.3335 5.64312 16.6408 4.90125 17.1878 4.35427C17.7347 3.80729 18.4766 3.5 19.2502 3.5C20.0237 3.5 20.7656 3.80729 21.3126 4.35427C21.8595 4.90125 22.1668 5.64312 22.1668 6.41667Z" stroke="white" stroke-width="1.25"/>
</svg>
