<svg width="18" height="18" viewBox="0 0 18 18" fill="none" xmlns="http://www.w3.org/2000/svg">
<path d="M6.62753 3.5065C7.68337 1.61317 8.21087 0.666504 9.00003 0.666504C9.7892 0.666504 10.3167 1.61317 11.3725 3.5065L11.6459 3.9965C11.9459 4.53484 12.0959 4.804 12.3292 4.9815C12.5625 5.159 12.8542 5.22484 13.4375 5.3565L13.9675 5.4765C16.0175 5.94067 17.0417 6.17234 17.2859 6.9565C17.5292 7.73984 16.8309 8.55734 15.4334 10.1915L15.0717 10.614C14.675 11.0782 14.4759 11.3107 14.3867 11.5973C14.2975 11.8848 14.3275 12.1948 14.3875 12.814L14.4425 13.3782C14.6534 15.559 14.7592 16.649 14.1209 17.1332C13.4825 17.6182 12.5225 17.1757 10.6042 16.2923L10.1067 16.064C9.5617 15.8123 9.2892 15.6873 9.00003 15.6873C8.71087 15.6873 8.43837 15.8123 7.89337 16.064L7.3967 16.2923C5.47753 17.1757 4.51753 17.6173 3.88003 17.134C3.24087 16.649 3.3467 15.559 3.55753 13.3782L3.61253 12.8148C3.67253 12.1948 3.70253 11.8848 3.61253 11.5982C3.5242 11.3107 3.32503 11.0782 2.92837 10.6148L2.5667 10.1915C1.1692 8.55817 0.470866 7.74067 0.7142 6.9565C0.958366 6.17234 1.98337 5.93984 4.03337 5.4765L4.56337 5.3565C5.14587 5.22484 5.4367 5.159 5.67087 4.9815C5.9042 4.804 6.0542 4.53484 6.3542 3.9965L6.62753 3.5065Z" fill="#FFA800"/>
</svg>
