<svg width="8" height="14" viewBox="0 0 8 14" fill="none" xmlns="http://www.w3.org/2000/svg">
<path d="M7.67353 4.32618L4.7324 4.57927L5.68141 1.28916C5.70561 1.20288 5.69217 1.10797 5.64109 1.0332C5.59001 0.958423 5.50936 0.915283 5.42601 0.915283H1.56813C1.42834 0.915283 1.31273 1.03032 1.29929 1.17987L0.77505 7.86074C0.769673 7.94415 0.796557 8.03043 0.853014 8.08794C0.90947 8.14834 0.987435 8.1771 1.06809 8.17135L3.67854 7.91539L3.17581 13.5465C3.16237 13.6846 3.24571 13.8111 3.36937 13.8514C3.39357 13.86 3.42045 13.8629 3.44465 13.8629C3.54412 13.8629 3.63822 13.8054 3.68392 13.7047L7.93431 4.7432C7.97732 4.65116 7.97195 4.539 7.91818 4.45272C7.86441 4.36644 7.77032 4.31755 7.67353 4.32618Z" fill="white"/>
</svg>
