<svg width="33" height="32" viewBox="0 0 33 32" fill="none" xmlns="http://www.w3.org/2000/svg">
<rect x="0.5" width="32" height="32" rx="16" fill="#F0FAF5"/>
<path fill-rule="evenodd" clip-rule="evenodd" d="M16.5 10.333C13.3753 10.333 10.8333 12.875 10.8333 15.9997C10.8333 19.1243 13.3753 21.6663 16.5 21.6663C19.6246 21.6663 22.1666 19.1243 22.1666 15.9997C22.1666 12.875 19.6246 10.333 16.5 10.333ZM16.5 22.6663C12.824 22.6663 9.83331 19.6757 9.83331 15.9997C9.83331 12.3237 12.824 9.33301 16.5 9.33301C20.176 9.33301 23.1666 12.3237 23.1666 15.9997C23.1666 19.6757 20.176 22.6663 16.5 22.6663Z" fill="#3EBF80"/>
<path fill-rule="evenodd" clip-rule="evenodd" d="M18.7874 18.4608C18.7001 18.4608 18.6121 18.4382 18.5314 18.3908L16.0181 16.8915C15.8674 16.8008 15.7741 16.6375 15.7741 16.4615V13.2295C15.7741 12.9535 15.9981 12.7295 16.2741 12.7295C16.5508 12.7295 16.7741 12.9535 16.7741 13.2295V16.1775L19.0441 17.5308C19.2808 17.6728 19.3588 17.9795 19.2174 18.2168C19.1234 18.3735 18.9574 18.4608 18.7874 18.4608Z" fill="#3EBF80"/>
</svg>
