<svg width="32" height="32" viewBox="0 0 32 32" fill="none" xmlns="http://www.w3.org/2000/svg">
<rect width="32" height="32" rx="16" fill="#F0FAF5"/>
<path d="M21.2984 14.1842C21.2344 14.0558 21.095 13.9828 20.953 14.0032L16.9797 14.5708L20.619 8.50449C20.7057 8.36016 20.671 8.17383 20.5384 8.07049C20.4057 7.96716 20.2164 7.97849 20.0974 8.09749L10.764 17.4308C10.6624 17.5325 10.6374 17.6872 10.7014 17.8155C10.7654 17.9438 10.9047 18.0168 11.0467 17.9965L15.02 17.4288L11.381 23.4952C11.2944 23.6395 11.329 23.8258 11.4617 23.9292C11.5944 24.0325 11.7837 24.0212 11.9027 23.9022L21.236 14.5688C21.3374 14.4672 21.3624 14.3125 21.2984 14.1842ZM13.3457 21.5162L15.9527 17.1708C16.019 17.0608 16.0157 16.9222 15.9447 16.8152C15.8734 16.7078 15.7474 16.6512 15.62 16.6695L11.9434 17.1945L18.6547 10.4832L16.0477 14.8285C15.9814 14.9385 15.9847 15.0772 16.0557 15.1842C16.127 15.2915 16.253 15.3482 16.3804 15.3298L20.0574 14.8045L13.3457 21.5162Z" fill="#3EBF80"/>
</svg>
