<svg width="32" height="32" viewBox="0 0 32 32" fill="none" xmlns="http://www.w3.org/2000/svg">
<rect width="32" height="32" rx="16" fill="#F0FAF5"/>
<path fill-rule="evenodd" clip-rule="evenodd" d="M22.5925 18.5968H19.8938C18.6291 18.5968 17.5998 17.5681 17.5991 16.3041C17.5991 15.0388 18.6285 14.0095 19.8938 14.0088H22.5925C22.8685 14.0088 23.0925 14.2328 23.0925 14.5088C23.0925 14.7848 22.8685 15.0088 22.5925 15.0088H19.8938C19.1798 15.0095 18.5991 15.5901 18.5991 16.3035C18.5991 17.0161 19.1805 17.5968 19.8938 17.5968H22.5925C22.8685 17.5968 23.0925 17.8208 23.0925 18.0968C23.0925 18.3728 22.8685 18.5968 22.5925 18.5968Z" fill="#3EBF80"/>
<path fill-rule="evenodd" clip-rule="evenodd" d="M20.199 16.7627H19.991C19.715 16.7627 19.491 16.5387 19.491 16.2627C19.491 15.9867 19.715 15.7627 19.991 15.7627H20.199C20.475 15.7627 20.699 15.9867 20.699 16.2627C20.699 16.5387 20.475 16.7627 20.199 16.7627Z" fill="#3EBF80"/>
<mask id="mask0_404_2176" style="mask-type:luminance" maskUnits="userSpaceOnUse" x="9" y="10" width="15" height="13">
<path fill-rule="evenodd" clip-rule="evenodd" d="M9.33337 10H23.0924V22.7819H9.33337V10Z" fill="white"/>
</mask>
<g mask="url(#mask0_404_2176)">
<path fill-rule="evenodd" clip-rule="evenodd" d="M13.3318 11C11.6785 11 10.3331 12.3453 10.3331 13.9987V18.7833C10.3331 20.4367 11.6785 21.782 13.3318 21.782H19.0945C20.7478 21.782 22.0925 20.4367 22.0925 18.7833V13.9987C22.0925 12.3453 20.7478 11 19.0945 11H13.3318ZM19.0945 22.782H13.3318C11.1271 22.782 9.33313 20.988 9.33313 18.7833V13.9987C9.33313 11.7933 11.1271 10 13.3318 10H19.0945C21.2991 10 23.0925 11.7933 23.0925 13.9987V18.7833C23.0925 20.988 21.2991 22.782 19.0945 22.782Z" fill="#3EBF80"/>
</g>
<path fill-rule="evenodd" clip-rule="evenodd" d="M16.4564 14.0254H12.8571C12.5811 14.0254 12.3571 13.8014 12.3571 13.5254C12.3571 13.2494 12.5811 13.0254 12.8571 13.0254H16.4564C16.7324 13.0254 16.9564 13.2494 16.9564 13.5254C16.9564 13.8014 16.7324 14.0254 16.4564 14.0254Z" fill="#3EBF80"/>
</svg>
