<svg width="23" height="22" viewBox="0 0 23 22" fill="none" xmlns="http://www.w3.org/2000/svg">
<path d="M21.8588 10.0195V7.52795C21.8592 7.25272 21.8053 6.98013 21.7001 6.72578C21.595 6.47143 21.4407 6.24033 21.2461 6.04572C21.0515 5.85111 20.8204 5.69681 20.566 5.59168C20.3117 5.48654 20.0391 5.43263 19.7639 5.43303H18.4011L7.26553 0.79573C7.07619 0.715759 6.87277 0.674455 6.66723 0.674249C6.4617 0.674042 6.25819 0.714937 6.06869 0.794528C5.87919 0.874119 5.70751 0.990799 5.56376 1.13771C5.42001 1.28461 5.30709 1.45878 5.23163 1.64997L3.71638 5.43303H2.59773C2.32251 5.43263 2.04991 5.48654 1.79556 5.59168C1.54121 5.69681 1.31011 5.85111 1.1155 6.04572C0.920891 6.24033 0.766595 6.47143 0.661458 6.72578C0.556321 6.98013 0.502408 7.25272 0.50281 7.52795V19.6093C0.502408 19.8845 0.556321 20.1571 0.661458 20.4115C0.766595 20.6658 0.920891 20.8969 1.1155 21.0916C1.31011 21.2862 1.54121 21.4405 1.79556 21.5456C2.04991 21.6507 2.32251 21.7046 2.59773 21.7042H19.7639C20.0391 21.7046 20.3117 21.6507 20.566 21.5456C20.8204 21.4405 21.0515 21.2862 21.2461 21.0916C21.4407 20.8969 21.595 20.6658 21.7001 20.4115C21.8053 20.1571 21.8592 19.8845 21.8588 19.6093V17.1178C22.1308 17.1083 22.3885 16.994 22.5781 16.7988C22.7677 16.6035 22.8743 16.3425 22.8757 16.0703V11.0669C22.8743 10.7948 22.7677 10.5338 22.5781 10.3385C22.3885 10.1433 22.1308 10.0289 21.8588 10.0195ZM6.1774 2.02624C6.20179 1.96001 6.23971 1.89959 6.28873 1.84882C6.33776 1.79804 6.39681 1.75803 6.46214 1.73133C6.59299 1.68057 6.73808 1.68057 6.86892 1.73133L15.7571 5.43303H13.2961L7.2757 3.42963C7.1515 3.3864 7.01538 3.39296 6.89592 3.44795C6.77646 3.50295 6.68295 3.60208 6.63503 3.72455L5.97401 5.43303H4.81468L6.1774 2.02624ZM10.0825 5.43303H7.07231L7.40791 4.54828L10.0825 5.43303ZM20.8418 19.6093C20.8416 19.8951 20.7279 20.1692 20.5258 20.3713C20.3237 20.5734 20.0497 20.687 19.7639 20.6873H2.59773C2.31192 20.687 2.03789 20.5734 1.83579 20.3713C1.63369 20.1692 1.52003 19.8951 1.51976 19.6093V7.52795C1.52163 7.24263 1.6358 6.96952 1.83755 6.76777C2.03931 6.56601 2.31241 6.45184 2.59773 6.44998H19.7639C20.0492 6.45184 20.3223 6.56601 20.524 6.76777C20.7258 6.96952 20.84 7.24263 20.8418 7.52795V10.0093H16.2656C15.3216 10.0093 14.4162 10.3843 13.7487 11.0518C13.0812 11.7193 12.7062 12.6246 12.7062 13.5686C12.7062 14.5126 13.0812 15.418 13.7487 16.0855C14.4162 16.753 15.3216 17.128 16.2656 17.128H20.8418V19.6093ZM21.8588 16.0703C21.8581 16.0809 21.8536 16.0908 21.8461 16.0983C21.8386 16.1058 21.8287 16.1103 21.8181 16.111H16.2656C15.5913 16.111 14.9446 15.8432 14.4678 15.3664C13.991 14.8896 13.7232 14.2429 13.7232 13.5686C13.7232 12.8944 13.991 12.2477 14.4678 11.7709C14.9446 11.2941 15.5913 11.0263 16.2656 11.0263L21.8588 11.0669V16.0703Z" fill="#9DB2CE"/>
<path d="M16.2655 12.043C15.9638 12.043 15.6689 12.1324 15.4181 12.3C15.1672 12.4677 14.9717 12.7059 14.8562 12.9846C14.7408 13.2634 14.7106 13.5701 14.7694 13.866C14.8283 14.1619 14.9736 14.4337 15.1869 14.647C15.4002 14.8604 15.672 15.0056 15.9679 15.0645C16.2638 15.1234 16.5706 15.0932 16.8493 14.9777C17.128 14.8622 17.3663 14.6667 17.5339 14.4159C17.7015 14.165 17.791 13.8701 17.791 13.5684C17.791 13.1638 17.6303 12.7758 17.3442 12.4897C17.0581 12.2037 16.6701 12.043 16.2655 12.043ZM16.2655 14.0769C16.165 14.0769 16.0667 14.047 15.983 13.9912C15.8994 13.9353 15.8343 13.8559 15.7958 13.763C15.7573 13.6701 15.7472 13.5678 15.7668 13.4692C15.7865 13.3706 15.8349 13.2799 15.906 13.2088C15.9771 13.1377 16.0677 13.0893 16.1663 13.0697C16.265 13.0501 16.3672 13.0601 16.4601 13.0986C16.553 13.1371 16.6325 13.2023 16.6883 13.2859C16.7442 13.3695 16.774 13.4678 16.774 13.5684C16.774 13.7032 16.7204 13.8326 16.6251 13.9279C16.5297 14.0233 16.4004 14.0769 16.2655 14.0769Z" fill="#9DB2CE"/>
<path d="M6.60456 8.9921C6.60456 9.12695 6.55099 9.25628 6.45564 9.35164C6.36028 9.447 6.23095 9.50057 6.09609 9.50057H4.06219C3.92733 9.50057 3.798 9.447 3.70264 9.35164C3.60728 9.25628 3.55371 9.12695 3.55371 8.9921C3.55371 8.85724 3.60728 8.72791 3.70264 8.63255C3.798 8.53719 3.92733 8.48362 4.06219 8.48362H6.09609C6.23095 8.48362 6.36028 8.53719 6.45564 8.63255C6.55099 8.72791 6.60456 8.85724 6.60456 8.9921Z" fill="#9DB2CE"/>
<path d="M8.63847 11.026C8.63847 11.1609 8.5849 11.2902 8.48954 11.3856C8.39418 11.4809 8.26485 11.5345 8.12999 11.5345H4.06219C3.92733 11.5345 3.798 11.4809 3.70264 11.3856C3.60728 11.2902 3.55371 11.1609 3.55371 11.026C3.55371 10.8912 3.60728 10.7619 3.70264 10.6665C3.798 10.5711 3.92733 10.5176 4.06219 10.5176H8.12999C8.26485 10.5176 8.39418 10.5711 8.48954 10.6665C8.5849 10.7619 8.63847 10.8912 8.63847 11.026Z" fill="#9DB2CE"/>
</svg>
