<svg width="23" height="22" viewBox="0 0 23 22" fill="none" xmlns="http://www.w3.org/2000/svg">
<path d="M21.9312 10.2202V7.7287C21.9316 7.45348 21.8777 7.18088 21.7725 6.92653C21.6674 6.67218 21.5131 6.44108 21.3185 6.24647C21.1239 6.05186 20.8928 5.89756 20.6384 5.79243C20.3841 5.68729 20.1115 5.63338 19.8363 5.63378H18.4735L7.33792 0.996483C7.14858 0.916511 6.94516 0.875207 6.73962 0.875001C6.53408 0.874794 6.33058 0.915689 6.14108 0.99528C5.95157 1.07487 5.7799 1.19155 5.63615 1.33846C5.4924 1.48537 5.37948 1.65953 5.30402 1.85072L3.78876 5.63378H2.67012C2.3949 5.63338 2.1223 5.68729 1.86795 5.79243C1.6136 5.89756 1.3825 6.05186 1.18789 6.24647C0.993278 6.44108 0.838983 6.67218 0.733846 6.92653C0.628708 7.18088 0.574796 7.45348 0.575198 7.7287V19.8101C0.574796 20.0853 0.628708 20.3579 0.733846 20.6122C0.838983 20.8666 0.993278 21.0977 1.18789 21.2923C1.3825 21.4869 1.6136 21.6412 1.86795 21.7463C2.1223 21.8515 2.3949 21.9054 2.67012 21.905H19.8363C20.1115 21.9054 20.3841 21.8515 20.6384 21.7463C20.8928 21.6412 21.1239 21.4869 21.3185 21.2923C21.5131 21.0977 21.6674 20.8666 21.7725 20.6122C21.8777 20.3579 21.9316 20.0853 21.9312 19.8101V17.3185C22.2031 17.3091 22.4609 17.1948 22.6505 16.9995C22.84 16.8043 22.9467 16.5432 22.9481 16.2711V11.2677C22.9467 10.9956 22.84 10.7345 22.6505 10.5393C22.4609 10.344 22.2031 10.2297 21.9312 10.2202ZM6.24978 2.22699C6.27418 2.16077 6.3121 2.10034 6.36112 2.04957C6.41014 1.99879 6.4692 1.95878 6.53453 1.93208C6.66537 1.88132 6.81047 1.88132 6.94131 1.93208L15.8295 5.63378H13.3684L7.34809 3.63039C7.22389 3.58715 7.08777 3.59372 6.96831 3.64871C6.84885 3.7037 6.75534 3.80283 6.70741 3.9253L6.04639 5.63378H4.88707L6.24978 2.22699ZM10.1549 5.63378H7.1447L7.4803 4.74903L10.1549 5.63378ZM20.9142 19.8101C20.9139 20.0959 20.8003 20.3699 20.5982 20.572C20.3961 20.7741 20.1221 20.8878 19.8363 20.888H2.67012C2.3843 20.8878 2.11028 20.7741 1.90818 20.572C1.70608 20.3699 1.59242 20.0959 1.59215 19.8101V7.7287C1.59401 7.44338 1.70818 7.17028 1.90994 6.96852C2.1117 6.76677 2.3848 6.6526 2.67012 6.65073H19.8363C20.1216 6.6526 20.3947 6.76677 20.5964 6.96852C20.7982 7.17028 20.9124 7.44338 20.9142 7.7287V10.2101H16.3379C15.3939 10.2101 14.4886 10.5851 13.8211 11.2526C13.1536 11.9201 12.7786 12.8254 12.7786 13.7694C12.7786 14.7134 13.1536 15.6187 13.8211 16.2862C14.4886 16.9537 15.3939 17.3287 16.3379 17.3287H20.9142V19.8101ZM21.9312 16.2711C21.9305 16.2816 21.9259 16.2916 21.9185 16.2991C21.911 16.3065 21.901 16.3111 21.8905 16.3118H16.3379C15.6637 16.3118 15.017 16.0439 14.5402 15.5671C14.0634 15.0903 13.7956 14.4437 13.7956 13.7694C13.7956 13.0951 14.0634 12.4484 14.5402 11.9717C15.017 11.4949 15.6637 11.227 16.3379 11.227L21.9312 11.2677V16.2711Z" fill="#3EBF80"/>
<path d="M20.9142 19.8101C20.9139 20.0959 20.8003 20.3699 20.5982 20.572C20.3961 20.7741 20.1221 20.8878 19.8363 20.888H2.67012C2.3843 20.8878 2.11028 20.7741 1.90818 20.572C1.70608 20.3699 1.59242 20.0959 1.59215 19.8101V7.7287C1.59401 7.44338 1.70818 7.17028 1.90994 6.96852C2.1117 6.76677 2.3848 6.6526 2.67012 6.65073H19.8363C20.1216 6.6526 20.3947 6.76677 20.5964 6.96852C20.7982 7.17028 20.9124 7.44338 20.9142 7.7287V10.2101H16.3379C15.3939 10.2101 14.4886 10.5851 13.8211 11.2526C13.1536 11.9201 12.7786 12.8254 12.7786 13.7694C12.7786 14.7134 13.1536 15.6187 13.8211 16.2862C14.4886 16.9537 15.3939 17.3287 16.3379 17.3287H20.9142V19.8101Z" fill="#3EBF80"/>
<path d="M16.3379 12.2437C16.0362 12.2437 15.7413 12.3332 15.4904 12.5008C15.2396 12.6684 15.0441 12.9066 14.9286 13.1854C14.8132 13.4641 14.783 13.7708 14.8418 14.0667C14.9007 14.3626 15.046 14.6344 15.2593 14.8478C15.4726 15.0611 15.7444 15.2064 16.0403 15.2653C16.3362 15.3241 16.6429 15.2939 16.9217 15.1785C17.2004 15.063 17.4387 14.8675 17.6063 14.6166C17.7739 14.3658 17.8634 14.0708 17.8634 13.7691C17.8634 13.3646 17.7026 12.9766 17.4166 12.6905C17.1305 12.4044 16.7425 12.2437 16.3379 12.2437ZM16.3379 14.2776C16.2374 14.2776 16.1391 14.2478 16.0554 14.1919C15.9718 14.136 15.9066 14.0566 15.8682 13.9637C15.8297 13.8708 15.8196 13.7686 15.8392 13.6699C15.8588 13.5713 15.9073 13.4807 15.9784 13.4096C16.0495 13.3385 16.1401 13.2901 16.2387 13.2704C16.3374 13.2508 16.4396 13.2609 16.5325 13.2994C16.6254 13.3379 16.7048 13.403 16.7607 13.4866C16.8166 13.5703 16.8464 13.6686 16.8464 13.7691C16.8464 13.904 16.7928 14.0333 16.6975 14.1287C16.6021 14.224 16.4728 14.2776 16.3379 14.2776Z" fill="#3EBF80"/>
<path d="M6.67695 9.19285C6.67695 9.3277 6.62338 9.45704 6.52802 9.55239C6.43267 9.64775 6.30333 9.70132 6.16848 9.70132H4.13457C3.99972 9.70132 3.87039 9.64775 3.77503 9.55239C3.67967 9.45704 3.6261 9.3277 3.6261 9.19285C3.6261 9.05799 3.67967 8.92866 3.77503 8.8333C3.87039 8.73794 3.99972 8.68437 4.13457 8.68437H6.16848C6.30333 8.68437 6.43267 8.73794 6.52802 8.8333C6.62338 8.92866 6.67695 9.05799 6.67695 9.19285Z" fill="white"/>
<path d="M8.71085 11.2268C8.71085 11.3617 8.65728 11.491 8.56193 11.5863C8.46657 11.6817 8.33723 11.7353 8.20238 11.7353H4.13457C3.99972 11.7353 3.87039 11.6817 3.77503 11.5863C3.67967 11.491 3.6261 11.3617 3.6261 11.2268C3.6261 11.0919 3.67967 10.9626 3.77503 10.8673C3.87039 10.7719 3.99972 10.7183 4.13457 10.7183H8.20238C8.33723 10.7183 8.46657 10.7719 8.56193 10.8673C8.65728 10.9626 8.71085 11.0919 8.71085 11.2268Z" fill="white"/>
</svg>
