<svg width="73" height="73" viewBox="0 0 73 73" fill="none" xmlns="http://www.w3.org/2000/svg">
<path d="M36.5 0.40625C56.4237 0.40625 72.5938 16.5763 72.5938 36.5C72.5938 56.4237 56.4237 72.5938 36.5 72.5938C16.5763 72.5938 0.40625 56.4237 0.40625 36.5C0.40625 16.5763 16.5763 0.40625 36.5 0.40625ZM36.5 58.1562C39.1469 58.1562 41.3125 55.9906 41.3125 53.3438C41.3125 50.6969 39.1469 48.5312 36.5 48.5312C33.8531 48.5312 31.6875 50.6969 31.6875 53.3438C31.6875 55.9906 33.8531 58.1562 36.5 58.1562ZM30.9897 20.8353L32.6019 40.1334C32.7703 42.1547 34.4547 43.7188 36.5 43.7188C38.5453 43.7188 40.2297 42.1547 40.3981 40.1334L42.0103 20.8353C42.275 17.6109 39.7484 14.8438 36.5 14.8438C33.42 14.8438 30.9656 17.3463 30.9656 20.3781C30.9656 20.5225 30.9656 20.6909 30.9897 20.8353Z" fill="#F41F52"/>
</svg>
