<svg width="22" height="22" viewBox="0 0 22 22" fill="none" xmlns="http://www.w3.org/2000/svg">
<g clip-path="url(#clip0_410_909)">
<path d="M10.999 21.9981C17.0736 21.9981 21.9981 17.0736 21.9981 10.999C21.9981 4.92444 17.0736 0 10.999 0C4.92444 0 0 4.92444 0 10.999C0 17.0736 4.92444 21.9981 10.999 21.9981Z" fill="url(#paint0_linear_410_909)"/>
<path fill-rule="evenodd" clip-rule="evenodd" d="M16.2915 5.8432C14.9741 4.52393 13.2215 3.79785 11.3553 3.79785C7.50918 3.79785 4.37953 6.9275 4.3776 10.7736C4.3776 12.0024 4.69923 13.2022 5.30976 14.2615L4.31982 17.8765L8.01955 16.9058C9.03837 17.4624 10.1862 17.7551 11.3534 17.7551H11.3553C15.2014 17.7551 18.331 14.6255 18.333 10.7794C18.333 8.91507 17.6088 7.16247 16.2915 5.84512V5.8432ZM11.3553 16.5765H11.3534C10.3133 16.5765 9.2926 16.2972 8.40089 15.7676L8.18904 15.6424L5.99347 16.2182L6.57895 14.0785L6.44028 13.859C5.86057 12.9364 5.55243 11.8695 5.55435 10.7736C5.55435 7.57654 8.15822 4.97653 11.3572 4.97653C12.9057 4.97653 14.3617 5.58127 15.4575 6.67713C16.5534 7.77299 17.1562 9.229 17.1543 10.7794C17.1543 13.9764 14.5504 16.5765 11.3553 16.5765ZM14.5369 12.2335C14.3617 12.1468 13.5046 11.725 13.3448 11.6672C13.1849 11.6095 13.0694 11.5806 12.9519 11.7539C12.8363 11.9292 12.5012 12.3201 12.3991 12.4376C12.2971 12.5532 12.195 12.5686 12.0217 12.4819C11.8464 12.3952 11.2859 12.2104 10.6196 11.6172C10.1015 11.1549 9.75097 10.5849 9.6489 10.4096C9.54682 10.2343 9.63734 10.14 9.72593 10.0533C9.8049 9.97434 9.9012 9.84915 9.98786 9.74708C10.0745 9.645 10.1034 9.57182 10.1631 9.45626C10.2209 9.3407 10.192 9.23863 10.1477 9.15003C10.1034 9.06144 9.75482 8.2044 9.61038 7.8558C9.46979 7.51684 9.32534 7.56114 9.21749 7.55728C9.11541 7.55151 8.99986 7.55151 8.88237 7.55151C8.76489 7.55151 8.57807 7.5958 8.41822 7.76914C8.25837 7.9444 7.8077 8.36618 7.8077 9.22322C7.8077 10.0803 8.4317 10.9103 8.5203 11.0259C8.60696 11.1415 9.74905 12.9037 11.4978 13.6587C11.9138 13.8378 12.2393 13.9456 12.4916 14.0265C12.9095 14.1594 13.2889 14.1401 13.5894 14.0958C13.9245 14.0458 14.6217 13.6741 14.7661 13.2677C14.9106 12.8613 14.9106 12.5108 14.8682 12.4395C14.8239 12.3664 14.7083 12.324 14.5331 12.2354L14.5369 12.2335Z" fill="white"/>
</g>
<defs>
<linearGradient id="paint0_linear_410_909" x1="10.999" y1="20.4015" x2="10.999" y2="-1.59853" gradientUnits="userSpaceOnUse">
<stop stop-color="#27CD44"/>
<stop offset="1" stop-color="#5FFB7C"/>
</linearGradient>
<clipPath id="clip0_410_909">
<rect width="22" height="22" fill="white"/>
</clipPath>
</defs>
</svg>
