<svg width="22" height="22" viewBox="0 0 22 22" fill="none" xmlns="http://www.w3.org/2000/svg">
<g clip-path="url(#clip0_410_929)">
<path d="M21.7254 13.438C23.0712 7.51433 19.3601 1.62127 13.4365 0.275452C7.51286 -1.07037 1.6198 2.64069 0.273978 8.56434C-1.07184 14.488 2.63922 20.381 8.56286 21.7269C14.4865 23.0727 20.3796 19.3616 21.7254 13.438Z" fill="black"/>
<path d="M14.0113 15.81H15.1053L8.03898 6.13598H6.86416L14.0113 15.81ZM14.7047 4.97656H16.6807L12.3646 10.0842L17.4433 17.0349H13.4682L10.354 12.819L6.79097 17.0349H4.81496L9.43144 11.571L4.55688 4.97656H8.6341L11.4498 8.83037L14.7047 4.97656Z" fill="white"/>
</g>
<defs>
<clipPath id="clip0_410_929">
<rect width="22" height="22" fill="white"/>
</clipPath>
</defs>
</svg>
