<svg width="22" height="22" viewBox="0 0 22 22" fill="none" xmlns="http://www.w3.org/2000/svg">
<g clip-path="url(#clip0_410_933)">
<path d="M10.999 21.9981C17.0736 21.9981 21.9981 17.0736 21.9981 10.999C21.9981 4.92444 17.0736 0 10.999 0C4.92444 0 0 4.92444 0 10.999C0 17.0736 4.92444 21.9981 10.999 21.9981Z" fill="#FD0000"/>
<path d="M18.0268 7.46859C17.8573 6.83688 17.3604 6.33999 16.7307 6.17244C15.5867 5.86621 11.001 5.86621 11.001 5.86621C11.001 5.86621 6.41533 5.86621 5.27133 6.17244C4.63962 6.34192 4.14273 6.83881 3.97517 7.46859C3.66895 8.6126 3.66895 10.9988 3.66895 10.9988C3.66895 10.9988 3.66895 13.3851 3.97517 14.5291C4.14465 15.1608 4.64154 15.6577 5.27133 15.8252C6.41533 16.1315 11.001 16.1315 11.001 16.1315C11.001 16.1315 15.5867 16.1315 16.7307 15.8252C17.3624 15.6558 17.8593 15.1589 18.0268 14.5291C18.333 13.3851 18.333 10.9988 18.333 10.9988C18.333 10.9988 18.333 8.6126 18.0268 7.46859ZM9.53343 13.2002V8.79942L13.3429 10.9988L9.53343 13.1983V13.2002Z" fill="white"/>
</g>
<defs>
<clipPath id="clip0_410_933">
<rect width="22" height="22" fill="white"/>
</clipPath>
</defs>
</svg>
